<?xml version="1.0" encoding="utf-8"?>
<!-- Generator: Adobe Illustrator 19.1.0, SVG Export Plug-In . SVG Version: 6.00 Build 0)  -->
<svg version="1.1" id="Layer_1" xmlns="http://www.w3.org/2000/svg" xmlns:xlink="http://www.w3.org/1999/xlink" x="0px" y="0px"
	 viewBox="669 -668.3 1417.3 1417.3" style="enable-background:new 669 -668.3 1417.3 1417.3;" xml:space="preserve">
<style type="text/css">
	.st0{fill:#7F7F7F;}
</style>
<g>
	<path class="st0" d="M1759.5-95.5c-2.6,0-5,0.2-7.3,0.4c-2.8-0.6-5.8-0.6-8.7,0.2c-3,0.8-9.4,2.6-17.7,6.1
		c-0.4,0.2-0.7,0.3-1.1,0.5l-0.4,0.2c-0.6,0.2-1.1,0.5-1.7,0.8c-2.1,0.9-4.2,2-6.5,3.1c-21.4-58-62.1-110-116.8-148.4
		c-30.9-21.7-65.3-38.5-102.4-50.1c-38.3-12-78.5-18-119.5-18c-155.1,0-291.7,88.2-338.7,216.6c-2.2-1.1-4.3-2.1-6.5-3.1
		c-0.5-0.3-1.1-0.5-1.6-0.7l-0.4-0.2c-0.3-0.2-0.7-0.3-1.1-0.5c-8.3-3.5-14.6-5.3-17.7-6.1c-3-0.7-5.9-0.8-8.7-0.2
		c-2.3-0.2-4.8-0.4-7.3-0.4c-49.3,0-89.4,40.1-89.4,89.4c0,49.3,40.1,89.4,89.4,89.4c2.5,0,5-0.1,7.3-0.4
		c10,21.6,21.6,74.8,16.7,149c-1.2,19.9,5.9,39.8,19.5,54.4c0,0,0.1,0.1,0.1,0.1c13.8,14.7,33.2,23.1,53.2,23.1h7.3V362
		c0,10.8,8.8,19.6,19.6,19.6s19.6-8.8,19.6-19.6v-52.3h477.2V362c0,10.8,8.8,19.6,19.6,19.6s19.6-8.8,19.6-19.6v-52.3h7.2
		c20.1,0,39.5-8.4,53.2-23.1c13.8-14.7,21-34.6,19.6-54.7c-4.9-76.2,5.9-122,18.1-148.8c2,0.2,4,0.2,6,0.2
		c49.3,0,89.4-40.1,89.4-89.4c0.1-23.9-9.2-46.4-26.1-63.3C1806-86.2,1783.5-95.5,1759.5-95.5z M1181.3-202.7
		c56.4-38.5,124.2-58.9,196.2-58.9c37,0,73.3,5.5,107.7,16.3c33.2,10.4,64,25.5,91.6,44.8c50.9,35.7,87.9,84.5,105.5,138.5
		c-14,11.6-28.6,27-42,47.4c-30.2,45.8-47.4,105.7-51.2,178.4h-423c-3.2-61.3-16.1-113.7-38.2-156.1c-14.7-28.2-33.2-51.5-55.2-69.6
		C1090.6-117.2,1129-166.9,1181.3-202.7z M1759.5,44.2c-3.7,0-7.7-0.6-12-1.7c-8.5-2.2-17.5,1.5-21.9,9.1
		c-24.7,42.2-34.6,103.7-29.4,183c0.6,9.2-2.6,18.4-9,25.1c-6.4,6.9-15.2,10.7-24.6,10.7h-570.2c-9.2,0-18.1-3.9-24.6-10.7
		c-6.3-6.9-9.6-16.1-9-25.2c6.2-96.4-12.1-164-31.7-186.1c-4.8-5.4-12.2-7.7-19.3-6c-5,1.2-8.8,1.8-12.3,1.8
		c-27.7,0-50.2-22.5-50.2-50.2s22.5-50.2,50.2-50.2c2.4,0,5.3,0.4,7.8,0.8c1.4,0.2,2.9,0.3,4.2,0.2c1.7,0.6,3.7,1.3,6,2.3
		c0.5,0.2,0.9,0.4,1.4,0.6l0.4,0.2c0.2,0.1,0.5,0.2,0.8,0.4c6.2,2.7,12.4,6.1,18.5,10.1c23.6,15.6,43.3,38.2,58.5,67.2
		c21.6,41.3,33.2,94.5,34.5,158c0.2,10.7,8.9,19.3,19.6,19.3H1608c10.7,0,19.4-8.6,19.6-19.3c1.4-73.8,16.7-133.3,45.4-176.8
		c13.7-20.8,28.7-35.1,42.2-44.9c0.7-0.4,1.4-0.9,2-1.4c7.9-5.5,15.4-9.5,21.7-12.4c0.2-0.1,0.4-0.2,0.7-0.3l0.4-0.2
		c0.5-0.2,0.9-0.4,1.4-0.6c2.3-1,4.3-1.7,6-2.3c1.4,0.1,2.8,0,4.2-0.2c3-0.5,5.5-0.8,7.8-0.8c13.5,0,26.1,5.2,35.6,14.7
		c9.4,9.5,14.6,22.1,14.6,35.5C1809.7,21.7,1787.2,44.2,1759.5,44.2z"/>
	<path class="st0" d="M1937.3-196.1c-30.6-72.3-74.4-137.3-130.2-193.1s-120.7-99.6-193.1-130.2c-74.9-31.7-154.4-47.7-236.4-47.7
		c-82,0-161.5,16.1-236.4,47.7c-72.3,30.6-137.3,74.4-193.1,130.2c-55.8,55.8-99.6,120.7-130.2,193.1
		c-31.7,74.9-47.7,154.4-47.7,236.4s16.1,161.5,47.7,236.4c30.6,72.3,74.4,137.3,130.2,193.1c55.8,55.8,120.7,99.6,193.1,130.2
		c74.9,31.7,154.4,47.7,236.4,47.7c82,0,161.5-16.1,236.4-47.7c72.3-30.6,137.3-74.4,193.1-130.2s99.6-120.7,130.2-193.1
		c31.7-74.9,47.7-154.4,47.7-236.4S1968.9-121.2,1937.3-196.1z M1942,40.3c0,76.2-14.9,150.1-44.3,219.7
		c-28.4,67.2-69.1,127.6-121,179.4c-51.8,51.8-112.2,92.5-179.4,121c-69.6,29.4-143.5,44.3-219.7,44.3
		c-76.2,0-150.1-14.9-219.7-44.3c-67.2-28.4-127.6-69.1-179.4-121c-51.8-51.8-92.5-112.2-121-179.4
		c-29.4-69.6-44.3-143.5-44.3-219.7c0-76.2,14.9-150.1,44.3-219.7c28.4-67.2,69.1-127.6,121-179.4c51.8-51.8,112.2-92.5,179.4-121
		c69.6-29.4,143.5-44.3,219.7-44.3c76.2,0,150.1,14.9,219.7,44.3c67.2,28.4,127.6,69.1,179.4,121c51.8,51.8,92.5,112.2,121,179.4
		C1927.1-109.8,1942-35.9,1942,40.3z"/>
</g>
</svg>
