<?xml version="1.0" encoding="utf-8"?>
<!-- Generator: Adobe Illustrator 19.1.0, SVG Export Plug-In . SVG Version: 6.00 Build 0)  -->
<svg version="1.1" id="Layer_1" xmlns="http://www.w3.org/2000/svg" xmlns:xlink="http://www.w3.org/1999/xlink" x="0px" y="0px"
	 viewBox="669 -668.3 1417.3 1417.3" style="enable-background:new 669 -668.3 1417.3 1417.3;" xml:space="preserve">
<style type="text/css">
	.st0{fill:#7F7F7F;}
</style>
<path class="st0" d="M1936.1-195.5c-30.5-72.1-74.2-136.9-129.9-192.6c-55.6-55.7-120.4-99.4-192.6-129.9
	c-74.7-31.6-154.1-47.6-235.9-47.6s-161.2,16-235.9,47.6c-72.1,30.5-136.9,74.3-192.6,129.9c-55.7,55.6-99.4,120.4-129.9,192.6
	c-31.6,74.7-47.6,154.1-47.6,235.9c0,81.9,16.1,161.4,47.8,236.2c30.6,72.3,74.4,137.1,130.2,192.8c7.9,7.9,20.7,7.9,28.6,0
	c7.9-7.9,7.9-20.7,0-28.6c-52.1-52-93-112.6-121.6-180c-29.6-69.8-44.6-144-44.6-220.5c0-76.4,14.9-150.5,44.4-220.2
	c28.5-67.3,69.2-127.8,121.2-179.8c51.9-51.9,112.4-92.7,179.8-121.2c69.7-29.4,143.8-44.4,220.2-44.4c76.4,0,150.5,14.9,220.2,44.4
	c67.3,28.5,127.8,69.2,179.8,121.2c51.9,51.9,92.7,112.4,121.2,179.8c29.4,69.7,44.4,143.8,44.4,220.2c0,76.4-14.9,150.5-44.4,220.2
	c-28.5,67.3-69.2,127.8-121.2,179.8c-51.9,51.9-112.4,92.7-179.8,121.2c-69.7,29.4-143.8,44.4-220.2,44.4
	c-44.4,0-88.6-5.1-131.4-15.3c-41.5-9.9-81.9-24.5-120.1-43.5c-28.5-15.6-46.1-45.3-46.1-77.9c0-1.7-0.2-3.3-0.6-4.8V178.6
	c0-115.2,68.8-221.4,172.8-269.5c31.4,51,74.7,90.3,125.4,90.3c48.4,0,90.2-35.9,121.2-83.7C1609.9-38.2,1676,56.6,1676,171.3v146.6
	h-39.8c0,0-0.1,0-0.1,0V178.8c0-11-8.9-19.9-19.9-19.9h-19.9h-178.9h-79.5c-11,0-19.9,8.9-19.9,19.9v159c0,11,8.9,19.9,19.9,19.9
	h59.6v139.1c0,11,9,19.9,19.9,19.9h198.8c11,0,20-8.9,19.9-19.8V357.7c0,0,0.1,0,0.1,0h59.6c11,0,19.9-8.9,20-19.9V171.3
	c0-127.9-75-237.6-197.1-290.4c24.2-48.7,38-102.9,37.9-142.5c0-96.3-80.3-174.6-178.9-174.6s-178.9,78.3-178.9,174.6
	c0,37.8,12.5,88.8,34.7,135.6c-116.6,55.1-193.7,174.8-193.7,304.7v288.5c-0.1,0.7-0.1,1.3-0.1,2c0,46.9,25.3,89.8,66.1,112.6
	c0.7,0.5,1.4,0.9,2.1,1.3c41.1,20.4,84.5,36.2,129.1,46.8c45.9,10.9,93.2,16.4,140.8,16.4c81.7,0,161-16,235.8-47.5
	c72.1-30.5,136.9-74.2,192.6-129.9c55.7-55.6,99.4-120.4,129.9-192.6c31.6-74.7,47.6-154.1,47.6-235.9
	C1983.7-41.4,1967.7-120.8,1936.1-195.5z M1357.8,318V198.7h39.7V318H1357.8z M1596.3,477h-159V198.7h159V477z M1377.7-40.3
	c-54.7,0-108.3-84.3-129.6-160c50.6-8.4,98.2-44.6,122.7-91c31.2,35,87.4,53.1,143.9,56.8C1502.5-152.7,1440.7-40.3,1377.7-40.3z
	 M1377.7-396.5c72.3,0,131.8,53.8,138.6,122.2c-61.8-4.3-122.2-28.7-129.7-71.5c-1.8-9.5-8.6-16.7-20-16.4
	c-9.8,0.2-17.9,7.5-19.3,17.2c-6.9,50.3-56.9,98-107.3,105.6c-1-7.8-1.5-15.2-1.5-22.2C1238.5-336,1301-396.5,1377.7-396.5z"/>
</svg>
