<?xml version="1.0" encoding="utf-8"?>
<!-- Generator: Adobe Illustrator 19.1.0, SVG Export Plug-In . SVG Version: 6.00 Build 0)  -->
<svg version="1.1" id="Layer_1" xmlns="http://www.w3.org/2000/svg" xmlns:xlink="http://www.w3.org/1999/xlink" x="0px" y="0px"
	 viewBox="669 -668.3 1417.3 1417.3" style="enable-background:new 669 -668.3 1417.3 1417.3;" xml:space="preserve">
<style type="text/css">
	.st0{fill:#7F7F7F;}
</style>
<g>
	<path class="st0" d="M1935.8-195.9c-30.6-72.3-74.4-137.1-130.2-192.8c-1.1-1.1-2.4-2.1-3.7-2.9c-3.2-2.2-7-3.5-11.2-3.5h-220.6
		c-10.9,0-19.8,8.9-19.8,19.8c0,10.9,8.9,19.8,19.8,19.8h19.8v179.8c-48.5,28.1-79.2,80.6-79.2,137V19c-7.6-3.6-16.1-6.6-25.4-8.7
		c7.9-12.1,12-25.8,12-39.4c0-26-13.9-49.8-38.3-65.4c-8.4-5.4-18-9.4-28.5-12.5c-9.6-26.5-34.9-45.6-64.7-45.6
		c-27.2,0-50.7,15.9-61.9,38.8h-93.1c-18.7,0-25.8-7.8-27.3-9.8c-7.9-15-23.9-24.7-41.6-24.7c-7.3,0-14.6,1.7-21.1,5
		c-11.4,5.7-19.8,15.4-23.8,27.4s-3.1,24.8,2.6,36.2c1.3,2.7,7.5,14,20.2,26.2c-43.8,15.3-63.9,48.6-63.9,81.7
		c0,16.7,5.5,33.6,15.7,48.2c-70.1,6.3-101.8,48.1-101.8,89.6c0,19.7,7.7,39.8,21.8,56h-95.8c-7.8,0-14.6,5.2-16.6,12.7
		c-1.3,4.6-1.9,8.9-1.9,13.1c0,84.8,208.5,129.2,414.4,129.2c76.4,0,153-6.1,219.3-18.1c0.9,10.1,9.3,18.1,19.6,18.1h277.2
		c10.9,0,19.8-8.9,19.8-19.8v-396c-0.2-56.3-30.9-108.8-79.3-136.9v-179.8h33.3c49.9,51,89.3,110,117,175.4
		c29.6,69.8,44.6,144,44.6,220.5c0,76.4-14.9,150.5-44.4,220.2c-28.5,67.3-69.2,127.8-121.2,179.8
		c-51.9,51.9-112.4,92.7-179.8,121.2c-69.7,29.4-143.8,44.4-220.2,44.4s-150.5-14.9-220.2-44.4c-67.3-28.5-127.8-69.2-179.8-121.2
		C925.8,388.5,885,328,856.5,260.6c-29.4-69.7-44.4-143.8-44.4-220.2s14.9-150.5,44.4-220.2c28.5-67.3,69.2-127.8,121.2-179.8
		c51.9-51.9,112.4-92.7,179.8-121.2c69.7-29.4,143.8-44.4,220.2-44.4c44.4,0,88.6,5.1,131.4,15.3c41.6,9.9,82.1,24.6,120.4,43.7
		c10,4.9,22.1,0.9,27.1-9.1c4.9-10,0.9-22.1-9.1-27.1c-41.1-20.4-84.5-36.2-129.1-46.8c-45.9-10.9-93.2-16.4-140.8-16.4
		c-81.7,0-161,16-235.8,47.5c-72.1,30.5-136.9,74.2-192.6,129.9c-55.7,55.6-99.4,120.4-129.9,192.6
		c-31.6,74.7-47.6,154.1-47.6,235.9s16,161.2,47.6,235.9c30.5,72.1,74.2,136.9,129.9,192.6c55.6,55.7,120.4,99.4,192.6,129.9
		c74.7,31.6,154.1,47.6,235.9,47.6s161.2-16,235.9-47.6c72.1-30.5,136.9-74.3,192.6-129.9c55.7-55.6,99.4-120.4,129.9-192.6
		c31.6-74.7,47.6-154.1,47.6-235.9C1983.7-41.6,1967.5-121.1,1935.8-195.9z M1527.4,94.3c0,16.2-9.3,31.6-25.4,42.2
		c-6.5,4.3-14.4,7.6-22.9,10.2c-3-8.5-7.7-16.2-13.6-22.8c10.2-2.5,17.5-5.9,22.2-9.1c8.8-5.8,13.9-13.3,13.9-20.6
		c0-13.5-17.1-27.2-49.7-27.2c-44.9,0-103.8,4.7-160.8,9.3c-17.6,1.4-34.7,2.8-51.1,4c3.3-8.1,5.2-16.9,5.2-26.2c0,0,0-0.1,0-0.2
		c14.2-1.1,28.8-2.2,43.8-3.4c57.5-4.6,116.9-9.4,162.9-9.4C1503.8,41.2,1527.4,68.7,1527.4,94.3z M1555.2,196.3
		c7.1,0,12.9,5.8,12.9,12.9c0,7.1-5.8,12.9-12.9,12.9h-96.4c8.1-7,14.7-15.8,18.9-25.8H1555.2z M1448.7,169.8
		c0,19-15.5,34.5-34.4,34.5c-19,0-34.4-15.5-34.4-34.5s15.5-34.4,34.4-34.4C1433.2,135.3,1448.7,150.8,1448.7,169.8z M1365.9-118.1
		c19,0,34.4,15.5,34.4,34.4c0,19-15.5,34.5-34.4,34.5c-19,0-34.5-15.5-34.5-34.5C1331.4-102.6,1346.9-118.1,1365.9-118.1z
		 M1136.2-112.4c1.9-0.9,3.8-1.3,5.8-1.3c4.7,0,9.3,2.6,11.6,7.1c0.5,1,14.9,27.3,57.3,27.3h86.3c0.6,9.2,3,17.9,6.8,25.8h-93.1
		c-59,0-79.6-39.9-80.4-41.6C1127.2-101.5,1129.8-109.2,1136.2-112.4z M1176.4-27.7c57.7,0,99.7,5.3,136.8,10
		c30.6,3.8,56.9,7.2,87.1,7.2c23.9,0,36.8-9.6,36.8-18.7c0-5-3.8-10.3-10.5-14.6c-1-0.6-2.1-1.3-3.4-1.9c4.7-7.1,8.1-15.1,10-23.6
		c2.5,1.2,5.1,2.3,7.3,3.8c14.2,9.1,22.4,22.4,22.4,36.3c0,21.4-19.6,44.5-62.6,44.5c-31.8,0-60.2-3.6-90.3-7.4
		c-26.8-3.4-56.2-7.1-92.2-8.8c-11.5-8.7-25.8-13.9-41.3-13.9c-38,0-68.9,30.9-68.9,68.9c0,4.2,0.4,8.3,1.2,12.3
		c-11.8-10.5-18.4-24.4-18.4-38.1C1090.2,2.5,1112.8-27.7,1176.4-27.7z M1210.8,54.2c0,19-15.5,34.4-34.4,34.4
		c-19,0-34.4-15.4-34.4-34.4s15.4-34.4,34.4-34.4C1195.4,19.7,1210.8,35.2,1210.8,54.2z M1090.2,110.1c15.1,0,31.1,0.4,47.5,1
		c11,7.5,24.3,11.9,38.6,11.9c11.7,0,22.6-2.9,32.3-8.1c18.2,1.2,36.6,2.5,54.8,3.8c32.9,2.4,66.4,4.7,98.4,6.3
		c-6.2,7.2-10.9,15.7-13.7,25.1c-28.5-1.6-57.7-3.6-86.6-5.7c-59-4.2-120.1-8.5-171.3-8.5c-41.6,0-60.3,15.1-60.3,30.1
		c0,14.5,16.4,30.1,43.1,30.1h277.6c4.2,10,10.7,18.8,18.9,25.8h-296.5c-43.2,0-68.9-28.5-68.9-56
		C1004.2,140.3,1026.7,110.1,1090.2,110.1z M1291.6,342.6c-218.7,0-359-47.6-377.8-86.1h753.1c0.8,0.1,1.6,0.2,2.3,0.2
		C1650,295.2,1509.9,342.6,1291.6,342.6z M1787.9,337.5h-189.6c59.2-19.4,99.5-45.9,106.4-79.2h83.2V337.5z M1788,218.7L1788,218.7
		h-186.3c0.6-3.1,1-6.3,1-9.5c0-26.1-21.2-47.4-47.4-47.4h-4.9v-26.9c6.5-10.8,10.3-22.6,11.2-35H1788V218.7z M1787.9-38.7v99h0
		h-234c-1.1-2.2-2.3-4.4-3.6-6.5v-92.5c0-45.5,26.6-87.6,67.9-107.2c6.9-3.3,11.3-10.2,11.3-17.9v-191.7h79.2v191.7
		c0,7.6,4.4,14.6,11.3,17.9C1761.3-126.3,1787.9-84.2,1787.9-38.7z"/>
	<path class="st0" d="M1669.2-137.7c-88.7,0-99,67.8-99,118.8c0,10.9,8.9,19.8,19.8,19.8s19.8-8.9,19.8-19.8
		c0-66.6,20.9-79.2,59.4-79.2c10.9,0,19.8-8.9,19.8-19.8C1689-128.8,1680.1-137.7,1669.2-137.7z"/>
</g>
</svg>
