<?xml version="1.0" encoding="utf-8"?>
<!-- Generator: Adobe Illustrator 19.1.0, SVG Export Plug-In . SVG Version: 6.00 Build 0)  -->
<svg version="1.1" id="Layer_1" xmlns="http://www.w3.org/2000/svg" xmlns:xlink="http://www.w3.org/1999/xlink" x="0px" y="0px"
	 viewBox="0 0 400 400" style="enable-background:new 0 0 400 400;" xml:space="preserve">
<style type="text/css">
	.st0{fill:#FFFFFF;}
</style>
<g>
	<path class="st0" d="M41.1,253.1h128.7l-66.6-33.9H35c-8.3,2.2-14.3,8.8-14.3,16.6C20.7,245.4,29.9,253.1,41.1,253.1z"/>
	<path class="st0" d="M367.5,219.2h-68.2l-66.6,33.9h128.6c11.3,0,20.4-7.8,20.4-17.4C381.8,228,375.8,221.4,367.5,219.2z"/>
	<path class="st0" d="M201.3,259.8c3.5-1.8,54.6-27.8,79.7-40.6H121.6C146.7,232,197.8,258,201.3,259.8z"/>
	<path class="st0" d="M354.4,269.1c-51.6-0.1-103.2,0-154.8,0c-52.1,0-104.1,0.2-156.2-0.1c-13.3-0.1-18.5,3.9-18.3,14.8
		c0.6,40.6,42.8,75.1,93.1,75.2c54,0.1,107.9,0.1,161.9,0c50.4-0.1,92.3-32.7,94-73.1C374.8,271.5,372.2,269.2,354.4,269.1z"/>
	<path class="st0" d="M36.8,211.1c108.9,0.1,217.7,0.1,326.6-0.1c13,0,19.9-8.1,19.9-22c0-14.2-6.3-20.7-20.4-20.7
		c-54,0-107.9,0-161.9,0c-54.9,0-109.8-0.1-164.7,0c-14.2,0-19.8,6.2-19.6,21.3C16.9,204.2,23.1,211.1,36.8,211.1z"/>
	<path class="st0" d="M63,157.3c45.5,0,91,0,136.5,0c52.6,0,105.2-0.2,157.8,0.1c12.2,0.1,17.5-4.1,17-14.6
		c-0.3-7.4,0.2-14.8-0.1-22.1C372.6,76.3,331,41.1,279.7,41c-53.1-0.2-106.1,0.1-159.2-0.1c-26.6-0.1-48.7,8.3-67.3,24.5
		c-18.6,16.2-27.5,36-27.7,58.6C25.1,160.7,21.6,157.3,63,157.3z M280.5,61.1c0-1.9,1.5-3.4,3.4-3.4h0.6c1.9,0,3.4,1.5,3.4,3.4v8.1
		c0,1.9-1.5,3.4-3.4,3.4h-0.6c-1.9,0-3.4-1.5-3.4-3.4V61.1z M280.5,98.6c0-1.9,1.5-3.4,3.4-3.4h0.6c1.9,0,3.4,1.5,3.4,3.4v8.1
		c0,1.9-1.5,3.4-3.4,3.4h-0.6c-1.9,0-3.4-1.5-3.4-3.4V98.6z M243,76.1c0-1.9,1.5-3.4,3.4-3.4h0.6c1.9,0,3.4,1.5,3.4,3.4v8.1
		c0,1.9-1.5,3.4-3.4,3.4h-0.6c-1.9,0-3.4-1.5-3.4-3.4V76.1z M198,61.1c0-1.9,1.5-3.4,3.4-3.4h0.6c1.9,0,3.4,1.5,3.4,3.4v8.1
		c0,1.9-1.5,3.4-3.4,3.4h-0.6c-1.9,0-3.4-1.5-3.4-3.4V61.1z M198,98.6c0-1.9,1.5-3.4,3.4-3.4h0.6c1.9,0,3.4,1.5,3.4,3.4v8.1
		c0,1.9-1.5,3.4-3.4,3.4h-0.6c-1.9,0-3.4-1.5-3.4-3.4V98.6z M145.5,76.1c0-1.9,1.5-3.4,3.4-3.4h0.6c1.9,0,3.4,1.5,3.4,3.4v8.1
		c0,1.9-1.5,3.4-3.4,3.4h-0.6c-1.9,0-3.4-1.5-3.4-3.4V76.1z M108,61.1c0-1.9,1.5-3.4,3.4-3.4h0.6c1.9,0,3.4,1.5,3.4,3.4v8.1
		c0,1.9-1.5,3.4-3.4,3.4h-0.6c-1.9,0-3.4-1.5-3.4-3.4V61.1z M108,98.6c0-1.9,1.5-3.4,3.4-3.4h0.6c1.9,0,3.4,1.5,3.4,3.4v8.1
		c0,1.9-1.5,3.4-3.4,3.4h-0.6c-1.9,0-3.4-1.5-3.4-3.4V98.6z"/>
</g>
</svg>
