<?xml version="1.0" encoding="utf-8"?>
<!-- Generator: Adobe Illustrator 19.1.0, SVG Export Plug-In . SVG Version: 6.00 Build 0)  -->
<svg version="1.1" id="Layer_1" xmlns="http://www.w3.org/2000/svg" xmlns:xlink="http://www.w3.org/1999/xlink" x="0px" y="0px"
	 viewBox="-380 237.8 120 120" style="enable-background:new -380 237.8 120 120;" xml:space="preserve">
<style type="text/css">
	.st0{fill:#FFFFFF;}
</style>
<path class="st0" d="M-278.5,353.4c0,1.1-0.9,1.9-1.9,1.9H-325c-1.1,0-1.9-0.9-1.9-1.9c0-1.1,0.9-1.9,1.9-1.9h20.3v-34.8
	c-29.3-1.2-29.7-31.2-29.7-31.5l0-0.3l5.9-43c0.1-1,1.1-1.8,2.2-1.6c1,0.2,1.8,1.1,1.6,2.2l-5.9,42.9c0,2.3,1,27.6,27.8,27.6
	c26.8,0,27.7-25.3,27.7-27.6l-5.9-42.9c-0.1-1.1,0.6-2,1.6-2.2c1-0.1,2,0.6,2.2,1.6l6,43.3c0,0.3-0.4,30.3-29.7,31.5v34.8h20.3
	C-279.4,351.5-278.5,352.4-278.5,353.4z M-279,285.5c-0.1,3.1-1.6,23.4-23.7,23.4c-22,0-23.6-19.7-23.7-23.4l0.9-6.3h45.7
	L-279,285.5z M-343.2,347.6c-1.8,3.1-5.7,4.1-8.8,2.3s-4.1-5.7-2.3-8.8c1.8-3.1,5.7-4.1,8.8-2.3S-341.4,344.5-343.2,347.6z
	 M-350,335.6c-1.8,3.1-5.7,4.1-8.8,2.3c-3.1-1.8-4.1-5.7-2.3-8.8c1.8-3.1,5.7-4.1,8.8-2.3C-349.3,328.6-348.2,332.5-350,335.6z
	 M-336.2,335.7c-1.8,3.1-5.7,4.1-8.8,2.3c-3.1-1.8-4.1-5.7-2.3-8.8c1.8-3.1,5.7-4.1,8.8-2.3C-335.5,328.7-334.4,332.7-336.2,335.7z
	 M-329.3,323.9c-1.8,3.1-5.7,4.1-8.8,2.3s-4.1-5.7-2.3-8.8c1.8-3.1,5.7-4.1,8.8-2.3C-328.5,316.9-327.5,320.9-329.3,323.9z
	 M-350,311.8c-1.8,3.1-5.7,4.1-8.8,2.3c-3.1-1.8-4.1-5.7-2.3-8.8c1.8-3.1,5.7-4.1,8.8-2.3C-349.2,304.8-348.2,308.7-350,311.8z
	 M-336.2,311.9c-1.8,3.1-5.7,4.1-8.8,2.3c-3.1-1.8-4.1-5.7-2.3-8.8c1.8-3.1,5.7-4.1,8.8-2.3C-335.4,304.9-334.4,308.9-336.2,311.9z
	 M-343.1,323.8c-1.8,3.1-5.7,4.1-8.8,2.3c-3.1-1.8-4.1-5.7-2.3-8.8c1.8-3.1,5.7-4.1,8.8-2.3C-342.3,316.8-341.3,320.7-343.1,323.8z
	 M-356.9,323.6c-1.8,3.1-5.7,4.1-8.8,2.3s-4.1-5.7-2.3-8.8c1.8-3.1,5.7-4.1,8.8-2.3C-356.1,316.6-355.1,320.5-356.9,323.6z
	 M-348,303.5c-1.1,0-1.9-0.9-1.9-1.9c0-0.9-0.3-8.3-7-8.3c-1.1,0-1.9-0.9-1.9-1.9s0.9-1.9,1.9-1.9c8.6,0,10.9,7.9,10.9,12.1
	C-346.1,302.7-347,303.5-348,303.5z"/>
</svg>
