<?xml version="1.0" encoding="utf-8"?>
<!-- Generator: Adobe Illustrator 19.1.0, SVG Export Plug-In . SVG Version: 6.00 Build 0)  -->
<svg version="1.1" xmlns="http://www.w3.org/2000/svg" xmlns:xlink="http://www.w3.org/1999/xlink" x="0px" y="0px"
	 viewBox="0 0 260 259.2" style="enable-background:new 0 0 260 259.2;" xml:space="preserve">
<style type="text/css">
	.st0{display:none;}
	.st1{display:inline;}
	.st2{display:inline;opacity:0.86;fill:#DC4959;}
	.st3{fill:#FFFFFF;}
	.st4{display:inline;fill:#FFFFFF;}
	.st5{font-family:'MyriadPro-Regular';}
	.st6{font-size:21.5353px;}
	.st7{fill:#F07F00;}
	.st8{clip-path:url(#SVGID_2_);}
	.st9{opacity:0.7;clip-path:url(#SVGID_4_);}
	.st10{clip-path:url(#SVGID_6_);}
	.st11{fill:#6D7D4A;}
</style>
<g id="Layer_3" class="st0">
	<rect x="-18.4" y="-300.2" class="st1" width="1162.9" height="1441.7"/>
</g>
<g id="BASE" class="st0">
	<rect class="st2" width="260" height="259.2"/>
	<text transform="matrix(1 0 0 1 79.5755 178.3316)" class="st4 st5 st6">SALGADOS</text>
</g>
<g id="Layer_1">
	<g>
		<g>
			<path class="st3" d="M128.8,114.7c0-0.1,0-0.2,0-0.4H83.9c0,0.1,0,0.2,0,0.4c0,0.1-0.1,0.1-0.1,0.2c-0.5,0.7-0.6,1.7-0.4,2.4
				l8.2,15.6c0.3,1,1.3,2,2.4,2h24.6c1.1,0,2.1-0.9,2.4-1.9l8.2-15.6c0.3-0.8,0.1-1.8-0.4-2.5C128.9,114.8,128.8,114.8,128.8,114.7z
				 M95.9,129.9l-6.5-10.4h3.9l5.2,10.4H95.9z M104.4,129.9h-2.6l-5.2-10.4h7.8V129.9z M108,129.9v-10.4h8.1l-5.2,10.4H108z
				 M116.8,129.9h-2.7l5.2-10.4h3.9L116.8,129.9z"/>
			<path class="st3" d="M89.2,116.4c-0.5-1.6-0.7-3.3-0.7-5c0-7.6,5.1-15.8,9.5-21.4c3.2-4.1,6.4-7.4,8.3-9.2c1.8,1.8,5,5.2,8.2,9.3
				c6.2,8.1,9.5,15.4,9.5,21.2c0,1.7-0.3,3.4-0.7,5h4.6c0.4-1.6,0.6-3.3,0.6-5c0-16.2-19.8-34.5-20.7-35.3c-0.8-0.8-2.1-0.8-3,0
				c-0.8,0.7-20.7,18.5-20.7,35.3c0,1.7,0.2,3.4,0.6,5H89.2z"/>
		</g>
		<path class="st3" d="M173.8,139.6c-2.6,0-5.3-0.7-8.1-2c-1.9-0.9-3.8-1.9-5.6-3c-0.9-0.5-1.8-1-2.7-1.5c-0.2-0.1-0.5-0.3-0.6-0.3
			c-3.9,0-7.5-1.6-10.5-4.7c-7.9-8-12.8-17.7-14.6-28.9c-0.7-4.3,0-8.1,2.2-11.2c0.8-1.2,1.1-2.4,1.3-3.7c0.5-4.3,1.3-8.8,3.6-12.8
			c0.6-1.1,1.4-2.1,2.4-3.2c1.4-1.6,3-2.4,4.7-2.4c0.8,0,1.6,0.2,2.4,0.5c0.1,0.1,0.2,0.1,0.3,0.1c0,0,0.1-0.1,0.2-0.4
			c3.3-5.8,7.5-9.9,12.7-12.5c1.3-0.6,2.7-1.1,4.1-1.3c0.3-0.1,0.7-0.1,1-0.1c1.5,0,2.8,0.5,3.7,1.5c0.9,1,1.4,2.3,1.3,3.8
			c-0.1,1.8-0.5,3.8-1.3,6.1c-0.7,1.9-1.5,3.8-2.3,5.8c-0.2,0.5-0.4,1-0.6,1.5c0.1,0,0.3,0.1,0.4,0.1c2.8,0.7,4.4,2.6,4.4,5.3
			c0,1.7-0.3,3.4-0.6,5l-0.2,0.9c-0.2,1.1-0.2,1.2,0.5,1.6c1.6,0.9,2.6,2.5,3,4.7c0.8,4.4,2.6,8.2,5.6,11.6c1.7,1.9,2.3,4.1,1.8,6.6
			l0.4,0.2c1,0.5,1.9,0.9,2.9,1.4l0.5,0.2c0.7,0.3,1.4,0.7,2,1.2c2.5,1.9,3.1,4.1,1.8,7l0.6,0.1c1.2,0.3,2.4,0.6,3.6,0.9l0.9,0.2
			c2.6,0.7,5.2,1.4,7.6,3c1.7,1.1,2.7,2.7,2.8,4.4c0.1,1.7-0.7,3.3-2.3,4.7c-2.8,2.4-6.2,3.4-8.9,4c-2.3,0.5-4.7,0.8-7,0.8
			c-1.7,0-3.4-0.1-5-0.4c-0.1,0-0.2,0-0.3,0c-0.2,0.4-0.4,0.8-0.5,1.1c-0.7,2-2.3,3.3-4.6,3.7C175.6,139.5,174.7,139.6,173.8,139.6z
			 M163.7,130.3c2.2,1.1,4.3,2.1,6.4,3c1.2,0.5,2.5,0.8,3.7,0.8c0.6,0,1.2-0.1,1.7-0.2c0.3,0,0.6-0.3,0.7-0.4
			c1.7-3.8,3.4-7.6,5.1-11.4c1.1-2.5,2.2-5,3.4-7.5c0.2-0.4,0.1-0.4-0.1-0.6c-0.4-0.3-0.8-0.6-1.2-0.8c-0.5-0.2-1-0.5-1.5-0.7
			c-0.9-0.4-1.7-0.8-2.6-1.3c-0.1,0-0.1-0.1-0.2-0.1c0,0-0.1,0.1-0.2,0.2c-2.9,3.1-5.8,6.2-8.7,9.3l-8.3,8.9
			C162.6,129.7,163.2,130,163.7,130.3z M184.4,129.5c1,0.1,2,0.1,2.9,0.1c0.3,0,0.5,0,0.8,0c4.5-0.2,7.9-1.1,10.7-3
			c0.5-0.4,0.7-0.6,0.8-0.7c-0.1-0.1-0.3-0.3-0.9-0.5c-1.6-0.7-3.3-1.3-5.2-1.9c-1.6-0.5-3.1-0.9-4.8-1.3c-0.4-0.1-0.9-0.2-1.3-0.3
			l-3.5,7.7C184.1,129.5,184.3,129.5,184.4,129.5z M154.7,127.3c0.3,0,0.5,0.1,0.8,0.2c0.2,0.1,0.5,0.2,0.6,0.2l0,0
			c0.1,0,0.2,0,0.3-0.2l8.5-9.1c3.9-4.2,7.8-8.3,11.7-12.5c0.4-0.4,0.4-0.7,0.2-1.2c-0.3-0.6-0.7-1.1-1.1-1.7l-0.1-0.1
			c-0.3-0.4-0.6-0.8-0.9-1.2c-0.5-0.6-1-1.3-1.5-2c-1.8-2.7-3-5.9-3.7-9.8c-0.3-1.7-0.8-1.9-1.8-1.9c-0.2,0-0.4,0-0.6,0l-6.9,0.6
			c-7,0.7-14.1,1.3-21.1,2c-0.6,0.1-0.9,0.2-1.1,0.8c-0.9,2-1.2,4.2-0.7,6.9c1.4,8.9,5,16.8,10.7,23.5
			C150,124.4,151.8,126.3,154.7,127.3z M146.1,71.5c-0.9,0-1.4,0.4-2.2,1.5c-0.3,0.4-0.5,0.7-0.7,1c-1.8,3.4-2.4,7.2-2.8,11.1
			c0,0,24-2.1,24-2.1c0.5,0,1.1-0.1,1.2-0.2c0-0.1,0.1-0.6,0.2-1.2c0.1-0.6,0.2-1.2,0.4-1.8c0.2-1,0.4-2,0.6-3
			c0-0.3,0.1-0.4-0.5-0.5c-1.2-0.3-2.5-0.6-3.7-0.9c-5-1.2-10.2-2.4-15.2-3.8C146.8,71.5,146.5,71.5,146.1,71.5z M161.8,69.7
			C161.8,69.7,161.8,69.7,161.8,69.7c0.3-0.6,0.5-1.1,0.7-1.6l0.5-1.2c1-2.6,2.1-5.3,3.1-8c0.1-0.2,0-0.6,0-0.9c-0.1,0-0.2,0-0.4,0
			c-0.2,0-0.5,0-0.7,0.1c-4.3,1.7-7.7,4.8-11.1,9.8L161.8,69.7z"/>
	</g>
</g>
</svg>
