<?xml version="1.0" encoding="utf-8"?>
<!-- Generator: Adobe Illustrator 19.1.0, SVG Export Plug-In . SVG Version: 6.00 Build 0)  -->
<svg version="1.1" xmlns="http://www.w3.org/2000/svg" xmlns:xlink="http://www.w3.org/1999/xlink" x="0px" y="0px"
	 viewBox="0 0 260 259.2" style="enable-background:new 0 0 260 259.2;" xml:space="preserve">
<style type="text/css">
	.st0{display:none;}
	.st1{display:inline;}
	.st2{display:inline;opacity:0.86;fill:#DC4959;}
	.st3{fill:#FFFFFF;}
	.st4{display:inline;fill:#FFFFFF;}
	.st5{font-family:'MyriadPro-Regular';}
	.st6{font-size:21.5353px;}
	.st7{fill:#F07F00;}
	.st8{clip-path:url(#SVGID_2_);}
	.st9{opacity:0.7;clip-path:url(#SVGID_4_);}
	.st10{clip-path:url(#SVGID_6_);}
	.st11{fill:#6D7D4A;}
</style>
<g id="Layer_3" class="st0">
	<rect x="-881.3" y="-866.3" class="st1" width="1162.9" height="1441.7"/>
</g>
<g id="BASE" class="st0">
	<rect x="0" class="st2" width="260" height="259.2"/>
	<text transform="matrix(1 0 0 1 98.5593 162.3545)" class="st4 st5 st6">DOCES</text>
</g>
<g id="Layer_1">
	<g>
		<g>
			<path class="st3" d="M183.8,99.4c0.1-0.5,0.1-1,0.1-1.5c0-5.7-3.9-10.5-9.3-11.9c-2.5-5-7.6-8.1-13.2-8.1
				c-5.6,0-10.7,3.1-13.2,8.1c-5.4,1.3-9.3,6.2-9.3,11.9c0,0.5,0,1,0.1,1.5c0,0.1-0.1,0.1-0.1,0.2c-0.5,0.7-0.6,1.7-0.4,2.4
				l8.2,24.8c0.3,1,1.3,2,2.4,2h24.6c1.1,0,2.1-0.9,2.4-1.9l8.2-24.8c0.3-0.8,0.1-1.8-0.4-2.5C183.9,99.5,183.8,99.5,183.8,99.4
				L183.8,99.4z M150.9,123.7l-6.5-19.6h3.9l5.2,19.6H150.9z M159.4,123.7h-2.6l-5.2-19.6h7.8V123.7z M163,123.7v-19.6h8.1
				l-5.2,19.6H163z M171.8,123.7h-2.7l5.2-19.6h3.9L171.8,123.7z M178.7,99h-9.1c0.1-0.2,0.1-0.5,0.1-0.7c0-1.2-1-2.3-2.3-2.3
				c-1.2,0-2.3,1-2.3,2.3c0,0.3,0,0.5,0.1,0.7H144c0,0,0-0.6,0-0.7c0-1.5,0.5-2.9,1.2-4.1c0.4,0.7,1.1,1.2,2,1.2
				c1.2,0,2.3-1,2.3-2.3c0-0.7-0.4-1.4-0.9-1.8c0.5-0.2,1.1-0.4,1.7-0.4c0.9-0.1,1.7-0.7,2.1-1.6c1.5-3.8,5-6.2,9-6.2
				c0.8,0,1.6,0.1,2.3,0.3c-0.7,0.4-1.3,1.1-1.3,2c0,1.2,1,2.3,2.3,2.3c1.2,0,2.3-1,2.3-2.3c0-0.2,0-0.4-0.1-0.6
				c1.6,1.1,2.8,2.6,3.6,4.5c0.3,0.9,1.1,1.5,2.1,1.6c0.5,0.1,0.9,0.2,1.3,0.3c-0.2,0.3-0.3,0.7-0.3,1.1c0,1.2,1,2.3,2.3,2.3
				c0.6,0,1.2-0.3,1.6-0.7c0.9,1.3,1.4,2.8,1.4,4.4C178.8,98.4,178.7,99,178.7,99L178.7,99z M178.7,99"/>
			<path class="st3" d="M157,92.6c-1.2,0-2.3,1-2.3,2.3c0,1.2,1,2.3,2.3,2.3c1.2,0,2.3-1,2.3-2.3C159.3,93.6,158.3,92.6,157,92.6
				L157,92.6z M157,92.6"/>
			<path class="st3" d="M158.1,85.6c-1.2,0-2.3,1-2.3,2.3c0,1.2,1,2.3,2.3,2.3c1.2,0,2.3-1,2.3-2.3
				C160.4,86.6,159.3,85.6,158.1,85.6L158.1,85.6z M158.1,85.6"/>
		</g>
		<g>
			<path class="st3" d="M121,129c-6,0-12,0-18,0c-5.9,0-11.8,0-17.6,0c-1.5,0-2.5-0.6-3-2c-1.9-4.5-4-9.1-5.9-13.5l-0.4-1
				c-0.3-0.6-0.9-2,0.4-3.1c0.4-0.3,0.9-0.5,1.3-0.5c0.7,0,1.3,0.4,1.8,0.8c0.7,0.5,1.3,0.8,2,0.8c0.1,0,0.2,0,0.3,0
				c-0.2-0.7-0.4-1.3-0.6-1.9c0,0-0.2-0.1-0.2-0.1c-0.7-0.4-1.1-0.9-1.2-1.5c-0.1-0.6,0-1.2,0.5-1.9c0.1-0.1,0.1-0.2,0.1-0.3
				c0-1.3,0-2.5,0-3.8l0-0.7c-0.7-0.4-1.3-1-1.4-1.8c-0.1-1.1,0.8-1.8,1.6-2.4c0.3-0.2,0.6-0.7,0.9-1.2c0.6-1.3,1.2-2.6,1.8-4
				l0.4-0.9c-0.3-0.2-0.6-0.5-0.9-0.7c-1.1-0.8-1.3-2-0.6-3.1c0.4-0.6,1-0.9,1.7-0.9c0.5,0,1,0.2,1.4,0.5c0.4,0.2,0.7,0.5,1.1,0.8
				l2.7-2.5c-0.4-0.7-1.1-2.2,0.7-3.2c0.4-0.2,0.8-0.3,1.2-0.3c0.9,0,1.4,0.6,1.8,1.2c0.2-0.1,0.5-0.2,0.7-0.3l1.2-0.4
				c1.9-0.6,3.9-1.2,5.9-1.7l0.3-0.1c0.9-0.2,1.3-0.3,1.6-0.8c0.5-0.8,1.2-1.3,2-1.3c0.4,0,0.7,0.1,1.1,0.3c0.5,0.4,0.8,0.9,1.1,1.5
				c0,0.1,0.1,0.2,0.1,0.2c0.4,0.1,0.7,0.2,1.1,0.3c1.3,0.4,2.7,0.8,4,1.1c0.2,0,0.5,0.1,0.8,0.1c0.4,0,0.7,0,1.1-0.1
				c0.3,0,0.6,0,0.9-0.1c0.5,0,1-0.1,1.5-0.1l0.9-0.1c0.1,0,0.1,0,0.2,0c1.3,0,2.2,0.8,2.3,2c0.1,0.9-0.4,1.6-1.1,2l4.9,5.2
				c0.2,0,0.4-0.1,0.6-0.1c0.9,0,1.6,0.6,1.9,1.6c0.2,0.8-0.2,1.6-0.6,2.2c0.9,2.4,1.5,5,1.8,7.7c0.1,0,0.1,0.1,0.2,0.1
				c0.3,0.2,0.6,0.4,0.8,0.7c0.5,0.6,1,1.4,0.9,2.2c-0.1,1-0.9,1.7-2,1.7l-1.2,4.6c0.5-0.3,0.9-0.8,1.2-1.4c0.1-0.1,0.1-0.3,0.2-0.4
				c0.1-0.2,0.1-0.3,0.2-0.5c0.4-0.9,1.2-1.4,2-1.4c0.3,0,0.7,0.1,1,0.2c1.2,0.6,1.6,1.7,1.1,3c-0.6,1.3-1.1,2.5-1.7,3.8l-1.3,3
				c-0.5,1.1-1,2.2-1.4,3.2c-1.1,2.4-2.1,4.9-3.2,7.3C123.5,128.3,122.5,129,121,129L121,129z M119,124.5c0.3,0,0.6,0,0.9,0
				c0.1,0,0.1,0,0.2,0c0.2,0,0.3,0,0.5-0.5c1-2.3,2-4.6,3-6.8c0.3-0.8,0.7-1.6,1-2.4c-0.9,0-1.8-0.1-2.7-0.4c-1-0.3-1.8-0.9-2.6-1.4
				c-0.1-0.1-0.2-0.1-0.3-0.2c-1.5,1.4-3.3,2.1-5.3,2.1c-2,0-3.8-0.7-5.3-2.1c-1.5,1.4-3.3,2.1-5.4,2.1c-1.9,0-3.7-0.7-5.3-2.1
				c-1.5,1.4-3.3,2.1-5.3,2.1h0c-2,0-3.8-0.7-5.4-2.1c-1.5,1.3-3.2,2-5.1,2.1l0.2,0.6c1.4,3.1,2.7,6.1,4,9.1c0.5,0,1,0,1.5,0l0.5,0
				c0,0-2.8-6.8-3-7.5c-0.3-0.9-0.2-1.5-0.1-1.9c0.1-0.3,0.5-0.8,1.2-1.1c0.3-0.1,0.6-0.2,0.8-0.2c0.9,0,1.6,0.6,2,1.6l1,2.4
				c0.9,2.2,1.7,4.3,2.6,6.5c0,0,0.1,0.1,0.1,0.2c0.8,0,1.6,0,2.5,0l1.6,0l-0.5-2.9l-0.3-1.7c-0.2-1.1-0.4-2.2-0.5-3.3
				c-0.1-0.8,0-1.4,0.5-1.9c0.4-0.4,0.9-0.7,1.5-0.7c0.9,0,1.6,0.7,2.1,1.3c0.4,0.4,0.4,0.9,0.4,1.3c0,0.1,0,0.2,0,0.2l1.3,7.6h4.3
				l0-0.5c0.1-1,0.1-2,0.2-3c0.1-0.8,0.1-1.5,0.2-2.3c0.1-0.9,0.1-1.8,0.2-2.7c0.1-1.3,0.9-2.1,2.1-2.1l0.1,0c0.8,0,1.2,0.4,1.5,0.6
				c0.4,0.4,0.6,1,0.5,1.8c0,0.3,0,0.6-0.1,0.9l0,0.5l-0.5,6.7h4.6l0.9-3.3c0.5-1.7,0.9-3.4,1.4-5.2c0.4-1.4,1.1-2.1,2.2-2.1
				c0.1,0,0.3,0,0.5,0c0.6,0.1,1,0.4,1.3,0.9c0.4,0.6,0.5,1.4,0.2,2.4l-0.1,0.5L119,124.5C119,124.5,119,124.5,119,124.5z
				 M108.5,106.4c1.3,0,1.8,1.3,2.1,1.8c0.6,1.4,1.7,2.2,3,2.2c1.5,0,2.6-0.8,3.1-2.2c0.2-0.5,0.7-1.9,2.1-1.9c0.1,0,0.3,0,0.4,0.1
				c0.8,0.2,1.4,0.9,1.8,1.5c0.2,0.3,0.4,0.6,0.6,0.9c0.7-1.6,1.1-3.3,1.2-5.2c0-0.1-0.1-0.1-0.1-0.2c-0.6-0.4-1.2-0.7-1.9-1
				c-0.3-0.1-0.5-0.3-0.8-0.4c-1.2-0.6-1.6-1.9-1-3c0.4-0.7,1.1-1.2,1.8-1.2c0.4,0,0.8,0.1,1.2,0.3c0.1,0.1,0.3,0.1,0.4,0.2l-1-3.3
				c-0.5,0.2-1,0.4-1.5,0.6c-0.3,0.1-0.6,0.2-0.9,0.2c-0.9,0-1.6-0.5-2-1.4c-0.4-1.2,0-2.3,1.2-2.8c0.3-0.1,0.6-0.3,0.9-0.4
				c-3.6-4.9-8.7-7.6-14.9-7.9c-0.1,0-0.3,0.1-0.4,0.2c-0.3,0.2-0.5,0.5-0.7,0.8c-0.4,0.4-0.7,0.8-1.2,1.2c-0.5,0.4-1.2,0.5-1.6,0.5
				s-0.8-0.1-1.1-0.3c-0.5-0.4-0.6-1.1-0.7-1.6l-3.4,1.3c0.8,1.7,1,2.5,0.5,3.3l0.4,0.5c0.9,1,1.8,1.9,2.7,2.9c1,1.1,1,2.3,0.1,3.3
				c-0.6,0.5-1.1,0.6-1.5,0.6c-0.6,0-1.2-0.3-1.8-0.9l-1.3-1.4c-0.6-0.6-1.2-1.2-1.7-1.9c-0.5-0.5-1-1.2-0.9-2.1
				c0-0.4,0.2-0.8,0.5-1.1l-0.6-0.8L90.2,89c0.3,0.2,0.5,0.4,0.8,0.6c1.2,0.8,1.4,2.1,0.6,3.2c-0.4,0.6-1,0.9-1.7,0.9
				c-0.4,0-0.8-0.1-1.2-0.3c0,0,0,0.1,0.1,0.1c0.3,0.5,0.8,1.9-1,3c-0.8,0.5-1.5,1-2.2,1.5c-0.2,0.1-0.3,0.2-0.4,0.3
				c-0.4,1.6-0.5,3.1-0.4,4.7c0,0,0,0,0,0c1.1-0.4,2.1-0.8,3.1-1.2c0.2-0.1,0.5-0.1,0.8-0.1c0.5,0,1.1,0.1,1.5,0.4
				c0.7,0.4,1,1.6,0.7,2.3c-0.3,0.7-1,1.3-1.5,1.5c-0.5,0.2-1.1,0.4-1.6,0.7c0.8,0.4,1.2,1.2,1.4,1.8c0.6,1.4,1.6,2.1,3.1,2.1l0.1,0
				c1.3,0,2.4-0.8,2.9-2.1c0.3-0.7,0.7-1.9,2.2-1.9c0,0,0,0,0,0c1.6,0,2.1,1.3,2.3,1.9c0.6,1.4,1.6,2.2,3,2.2h0
				c1.4,0,2.5-0.8,3.2-2.3c0.3-0.7,1-1.5,1.9-1.8C108.1,106.4,108.3,106.4,108.5,106.4z"/>
			<path class="st3" d="M102.4,108.5c-0.4,0-1.1-0.1-1.6-0.8c-0.8-1-0.7-2.3,0.4-3.1l0.9-0.8c1.4-1.2,2.8-2.4,4.2-3.5
				c0.6-0.4,1.3-0.5,1.5-0.5c0.2,0,0.5,0,0.7,0.1c0.6,0.2,0.9,0.6,1.1,0.9c0.1,0.1,0.2,0.2,0.3,0.3l0.5,0.6l-0.5,0.7
				c-0.1,0.1-0.2,0.3-0.3,0.4c-0.2,0.3-0.4,0.6-0.7,0.9c-1.6,1.4-3.3,2.8-4.9,4.2C103.5,108.3,102.9,108.5,102.4,108.5L102.4,108.5z
				"/>
			<path class="st3" d="M104.9,95.5c-1-0.4-2.1-0.9-3.1-1.4c-0.8-0.3-1.1-0.9-1.3-1.3c-0.1-0.4-0.2-1,0.1-1.7
				c0.4-0.8,1.1-1.3,1.9-1.3c0.3,0,0.7,0.1,1,0.2l1.2,0.5c1.4,0.6,2.9,1.2,4.4,2c0.8,0.4,1.3,1.6,1.2,2.4c-0.1,0.7-0.7,1.1-1.1,1.4
				c-0.1,0.1-0.2,0.1-0.3,0.2l-0.5,0.4L104.9,95.5z"/>
			<path class="st3" d="M91.5,97.3c0.7-1.2,1.9-1.3,3.7-0.5c0.7,0.3,1.4,0.7,2.1,1c0.8,0.4,1.5,0.7,2.3,1.1c1.9,0.9,1.6,2.4,1.3,2.9
				c0,0.1-0.1,0.2-0.2,0.3c-0.2,0.4-1.1,1.6-3,0.7c-1.1-0.5-2.2-1-3-1.4l-0.8-0.4c-1.4-0.7-2.3-1.3-2.6-2.2
				C91.1,98.4,91.1,97.9,91.5,97.3L91.5,97.3z"/>
			<path class="st3" d="M112.6,111.6c-0.4,0-0.9-0.1-1.3-0.4c-0.7-0.5-0.9-1-0.9-1.4c-0.1-0.6,0.1-1.3,0.6-1.9
				c0.3-0.4,0.6-0.8,0.9-1.3c0.7-1,1.4-2,2.1-2.9c0.5-0.6,1.3-0.8,2-0.8c0.1,0,0.2,0,0.3,0c0.7,0.1,1,0.6,1.3,1
				c0.1,0.1,0.1,0.2,0.2,0.3l0.4,0.5l-0.3,0.6c-0.1,0.1-0.1,0.3-0.2,0.4c-0.1,0.3-0.2,0.5-0.4,0.8c-0.5,0.7-1,1.5-1.6,2.2
				c-0.4,0.6-0.8,1.2-1.2,1.8C114,111.2,113.3,111.6,112.6,111.6L112.6,111.6z"/>
			<path class="st3" d="M112.4,92.7c0,0,0.1-0.1,0.2-0.1c0.3-0.2,0.9-0.6,1.5-0.5c0.8,0.1,1.8,0.8,1.9,1.7c0.3,2,0.6,3.9,0.7,5.7
				c0,0.2,0,0.4-0.1,0.6c-0.2,0.6-0.9,1.4-1.6,1.5c-0.7,0.1-1.4-0.3-1.7-0.4c-0.4-0.3-0.7-0.7-0.8-1.1c-0.3-1.5-0.5-3.1-0.6-4.6
				l-0.2-1.4c0-0.2,0-0.4,0-0.5l0.2-0.7L112.4,92.7z"/>
			<path class="st3" d="M109.3,89.8c-0.9,0-1.7-0.4-2.1-1.1c-0.4-0.6-0.4-1.4,0-2c0.9-1.7,1.7-3,2.6-4.2c0.5-0.6,1.4-0.8,1.9-0.8
				c0.3,0,0.6,0.1,0.9,0.2c0.7,0.4,1.3,1.9,0.9,2.8c-0.7,1.4-1.5,2.7-2.4,4l-0.2,0.3c-0.3,0.4-0.7,0.6-0.9,0.7l-0.2,0.1L109.3,89.8z
				"/>
		</g>
	</g>
</g>
</svg>
