<?xml version="1.0" encoding="utf-8"?>
<!-- Generator: Adobe Illustrator 19.1.0, SVG Export Plug-In . SVG Version: 6.00 Build 0)  -->
<svg version="1.1" id="Layer_1" xmlns="http://www.w3.org/2000/svg" xmlns:xlink="http://www.w3.org/1999/xlink" x="0px" y="0px"
	 viewBox="-235 291.7 396 400" style="enable-background:new -235 291.7 396 400;" xml:space="preserve">
<style type="text/css">
	.st0{display:none;}
	.st1{display:inline;}
	.st2{display:inline;opacity:0.86;fill:#DC4959;enable-background:new    ;}
	.st3{display:inline;fill:#FFFFFF;}
	.st4{font-family:'MyriadPro-Regular';}
	.st5{font-size:21.5353px;}
	.st6{fill:#FFFFFF;}
</style>
<g id="Layer_3" class="st0">
	<rect x="-1048.3" y="-574.6" class="st1" width="1162.9" height="1441.7"/>
</g>
<g id="BASE" class="st0">
	<rect x="-167" y="291.7" class="st2" width="260" height="259.2"/>
	<text transform="matrix(1 0 0 1 -68.4407 454.0445)" class="st3 st4 st5">DOCES</text>
</g>
<g id="Layer_1_1_">
	<g>
		<g>
			<path class="st6" d="M152.4,461.4c0.4-1.8,0.4-3.5,0.4-5.3c0-20.1-13.7-37-32.8-41.9c-8.8-17.6-26.8-28.5-46.5-28.5
				c-19.7,0-37.7,10.9-46.5,28.5c-19,4.6-32.8,21.8-32.8,41.9c0,1.8,0,3.5,0.4,5.3c0,0.4-0.4,0.4-0.4,0.7c-1.8,2.5-2.1,6-1.4,8.5
				L21.7,558c1.1,3.5,4.6,7,8.5,7h86.7c3.9,0,7.4-3.2,8.5-6.7l28.9-87.4c1.1-2.8,0.4-6.3-1.4-8.8
				C152.7,461.8,152.4,461.8,152.4,461.4L152.4,461.4z M36.5,547.1L13.6,478h13.7l18.3,69.1H36.5z M66.4,547.1h-9.2L38.9,478h27.5
				V547.1z M79.1,547.1V478h28.5l-18.3,69.1H79.1z M110.1,547.1h-9.5l18.3-69.1h13.7L110.1,547.1z M134.4,460h-32.1
				c0.4-0.7,0.4-1.8,0.4-2.5c0-4.2-3.5-8.1-8.1-8.1c-4.2,0-8.1,3.5-8.1,8.1c0,1.1,0,1.8,0.4,2.5H12.2c0,0,0-2.1,0-2.5
				c0-5.3,1.8-10.2,4.2-14.4c1.4,2.5,3.9,4.2,7,4.2c4.2,0,8.1-3.5,8.1-8.1c0-2.5-1.4-4.9-3.2-6.3c1.8-0.7,3.9-1.4,6-1.4
				c3.2-0.4,6-2.5,7.4-5.6C47,412.5,59.4,404,73.5,404c2.8,0,5.6,0.4,8.1,1.1c-2.5,1.4-4.6,3.9-4.6,7c0,4.2,3.5,8.1,8.1,8.1
				c4.2,0,8.1-3.5,8.1-8.1c0-0.7,0-1.4-0.4-2.1c5.6,3.9,9.9,9.2,12.7,15.9c1.1,3.2,3.9,5.3,7.4,5.6c1.8,0.4,3.2,0.7,4.6,1.1
				c-0.7,1.1-1.1,2.5-1.1,3.9c0,4.2,3.5,8.1,8.1,8.1c2.1,0,4.2-1.1,5.6-2.5c3.2,4.6,4.9,9.9,4.9,15.5
				C134.8,457.9,134.4,460,134.4,460L134.4,460z"/>
			<path class="st6" d="M58,437.5c-4.2,0-8.1,3.5-8.1,8.1c0,4.2,3.5,8.1,8.1,8.1c4.2,0,8.1-3.5,8.1-8.1
				C66.1,441,62.5,437.5,58,437.5L58,437.5z"/>
			<path class="st6" d="M61.8,412.8c-4.2,0-8.1,3.5-8.1,8.1c0,4.2,3.5,8.1,8.1,8.1c4.2,0,8.1-3.5,8.1-8.1
				C69.9,416.3,66.1,412.8,61.8,412.8L61.8,412.8z"/>
		</g>
		<g>
			<path class="st6" d="M-68.9,565.7c-21.1,0-42.3,0-63.4,0c-20.8,0-41.6,0-62,0c-5.3,0-8.8-2.1-10.6-7
				c-6.7-15.9-14.1-32.1-20.8-47.6l-1.4-3.5c-1.1-2.1-3.2-7,1.4-10.9c1.4-1.1,3.2-1.8,4.6-1.8c2.5,0,4.6,1.4,6.3,2.8
				c2.5,1.8,4.6,2.8,7,2.8c0.4,0,0.7,0,1.1,0c-0.7-2.5-1.4-4.6-2.1-6.7l-0.7-0.4c-2.5-1.4-3.9-3.2-4.2-5.3s0-4.2,1.8-6.7
				c0.4-0.4,0.4-0.7,0.4-1.1c0-4.6,0-8.8,0-13.4v-2.5c-2.5-1.4-4.6-3.5-4.9-6.3c-0.4-3.9,2.8-6.3,5.6-8.5c1.1-0.7,2.1-2.5,3.2-4.2
				c2.1-4.6,4.2-9.2,6.3-14.1l1.4-3.2c-1.1-0.7-2.1-1.8-3.2-2.5c-3.9-2.8-4.6-7-2.1-10.9c1.4-2.1,3.5-3.2,6-3.2
				c1.8,0,3.5,0.7,4.9,1.8c1.4,0.7,2.5,1.8,3.9,2.8l9.5-8.8c-1.4-2.5-3.9-7.8,2.5-11.3c1.4-0.7,2.8-1.1,4.2-1.1
				c3.2,0,4.9,2.1,6.3,4.2c0.7-0.4,1.8-0.7,2.5-1.1l4.2-1.4c6.7-2.1,13.7-4.2,20.8-6l1.1-0.4c3.2-0.7,4.6-1.1,5.6-2.8
				c1.8-2.8,4.2-4.6,7-4.6c1.4,0,2.5,0.4,3.9,1.1c1.8,1.4,2.8,3.2,3.9,5.3c0,0.4,0.4,0.7,0.4,0.7c1.4,0.4,2.5,0.7,3.9,1.1
				c4.6,1.4,9.5,2.8,14.1,3.9c0.7,0,1.8,0.4,2.8,0.4c1.4,0,2.5,0,3.9-0.4c1.1,0,2.1,0,3.2-0.4c1.8,0,3.5-0.4,5.3-0.4l3.2-0.4
				c0.4,0,0.4,0,0.7,0c4.6,0,7.8,2.8,8.1,7c0.4,3.2-1.4,5.6-3.9,7l17.3,18.3c0.7,0,1.4-0.4,2.1-0.4c3.2,0,5.6,2.1,6.7,5.6
				c0.7,2.8-0.7,5.6-2.1,7.8c3.2,8.5,5.3,17.6,6.3,27.1c0.4,0,0.4,0.4,0.7,0.4c1.1,0.7,2.1,1.4,2.8,2.5c1.8,2.1,3.5,4.9,3.2,7.8
				c-0.4,3.5-3.2,6-7,6l-4.2,16.2c1.8-1.1,3.2-2.8,4.2-4.9c0.4-0.4,0.4-1.1,0.7-1.4c0.4-0.7,0.4-1.1,0.7-1.8c1.4-3.2,4.2-4.9,7-4.9
				c1.1,0,2.5,0.4,3.5,0.7c4.2,2.1,5.6,6,3.9,10.6c-2.1,4.6-3.9,8.8-6,13.4l-4.6,10.6c-1.8,3.9-3.5,7.8-4.9,11.3
				c-3.9,8.5-7.4,17.3-11.3,25.7C-60.1,563.3-63.6,565.7-68.9,565.7L-68.9,565.7z M-75.9,549.9c1.1,0,2.1,0,3.2,0c0.4,0,0.4,0,0.7,0
				c0.7,0,1.1,0,1.8-1.8c3.5-8.1,7-16.2,10.6-24c1.1-2.8,2.5-5.6,3.5-8.5c-3.2,0-6.3-0.4-9.5-1.4c-3.5-1.1-6.3-3.2-9.2-4.9
				c-0.4-0.4-0.7-0.4-1.1-0.7c-5.3,4.9-11.6,7.4-18.7,7.4c-7,0-13.4-2.5-18.7-7.4c-5.3,4.9-11.6,7.4-19,7.4c-6.7,0-13-2.5-18.7-7.4
				c-5.3,4.9-11.6,7.4-18.7,7.4l0,0c-7,0-13.4-2.5-19-7.4c-5.3,4.6-11.3,7-18,7.4l0.7,2.1c4.9,10.9,9.5,21.5,14.1,32.1
				c1.8,0,3.5,0,5.3,0h1.8c0,0-9.9-24-10.6-26.4c-1.1-3.2-0.7-5.3-0.4-6.7c0.4-1.1,1.8-2.8,4.2-3.9c1.1-0.4,2.1-0.7,2.8-0.7
				c3.2,0,5.6,2.1,7,5.6l3.5,8.5c3.2,7.8,6,15.2,9.2,22.9c0,0,0.4,0.4,0.4,0.7c2.8,0,5.6,0,8.8,0h5.6l-1.8-10.2l-1.1-6
				c-0.7-3.9-1.4-7.8-1.8-11.6c-0.4-2.8,0-4.9,1.8-6.7c1.4-1.4,3.2-2.5,5.3-2.5c3.2,0,5.6,2.5,7.4,4.6c1.4,1.4,1.4,3.2,1.4,4.6
				c0,0.4,0,0.7,0,0.7l4.6,26.8h15.2v-1.8c0.4-3.5,0.4-7,0.7-10.6c0.4-2.8,0.4-5.3,0.7-8.1c0.4-3.2,0.4-6.3,0.7-9.5
				c0.4-4.6,3.2-7.4,7.4-7.4h0.4c2.8,0,4.2,1.4,5.3,2.1c1.4,1.4,2.1,3.5,1.8,6.3c0,1.1,0,2.1-0.4,3.2v1.8l-1.8,23.6h16.2l3.2-11.6
				c1.8-6,3.2-12,4.9-18.3c1.4-4.9,3.9-7.4,7.8-7.4c0.4,0,1.1,0,1.8,0c2.1,0.4,3.5,1.4,4.6,3.2c1.4,2.1,1.8,4.9,0.7,8.5l-0.4,1.8
				L-75.9,549.9L-75.9,549.9z M-112.9,486.1c4.6,0,6.3,4.6,7.4,6.3c2.1,4.9,6,7.8,10.6,7.8c5.3,0,9.2-2.8,10.9-7.8
				c0.7-1.8,2.5-6.7,7.4-6.7c0.4,0,1.1,0,1.4,0.4c2.8,0.7,4.9,3.2,6.3,5.3c0.7,1.1,1.4,2.1,2.1,3.2c2.5-5.6,3.9-11.6,4.2-18.3
				c0-0.4-0.4-0.4-0.4-0.7c-2.1-1.4-4.2-2.5-6.7-3.5c-1.1-0.4-1.8-1.1-2.8-1.4c-4.2-2.1-5.6-6.7-3.5-10.6c1.4-2.5,3.9-4.2,6.3-4.2
				c1.4,0,2.8,0.4,4.2,1.1c0.4,0.4,1.1,0.4,1.4,0.7l-3.5-11.6c-1.8,0.7-3.5,1.4-5.3,2.1c-1.1,0.4-2.1,0.7-3.2,0.7
				c-3.2,0-5.6-1.8-7-4.9c-1.4-4.2,0-8.1,4.2-9.9c1.1-0.4,2.1-1.1,3.2-1.4c-12.7-17.3-30.7-26.8-52.5-27.8c-0.4,0-1.1,0.4-1.4,0.7
				c-1.1,0.7-1.8,1.8-2.5,2.8c-1.4,1.4-2.5,2.8-4.2,4.2c-1.8,1.4-4.2,1.8-5.6,1.8c-1.4,0-2.8-0.4-3.9-1.1c-1.8-1.4-2.1-3.9-2.5-5.6
				l-12,4.6c2.8,6,3.5,8.8,1.8,11.6l1.4,1.8c3.2,3.5,6.3,6.7,9.5,10.2c3.5,3.9,3.5,8.1,0.4,11.6c-2.1,1.8-3.9,2.1-5.3,2.1
				c-2.1,0-4.2-1.1-6.3-3.2l-4.6-4.9c-2.1-2.1-4.2-4.2-6-6.7c-1.8-1.8-3.5-4.2-3.2-7.4c0-1.4,0.7-2.8,1.8-3.9l-2.1-2.8l-4.6,4.2
				c1.1,0.7,1.8,1.4,2.8,2.1c4.2,2.8,4.9,7.4,2.1,11.3c-1.4,2.1-3.5,3.2-6,3.2c-1.4,0-2.8-0.4-4.2-1.1c0,0,0,0.4,0.4,0.4
				c1.1,1.8,2.8,6.7-3.5,10.6c-2.8,1.8-5.3,3.5-7.8,5.3c-0.7,0.4-1.1,0.7-1.4,1.1c-1.4,5.6-1.8,10.9-1.4,16.6l0,0
				c3.9-1.4,7.4-2.8,10.9-4.2c0.7-0.4,1.8-0.4,2.8-0.4c1.8,0,3.9,0.4,5.3,1.4c2.5,1.4,3.5,5.6,2.5,8.1c-1.1,2.5-3.5,4.6-5.3,5.3
				s-3.9,1.4-5.6,2.5c2.8,1.4,4.2,4.2,4.9,6.3c2.1,4.9,5.6,7.4,10.9,7.4h0.4c4.6,0,8.5-2.8,10.2-7.4c1.1-2.5,2.5-6.7,7.8-6.7l0,0
				c5.6,0,7.4,4.6,8.1,6.7c2.1,4.9,5.6,7.8,10.6,7.8l0,0c4.9,0,8.8-2.8,11.3-8.1c1.1-2.5,3.5-5.3,6.7-6.3
				C-114.3,486.1-113.6,486.1-112.9,486.1z"/>
			<path class="st6" d="M-134.4,493.5c-1.4,0-3.9-0.4-5.6-2.8c-2.8-3.5-2.5-8.1,1.4-10.9l3.2-2.8c4.9-4.2,9.9-8.5,14.8-12.3
				c2.1-1.4,4.6-1.8,5.3-1.8s1.8,0,2.5,0.4c2.1,0.7,3.2,2.1,3.9,3.2c0.4,0.4,0.7,0.7,1.1,1.1l1.8,2.1l-1.8,2.5
				c-0.4,0.4-0.7,1.1-1.1,1.4c-0.7,1.1-1.4,2.1-2.5,3.2c-5.6,4.9-11.6,9.9-17.3,14.8C-130.5,492.8-132.7,493.5-134.4,493.5
				L-134.4,493.5z"/>
			<path class="st6" d="M-125.6,447.7c-3.5-1.4-7.4-3.2-10.9-4.9c-2.8-1.1-3.9-3.2-4.6-4.6c-0.4-1.4-0.7-3.5,0.4-6
				c1.4-2.8,3.9-4.6,6.7-4.6c1.1,0,2.5,0.4,3.5,0.7l4.2,1.8c4.9,2.1,10.2,4.2,15.5,7c2.8,1.4,4.6,5.6,4.2,8.5
				c-0.4,2.5-2.5,3.9-3.9,4.9c-0.4,0.4-0.7,0.4-1.1,0.7l-1.8,1.4L-125.6,447.7z"/>
			<path class="st6" d="M-172.8,454c2.5-4.2,6.7-4.6,13-1.8c2.5,1.1,4.9,2.5,7.4,3.5c2.8,1.4,5.3,2.5,8.1,3.9
				c6.7,3.2,5.6,8.5,4.6,10.2c0,0.4-0.4,0.7-0.7,1.1c-0.7,1.4-3.9,5.6-10.6,2.5c-3.9-1.8-7.8-3.5-10.6-4.9l-2.8-1.4
				c-4.9-2.5-8.1-4.6-9.2-7.8C-174.2,457.9-174.2,456.2-172.8,454L-172.8,454z"/>
			<path class="st6" d="M-98.5,504.4c-1.4,0-3.2-0.4-4.6-1.4c-2.5-1.8-3.2-3.5-3.2-4.9c-0.4-2.1,0.4-4.6,2.1-6.7
				c1.1-1.4,2.1-2.8,3.2-4.6c2.5-3.5,4.9-7,7.4-10.2c1.8-2.1,4.6-2.8,7-2.8c0.4,0,0.7,0,1.1,0c2.5,0.4,3.5,2.1,4.6,3.5
				c0.4,0.4,0.4,0.7,0.7,1.1l1.4,1.8l-1.1,2.1c-0.4,0.4-0.4,1.1-0.7,1.4c-0.4,1.1-0.7,1.8-1.4,2.8c-1.8,2.5-3.5,5.3-5.6,7.8
				c-1.4,2.1-2.8,4.2-4.2,6.3C-93.5,503-96,504.4-98.5,504.4L-98.5,504.4z"/>
			<path class="st6" d="M-99.2,437.8c0,0,0.4-0.4,0.7-0.4c1.1-0.7,3.2-2.1,5.3-1.8c2.8,0.4,6.3,2.8,6.7,6c1.1,7,2.1,13.7,2.5,20.1
				c0,0.7,0,1.4-0.4,2.1c-0.7,2.1-3.2,4.9-5.6,5.3c-2.5,0.4-4.9-1.1-6-1.4c-1.4-1.1-2.5-2.5-2.8-3.9c-1.1-5.3-1.8-10.9-2.1-16.2
				l-0.7-4.9c0-0.7,0-1.4,0-1.8l0.7-2.5L-99.2,437.8z"/>
			<path class="st6" d="M-110.1,427.6c-3.2,0-6-1.4-7.4-3.9c-1.4-2.1-1.4-4.9,0-7c3.2-6,6-10.6,9.2-14.8c1.8-2.1,4.9-2.8,6.7-2.8
				c1.1,0,2.1,0.4,3.2,0.7c2.5,1.4,4.6,6.7,3.2,9.9c-2.5,4.9-5.3,9.5-8.5,14.1l-0.7,1.1c-1.1,1.4-2.5,2.1-3.2,2.5l-0.7,0.4H-110.1z"
				/>
		</g>
	</g>
</g>
</svg>
