<?xml version="1.0" encoding="utf-8"?>
<!-- Generator: Adobe Illustrator 19.1.0, SVG Export Plug-In . SVG Version: 6.00 Build 0)  -->
<svg version="1.1" id="Layer_1" xmlns="http://www.w3.org/2000/svg" xmlns:xlink="http://www.w3.org/1999/xlink" x="0px" y="0px"
	 viewBox="-119 369 400 400" style="enable-background:new -119 369 400 400;" xml:space="preserve">
<style type="text/css">
	.st0{fill:#FFFFFF;}
</style>
<g>
	<g>
		<path class="st0" d="M28.9,464.3c-1.5-9.3,1.4-18.3,9.1-24.9c6.9-6,14.8-10.9,22.5-15.8c5.7-3.7,11.8-6.6,17.6-10.1
			c12.1-7.3,22.8-16,29.3-29.6c0.5,6.5,1.6,13,1.3,19.5c-0.5,10.1-6.6,16.8-15.2,21.6c-12,6.6-24.2,13-35.9,20.2
			C47.8,451.1,38.5,457.9,28.9,464.3z"/>
		<path class="st0" d="M54.2,411.9c-1.8-7.1,0.5-12.3,6.4-16.1c4.4-2.8,9-5.4,13.2-8.6c4.5-3.5,8.6-7.6,12.6-11.2
			c5.3,10.4,4.1,14.5-6.8,20.9C71.2,401.7,62.9,406.8,54.2,411.9z"/>
		<path class="st0" d="M166.6,510.7c-0.4-1.8-0.8-3.7-1.1-5.5c-1.2-5.5-4.2-9.7-11.1-8.2c-1.7,0.4-3.6,0.1-5.5,0.1
			c0-6.7,0-12.9,0-20.3c-15.4,18.9-40.8,23-61.2,19.2c13.3-5.9,26-11.4,38.6-17.2c13.3-6.1,16.7-13,13.9-27
			c-0.3-1.7-0.7-3.5-1.3-6.5c-5.4,9.9-13.2,15.6-21.9,20.2c-7.8,4.1-15.9,7.6-23.9,11.4c-11.5,5.4-23.7,9.9-34.4,16.6
			c-8.7,5.4-17,2.6-25.5,3c2.4-2.2,4.9-3.9,7.5-5.3c20.8-11,41.6-21.8,62.4-32.8c4.3-2.3,8.5-4.8,12.3-7.9
			c6.3-5.1,9.1-11.9,7.5-20.1c-1-5.5-2.4-11-3.9-18c-3.6,10.5-9.5,17.7-17.2,22.8c-10.7,7.2-22,13.7-33.3,20
			c-11.1,6.3-23,11.4-33.7,18.2c-7,4.4-13.9,10.3-18.2,17.1c-3.4,5.4-6.4,7.4-12,6.5c-5.3-0.9-8.5,1.7-9.5,6.4
			c-0.5,2.4-1.1,4.8-1.6,7.1H166.6z"/>
	</g>
	<path class="st0" d="M179.7,507.4c-1.2-0.5-2.4-1-3.6-1.5h-190c0,0,0,0.1,0,0.1c-0.7,0.3-2.3,0.8-3.8,1.5
		c-7.5,3.4-10.5,10.8-6.8,18.1c1.8,3.6,4.6,7,7.7,9.8c23.2,21,46.7,179,69.9,200c5.5,5,11.6,8.8,18.9,10.3c2.2,0.5,2.9,1.5,2.9,3.7
		c-0.1,15.1-0.1-23.8-0.1-1.4c0,0.5-0.2-2.6-0.4-1.7c-1.5,0-2.8,0-4.2,0c-6.9,0-28.8,0-35.7,0c-4.9,0-7.8,2.5-7.8,6.4
		c0.1,3.8,3,6.1,7.9,6.2c0.7,0,1.4,0,2.1,0c19.4,0,69.9,0,89.4,0c1.8,0,4.1,0.4,5.3-0.4c2-1.4,4.1-3.5,4.6-5.7
		c0.7-2.9-1.4-5.3-4.5-6.1c-1.5-0.4-3-0.3-4.6-0.3c-7.7,0-31.3,0-39.6,0c0-20,0,21.8,0.1,2.4c0-1,1.8-2.6,3-3
		c6.6-1.8,12.4-4.9,17.5-9.5c23.6-21.2,47.3-179.5,70.9-200.8c3-2.7,5.7-5.9,7.6-9.4C190.6,518.5,187.5,510.8,179.7,507.4z
		 M171.7,525.1c-24.4,22-48.9,181.1-73.4,202.9c-8.9,7.9-25.2,7.9-34.1,0C39.7,706.3,15.3,547.3-9,525.4c-1.7-1.5-3-3.5-5.4-6.4
		c4-0.6,6.6-1.4,9.1-1.4c57.6-0.1,115.2-0.1,172.8,0c2.6,0,5.1,0.7,8.9,1.3C174.5,521.6,173.3,523.7,171.7,525.1z"/>
</g>
</svg>
