<?xml version="1.0" encoding="utf-8"?>
<!-- Generator: Adobe Illustrator 19.1.0, SVG Export Plug-In . SVG Version: 6.00 Build 0)  -->
<svg version="1.1" id="Layer_1" xmlns="http://www.w3.org/2000/svg" xmlns:xlink="http://www.w3.org/1999/xlink" x="0px" y="0px"
	 viewBox="-237 291.7 400 400" style="enable-background:new -237 291.7 400 400;" xml:space="preserve">
<style type="text/css">
	.st0{display:none;}
	.st1{display:inline;}
	.st2{display:inline;opacity:0.86;fill:#DC4959;enable-background:new    ;}
	.st3{display:inline;fill:#FFFFFF;}
	.st4{font-family:'MyriadPro-Regular';}
	.st5{font-size:21.5353px;}
	.st6{fill:#FFFFFF;}
</style>
<g id="Layer_3" class="st0">
	<rect x="-185.4" y="-8.5" class="st1" width="1162.9" height="1441.7"/>
</g>
<g id="BASE" class="st0">
	<rect x="-167" y="291.7" class="st2" width="260" height="259.2"/>
	<text transform="matrix(1 0 0 1 -87.4245 470.0216)" class="st3 st4 st5">SALGADOS</text>
</g>
<g id="Layer_1_1_">
	<g>
		<g>
			<path class="st6" d="M-87.8,533c0-0.3,0-0.6,0-1.3h-145.3c0,0.3,0,0.6,0,1.3c0,0.3-0.3,0.3-0.3,0.6c-1.6,2.3-1.9,5.5-1.3,7.8
				l26.5,50.5c1,3.2,4.2,6.5,7.8,6.5h79.6c3.6,0,6.8-2.9,7.8-6.1l26.5-50.5c1-2.6,0.3-5.8-1.3-8.1C-87.5,533.3-87.8,533.3-87.8,533z
				 M-194.2,582.2l-21-33.6h12.6l16.8,33.6H-194.2z M-166.7,582.2h-8.4l-16.8-33.6h25.2C-166.7,548.6-166.7,582.2-166.7,582.2z
				 M-155.1,582.2v-33.6h26.2l-16.8,33.6H-155.1z M-126.6,582.2h-8.7l16.8-33.6h12.6L-126.6,582.2z"/>
			<path class="st6" d="M-215.9,538.5c-1.6-5.2-2.3-10.7-2.3-16.2c0-24.6,16.5-51.1,30.7-69.2c10.4-13.3,20.7-23.9,26.9-29.8
				c5.8,5.8,16.2,16.8,26.5,30.1c20.1,26.2,30.7,49.8,30.7,68.6c0,5.5-1,11-2.3,16.2h14.9c1.3-5.2,1.9-10.7,1.9-16.2
				c0-52.4-64.1-111.6-67-114.2c-2.6-2.6-6.8-2.6-9.7,0c-2.6,2.3-67,59.9-67,114.2c0,5.5,0.6,11,1.9,16.2h14.6V538.5z"/>
		</g>
		<path class="st6" d="M57.8,613.6c-8.4,0-17.1-2.3-26.2-6.5c-6.1-2.9-12.3-6.1-18.1-9.7c-2.9-1.6-5.8-3.2-8.7-4.9
			c-0.6-0.3-1.6-1-1.9-1c-12.6,0-24.3-5.2-34-15.2c-25.6-25.9-41.4-57.3-47.2-93.5c-2.3-13.9,0-26.2,7.1-36.2
			c2.6-3.9,3.6-7.8,4.2-12c1.6-13.9,4.2-28.5,11.6-41.4c1.9-3.6,4.5-6.8,7.8-10.4c4.5-5.2,9.7-7.8,15.2-7.8c2.6,0,5.2,0.6,7.8,1.6
			c0.3,0.3,0.6,0.3,1,0.3c0,0,0.3-0.3,0.6-1.3c10.7-18.8,24.3-32,41.1-40.4c4.2-1.9,8.7-3.6,13.3-4.2c1-0.3,2.3-0.3,3.2-0.3
			c4.9,0,9.1,1.6,12,4.9s4.5,7.4,4.2,12.3c-0.3,5.8-1.6,12.3-4.2,19.7c-2.3,6.1-4.9,12.3-7.4,18.8c-0.6,1.6-1.3,3.2-1.9,4.9
			c0.3,0,1,0.3,1.3,0.3c9.1,2.3,14.2,8.4,14.2,17.1c0,5.5-1,11-1.9,16.2l-0.6,2.9c-0.6,3.6-0.6,3.9,1.6,5.2
			c5.2,2.9,8.4,8.1,9.7,15.2c2.6,14.2,8.4,26.5,18.1,37.5c5.5,6.1,7.4,13.3,5.8,21.4l1.3,0.6c3.2,1.6,6.1,2.9,9.4,4.5l1.6,0.6
			c2.3,1,4.5,2.3,6.5,3.9c8.1,6.1,10,13.3,5.8,22.6l1.9,0.3c3.9,1,7.8,1.9,11.6,2.9l2.9,0.6c8.4,2.3,16.8,4.5,24.6,9.7
			c5.5,3.6,8.7,8.7,9.1,14.2c0.3,5.5-2.3,10.7-7.4,15.2c-9.1,7.8-20.1,11-28.8,12.9c-7.4,1.6-15.2,2.6-22.6,2.6
			c-5.5,0-11-0.3-16.2-1.3c-0.3,0-0.6,0-1,0c-0.6,1.3-1.3,2.6-1.6,3.6c-2.3,6.5-7.4,10.7-14.9,12C63.6,613.3,60.7,613.6,57.8,613.6z
			 M25.1,583.5c7.1,3.6,13.9,6.8,20.7,9.7c3.9,1.6,8.1,2.6,12,2.6c1.9,0,3.9-0.3,5.5-0.6c1,0,1.9-1,2.3-1.3
			c5.5-12.3,11-24.6,16.5-36.9c3.6-8.1,7.1-16.2,11-24.3c0.6-1.3,0.3-1.3-0.3-1.9c-1.3-1-2.6-1.9-3.9-2.6c-1.6-0.6-3.2-1.6-4.9-2.3
			c-2.9-1.3-5.5-2.6-8.4-4.2c-0.3,0-0.3-0.3-0.6-0.3c0,0-0.3,0.3-0.6,0.6c-9.4,10-18.8,20.1-28.1,30.1l-26.9,28.8
			C21.6,581.6,23.5,582.5,25.1,583.5z M92.1,580.9c3.2,0.3,6.5,0.3,9.4,0.3c1,0,1.6,0,2.6,0c14.6-0.6,25.6-3.6,34.6-9.7
			c1.6-1.3,2.3-1.9,2.6-2.3c-0.3-0.3-1-1-2.9-1.6c-5.2-2.3-10.7-4.2-16.8-6.1c-5.2-1.6-10-2.9-15.5-4.2c-1.3-0.3-2.9-0.6-4.2-1
			l-11.3,24.9C91.1,580.9,91.8,580.9,92.1,580.9z M-4,573.8c1,0,1.6,0.3,2.6,0.6c0.6,0.3,1.6,0.6,1.9,0.6l0,0c0.3,0,0.6,0,1-0.6
			L29,545c12.6-13.6,25.2-26.9,37.9-40.4c1.3-1.3,1.3-2.3,0.6-3.9c-1-1.9-2.3-3.6-3.6-5.5l-0.3-0.3c-1-1.3-1.9-2.6-2.9-3.9
			c-1.6-1.9-3.2-4.2-4.9-6.5c-5.8-8.7-9.7-19.1-12-31.7c-1-5.5-2.6-6.1-5.8-6.1c-0.6,0-1.3,0-1.9,0l-22.3,1.9
			c-22.6,2.3-45.6,4.2-68.3,6.5c-1.9,0.3-2.9,0.6-3.6,2.6c-2.9,6.5-3.9,13.6-2.3,22.3c4.5,28.8,16.2,54.4,34.6,76
			C-19.2,564.4-13.4,570.6-4,573.8z M-31.8,393.3c-2.9,0-4.5,1.3-7.1,4.9c-1,1.3-1.6,2.3-2.3,3.2c-5.8,11-7.8,23.3-9.1,35.9
			l77.6-6.8c1.6,0,3.6-0.3,3.9-0.6c0-0.3,0.3-1.9,0.6-3.9c0.3-1.9,0.6-3.9,1.3-5.8c0.6-3.2,1.3-6.5,1.9-9.7c0-1,0.3-1.3-1.6-1.6
			c-3.9-1-8.1-1.9-12-2.9c-16.2-3.9-33-7.8-49.2-12.3C-29.6,393.3-30.5,393.3-31.8,393.3z M19,387.4L19,387.4c1-1.9,1.6-3.6,2.3-5.2
			l1.6-3.9c3.2-8.4,6.8-17.1,10-25.9c0.3-0.6,0-1.9,0-2.9c-0.3,0-0.6,0-1.3,0c-0.6,0-1.6,0-2.3,0.3c-13.9,5.5-24.9,15.5-35.9,31.7
			L19,387.4z"/>
	</g>
</g>
</svg>
