<?xml version="1.0" encoding="utf-8"?>
<!-- Generator: Adobe Illustrator 19.2.0, SVG Export Plug-In . SVG Version: 6.00 Build 0)  -->
<svg version="1.1" id="Layer_1" xmlns="http://www.w3.org/2000/svg" xmlns:xlink="http://www.w3.org/1999/xlink" x="0px" y="0px"
	 viewBox="0 0 260 259.2" style="enable-background:new 0 0 260 259.2;" xml:space="preserve">
<style type="text/css">
	.st0{fill:#FFFFFF;}
</style>
<title>icone-sopas</title>
<path class="st0" d="M54.1,205.6c-13.8-7.9-26.4-16.4-35.2-29.1c-5.8-8.4-11-17.2-15.6-26.3c-3.8-7.6-0.7-11.9,7.8-12.1
	c5.3-0.2,10.7,0,16,0h219.2c1.7,0,3.4,0,5.1,0c7.6,0.4,10.4,4.5,7.4,11.6c-7.9,19.8-21.6,36.7-39.3,48.6c-3.7,2.5-7.4,4.8-11.8,7.6
	c8,4.5,13,10.4,13,19.5c0.1,10.2-7.4,18.9-17.6,20.3c-2.1,0.3-4.3,0.4-6.4,0.3c-44,0-88.1,0-132.1,0c-7.3,0-14-1.3-19-7.3
	c-7.4-8.5-6.5-21.3,1.9-28.7c0.8-0.7,1.7-1.4,2.6-1.9L54.1,205.6z M228.9,172H33.6c0.8,1.2,1.6,2.4,2.5,3.5
	c14,13.9,30.5,24.9,50.1,26.3c28.1,2.1,56.3,2.4,84.4,0.9C193.3,201.5,212.3,189.9,228.9,172z M130.8,218.6H62.8
	c-4.5,0-7.6,1.7-7.8,6.5c-0.2,4.8,2.9,6.7,7.2,7.2c1.3,0.1,2.6,0.1,3.8,0c43.2,0,86.3,0,129.6,0c2.3,0.1,4.7-0.1,7-0.7
	c3.4-1,5.3-4.6,4.3-8c-0.3-1.1-0.9-2-1.7-2.8c-2.3-1.5-4.9-2.2-7.6-2.2C175.2,218.5,153,218.6,130.8,218.6L130.8,218.6z M20.2,152.2
	c0.3,4.5,2.7,5.7,6.8,5.7c69.2,0,138.5,0,207.7,0c4.1,0,6.5-1.2,6.8-5.7H20.2z"/>
<path class="st0" d="M145.5,98.4c2.1-5.1,4.6-10,7.4-14.8c4.7-7.5,5.1-10.9-0.4-17.8c-3-3.8-4.6-7.3-0.6-11.2
	c3.2-3.1,7.6-2,11.5,2.5c9.3,11.2,9.6,22.1,1.1,33.8c-7,9.7-6.8,12.5,1.4,20.7c2.8,2.8,4.5,5.8,1.7,9.5c-2.9,3.7-6.5,3.6-10.2,1.2
	C149.8,117.7,146,110.6,145.5,98.4z"/>
<path class="st0" d="M119.6,54.7c2.1-5.1,4.6-10,7.3-14.8c4.7-7.5,5.1-10.9-0.4-17.8c-3-3.8-4.6-7.3-0.6-11.2
	c3.2-3.1,7.6-2,11.5,2.5c9.3,11.2,9.6,22.1,1.1,33.8c-7,9.7-6.8,12.5,1.4,20.7c2.8,2.8,4.5,5.8,1.7,9.5c-2.9,3.7-6.5,3.6-10.2,1.2
	C123.9,73.9,120,66.8,119.6,54.7z"/>
<path class="st0" d="M118,74.5c-2.2,5.7-4.8,11.2-7.9,16.6c-6.6,10-6.7,12.7,1.5,20.7c2.9,2.9,4.3,6,1.7,9.6
	c-2.7,3.5-6.5,3.5-10.2,1.2c-10-6.1-14.2-18.6-9.9-29.5c1.4-3.3,3.3-6.4,5.4-9.3c5.1-7.2,5.1-11-0.3-17.8c-3.2-4-4.9-8,0-11.5
	c4.4-3.2,8.4-1.1,10.8,3C112.3,62.7,114.9,68.4,118,74.5z"/>
</svg>
