<?xml version="1.0" encoding="utf-8"?>
<!-- Generator: Adobe Illustrator 19.1.0, SVG Export Plug-In . SVG Version: 6.00 Build 0)  -->
<svg version="1.1" id="Layer_1" xmlns="http://www.w3.org/2000/svg" xmlns:xlink="http://www.w3.org/1999/xlink" x="0px" y="0px"
	 viewBox="-65 81 400 400" style="enable-background:new -65 81 400 400;" xml:space="preserve">
<style type="text/css">
	.st0{fill:#FFFFFF;}
</style>
<g>
	<path class="st0" d="M-53.4,312.7c-3.5,1-6,3.7-6,7c0,4,3.8,7.3,8.6,7.3H3.6l-28.1-14.3L-53.4,312.7L-53.4,312.7z"/>
	<path class="st0" d="M86.9,312.7H58.2L30.1,327h54.3c4.7,0,8.6-3.3,8.6-7.3C93,316.4,90.4,313.7,86.9,312.7z"/>
	<path class="st0" d="M50.4,312.7h-67.2c10.6,5.4,32.1,16.4,33.6,17.2C18.2,329.1,39.8,318.1,50.4,312.7z"/>
	<path class="st0" d="M81.4,333.8c-21.8-0.1-43.5,0-65.3,0c-22,0-43.9,0.1-65.9-0.1c-5.6-0.1-7.8,1.7-7.7,6.3
		c0.3,17.1,18.1,31.7,39.3,31.7c22.7,0.1,45.5,0.1,68.3,0c21.3-0.1,38.9-13.8,39.7-30.8C90,334.8,88.9,333.8,81.4,333.8z"/>
	<path class="st0" d="M85,291.3c-22.7,0-45.5,0-68.3,0c-23.2,0-46.4-0.1-69.5,0c-6,0-8.4,2.7-8.2,9c0.1,6.1,2.7,9.1,8.5,9.1
		c45.9,0.1,91.8,0.1,137.7-0.1c5.4,0,8.4-3.4,8.4-9.3C93.6,294,90.9,291.3,85,291.3z"/>
	<path class="st0" d="M-41.5,286.7c19.2,0,38.4,0,57.6,0c22.2,0,44.4-0.1,66.5,0.1c5.2,0.1,7.3-1.7,7.2-6.1
		c-0.1-3.1,0.1-6.2-0.1-9.3c-0.6-18.7-18.2-33.6-39.8-33.7c-22.4-0.1-44.8,0.1-67.2-0.1c-11.2-0.1-20.6,3.5-28.4,10.3
		c-7.9,6.8-11.6,15.1-11.7,24.7C-57.5,288-59,286.7-41.5,286.7z M50.2,246.1c0-0.8,0.6-1.4,1.5-1.4h0.3c0.8,0,1.5,0.6,1.5,1.4v3.4
		c0,0.8-0.6,1.5-1.5,1.5h-0.3c-0.8,0-1.5-0.6-1.5-1.5V246.1z M50.2,261.8c0-0.8,0.6-1.5,1.5-1.5h0.3c0.8,0,1.5,0.6,1.5,1.5v3.4
		c0,0.8-0.6,1.5-1.5,1.5h-0.3c-0.8,0-1.5-0.6-1.5-1.5V261.8z M34.4,252.3c0-0.8,0.6-1.5,1.5-1.5h0.3c0.8,0,1.5,0.6,1.5,1.5v3.4
		c0,0.8-0.6,1.5-1.5,1.5h-0.3c-0.8,0-1.5-0.6-1.5-1.5V252.3z M15.4,246.1c0-0.8,0.6-1.4,1.5-1.4h0.3c0.8,0,1.5,0.6,1.5,1.4v3.4
		c0,0.8-0.6,1.5-1.5,1.5h-0.3c-0.8,0-1.5-0.6-1.5-1.5V246.1z M15.4,261.8c0-0.8,0.6-1.5,1.5-1.5h0.3c0.8,0,1.5,0.6,1.5,1.5v3.4
		c0,0.8-0.6,1.5-1.5,1.5h-0.3c-0.8,0-1.5-0.6-1.5-1.5V261.8z M-6.7,252.3c0-0.8,0.6-1.5,1.5-1.5H-5c0.8,0,1.4,0.6,1.4,1.5v3.4
		c0,0.8-0.6,1.5-1.4,1.5h-0.3c-0.8,0-1.5-0.6-1.5-1.5V252.3z M-22.6,246.1c0-0.8,0.6-1.4,1.5-1.4h0.3c0.8,0,1.5,0.6,1.5,1.4v3.4
		c0,0.8-0.6,1.5-1.5,1.5h-0.3c-0.8,0-1.5-0.6-1.5-1.5V246.1z M-22.6,261.8c0-0.8,0.6-1.5,1.5-1.5h0.3c0.8,0,1.5,0.6,1.5,1.5v3.4
		c0,0.8-0.6,1.5-1.5,1.5h-0.3c-0.8,0-1.5-0.6-1.5-1.5V261.8z"/>
	<path class="st0" d="M330.9,191.7c-0.6-2.4-3-3.8-5.3-3.2l-36.1,9.1l-5.2,18.6h-64.7v59.3c0,0.2,0,0.4,0,0.6v97.6h89.6v-99
		c0-0.2,0-0.4,0-0.6v-57.8h-15.8l3.2-11.4l31.3-7.9C330,196.4,331.4,194,330.9,191.7z M228.3,225.1h53.4l-13.2,46.6
		c-1-0.3-2-0.4-3-0.8c-19-5.2-30.6-4.2-37.2-2.1V225.1L228.3,225.1z M300.3,365h-72v-86.8c3.4-1.7,13.3-4.8,34.8,1.2
		c1,0.3,2,0.5,3,0.8l-18.8,66.6c-0.6,2.3,0.7,4.7,3,5.4c0.4,0.1,0.8,0.2,1.2,0.2c1.9,0,3.7-1.3,4.2-3.2l19-67.1
		c5,0.8,9.3,1.2,13,1.2c5.4,0,9.6-0.8,12.6-1.7V365L300.3,365z M300.3,225.1v47c-2.7,1.3-9.6,3.6-23.2,1.4l13.7-48.4H300.3
		L300.3,225.1z"/>
	<path class="st0" d="M177.1,284.8h-11.3v-11.3c0-6.8-5.5-12.3-12.3-12.3c-3.4,0-6.5,1.4-8.7,3.6c-2.2,2.2-3.6,5.3-3.6,8.7v11.3
		h-11.2c-6.8,0-12.3,5.5-12.3,12.3c0,3.4,1.4,6.5,3.6,8.7c2.2,2.2,5.3,3.6,8.7,3.6h11.3v11.3c0,6.8,5.5,12.3,12.3,12.3
		c6.8,0,12.3-5.5,12.3-12.3v-11.3h11.3c6.8,0,12.3-5.5,12.3-12.3C189.4,290.3,183.9,284.8,177.1,284.8z"/>
</g>
</svg>
