<?xml version="1.0" encoding="utf-8"?>
<!-- Generator: Adobe Illustrator 19.1.0, SVG Export Plug-In . SVG Version: 6.00 Build 0)  -->
<svg version="1.1" id="Foreground" xmlns="http://www.w3.org/2000/svg" xmlns:xlink="http://www.w3.org/1999/xlink" x="0px" y="0px"
	 viewBox="0 0 538.6 317.5" style="enable-background:new 0 0 538.6 317.5;" xml:space="preserve">
<style type="text/css">
	.st0{fill-rule:evenodd;clip-rule:evenodd;fill:#FFFFFF;}
	.st1{fill:#003881;}
	.st2{fill:#C2C4C6;}
</style>
<g>
	<g>
		<path class="st0" d="M269.3,3.7c139.5,0,263.4,65,263.4,155c0,90-123.9,155-263.4,155c-139.5,0-263.4-65-263.4-155
			C5.9,68.7,129.8,3.7,269.3,3.7z"/>
		<g>
			<path class="st1" d="M16.8,158.7c0-79.2,112.8-144,252.4-144s252.4,64.8,252.4,144c0,79.2-112.8,144-252.4,144
				S16.8,237.9,16.8,158.7z M21.1,158.7c0,75.1,108.6,139.8,248.2,139.8c139.7,0,248.2-64.8,248.2-139.8
				c0-75.1-108.6-139.8-248.2-139.8C129.6,18.9,21.1,83.7,21.1,158.7z"/>
		</g>
		<g>
			<path class="st2" d="M295,148.6l1.3-0.1c9,0.1,15.1,0.3,22.5,0.4v-42.1H295L295,148.6z M275.5,149c6,0,9.7,0.3,14.6-0.1h-2.5
				v-42.1h-23.9v42.1C263.7,148.9,269.2,149,275.5,149z M232.5,148.4c3.2-0.2,6.5-0.3,10.5-0.3c5.1,0,9.3,0.3,13.3,0.6v-41.9h-23.9
				L232.5,148.4z M340.2,89.7v-2.5l-63.8-24.6l-64,24.3v2.9H340.2z M242.3,73.2l1.8-0.7c-0.2-1.6,0.1-3.1,0.2-4.6
				C243.4,69.5,242.6,71.3,242.3,73.2z M342.2,91.7H335v15.1h-8.8v42.1l1,0c3.2,0,4.9,0.8,8.1,1.2c-13.6-0.1-21.3-0.4-34.9-0.4
				c-14.3,0-22.3,4.9-34.8,11.9c-7.5,4.2-9.9,12.8-18.6,12.8l2.3-6.2l-1.2-1.5c-2.2,0.5-3.4,1.9-5.7,1.9c-1.5,0-2.3-1.2-3.9-1.2
				c-5.1,0-7.3,3.8-11.6,6.6c-6.9,4.5-11.1,6.5-17.3,11.9c-2.3,2-2.3,5.8-5.4,5.8c-0.8,0-1.3-0.6-1.9-0.8
				c6.7-8.9,11.4-14.2,21.2-19.6c8.2-4.5,15.9-7,18.2-16.2c-15.2,0-22.5,6.3-35.1,15.1c-5.9,4.1-9.1,8.3-16.2,8.9
				c1.3-3.8,2.8-5.7,4.3-9.3c-4,1-5.9,3.1-10,3.1c-3,0-4.6-3.2-4.6-6.2c0-5.3,4.4-9.7,9.7-9.7H207c4.6,0,5.2-4.9,9-7.6
				c3.4-0.1,6.4-0.3,9.2-0.5v-42h-8V91.7h-6.8v-6.4l27-10.2c-1.3-0.7-2.4-1.8-4.2-1.8c-6,0-9.3,1.5-15.3,1.9c3-2.2,4.9-3.5,7-6.6
				l10.8,3.1c1.4-0.1,2.1-0.3,3.5-0.4c0.5-5.1-1.8-10.2,2.3-13.1c5.1-3.6,13.4-1.5,14.6-7.7c0.6-3.3,0.7-7.7,4.1-7.7
				c4,0,5.9,3.1,9.9,3.1c1.7,0,1.7-2.1,3.1-3.1c0.5-0.3,0.9-0.6,1.4-0.8c4.3-1.7,7-2,9.3-4.2c3-2.8,1.9-9.2,6.2-9.2
				c2.3,0,3.9,2.3,3.9,4.6c0,4.9-6.4,4.9-10.8,6.9c-1.7,0.7-1.9,3.1-3.9,3.1c-1.7,0-2.7-0.9-4.3-1.4c-1.6,2.7-2.3,5.3-5,5.3
				c-4.2,0-6.6-0.1-10.7,0c0,4.6-4.2,6.8-8.5,8.5c1,2.4,2.1,3.9,3.5,6.2l-0.4,1.5c-3.6-0.9-6.8,1-9,4c0.8-0.1,1.5-0.4,2.3-0.4
				c0.4,0,0.8,0.1,1.1,0.3c1.3,1,1.6,1.2,2.1,1.2c6.4,0,9.2-7.2,9.2-14.1c7.6-0.5,11.5-4,17-7.4c1.8-1.1,3.8-2.2,6.1-3.1
				c2.6-1,5.1,0.4,7.3-0.7c3.3-1.8,3.6-6.1,6.9-8.4c1.1,1.7,1.5,3.7,1.9,5.8c7-2.4,10.1-5.7,18.2-6.4c0.4,1.2,0.1,0.8,0.4,1.2
				c0.3,0.4,0.4,0.7,0.4,0.9c0,3.7-2.3,5.7-5.2,7c-2.9,1.3-6.5,2.1-9.7,3.4c-8.5,3.7-13.8,8.2-23.3,9.7l-0.2-1
				c9.2-1.5,14.9-6,23.1-9.6c3.1-1.4,6.8-2.1,9.6-3.4c2.8-1.3,4.6-2.9,4.6-6.1c-0.3-0.4-0.3-0.5-0.4-0.6c-6.8,0.2-11.7,4-17.8,6
				c-0.9-1.8-1.2-3.8-1.6-5.7c-2.8,2.4-2.8,6-6.4,8c-2.7,1.4-4.9-0.2-7.4,0.8c-7.9,3.2-13.2,9.9-22.4,10.1
				c-0.1,6.7-3,14.6-10.2,14.6c-0.4,0-0.8-0.1-1.1-0.3l-1.1-0.9c-0.5-0.3-0.7-0.4-0.9-0.4c-0.4,0-0.6,0.1-0.9,0.1l-0.7,0.2
				c-0.2,1.5-0.3,2.4-0.3,3.9l31.4-11.9l3,1.2c8.8-4.4,13.5-6.5,22.1-10.9c-3,4.1-6.4,4.9-10.8,7.3c-2.9,1.6-4.8,4.1-7.4,5.1l4,1.5
				c9.3-6.8,16.6-8.2,28.4-10.1c-0.3,2-1.1,3.2-1.9,5l0.4,1.5h3.5l7-1.9h3.1c-0.7,1.8-1.5,3.1-2.7,4.6c0.9,0.4,1.4,1.2,2.3,1.2
				c6.2,0,9.6-1,15.8-1.5c6.8,0,10.6-1.3,17.4-0.1c-0.3,0.7-0.8,1.2-0.8,2c0,1.6,1.5,2.2,3,3c-1.4,2.2-4.9,2-4.9,4.6
				c0,1.3,0.5,1.9,0.8,3.1c-10.3,0.4-16.1,1.2-26.5,1.2c-5.2,0-8.5,0.5-13.1-0.4l23.3,9V91.7z M276.8,166.6
				c8.2-6.8,14.2-11.2,24.8-11.2h17.5c5.5,0,8.6-2.3,14.1-2.3h4.8c-0.1,1.2-0.4,1.9-0.4,3.1c0,2.1,3,1.7,5,2.3
				c4.5,1.4,7.3,1.5,12,2.3c8.7,1.5,13.5,3.9,22.3,3.9v3.6c0,2.9-4.3,2.6-7.2,2.6c-8.7,0-12.5-7.3-21.2-7.3c-5.6,0-8.6,2.7-14.2,2.7
				h-7.8c-8,0-12.3-3.5-20.3-3.5h-7.4C290.2,162.8,285.5,166.6,276.8,166.6z M369.3,114.1c3.3,1.8,5.2,3.7,8.9,5.5
				c2.6,1.3,6.2,1.3,6.2,4.2c0,3.3-5.2,0.6-8.5,1.2c2.1,2.9,4.5,4.6,8.2,4.6h7.4c4.4,0,8.6,2.7,8.6,7.1v2.6
				c-1.5,0.1-2.3,0.4-3.8,0.4c-5.6,0-7.3-5-12.8-6.6c-5.6,0-9,1.1-14.3,0.3V114.1z M373.9,110.7c-1.8,0-2.8,0.3-4.5,0.1v-9
				c1.2,0.2,2.7,1.3,3.9,1.9c3.2,1.5,4.8,3.3,7.3,5.8l-1.2,1.5l-1.5,0.4C376.3,111.1,375.4,110.7,373.9,110.7z M367.4,83.4
				c0.8-0.9,2.3-1.2,3.5-1.2c1.4,0,2.7,1,2.7,2.3c0,0.7-0.8,0.9-0.8,1.5C370.5,85.9,368.8,85.1,367.4,83.4z M385.6,83.4v5.8
				c-2.7,0.3-4.3,0.2-7,0v-2.7c1.5-1.9,3-3.5,5.5-3.5C384.7,83,385,83.4,385.6,83.4z M147.7,133.8c9.8-16.3,23.6-17.9,36.3-31.6
				v17.8c-2.6,4.1-9.7,4.7-15.1,7.6c-6.2,3.3-7.1,9.1-13.4,12c0.9-1.7,1.4-2.8,1.9-4.6l-1.2,1.5l-27.4,19.2l0.8-1.5
				c11.3-12.6,23.3-15.6,30.7-31.1l-1.5,0.7C154.3,127.4,153,131.2,147.7,133.8z M168.9,140.4c4.8-3.6,12.6-13.6,15.1-13.4v5
				c-2.8,5.1-12,4.2-16.2,9.9L168.9,140.4z M179.7,148.5c1.6-2.4,1.6-6.7,4.3-6.3l0,9C182.6,149.9,181.5,149.1,179.7,148.5z"/>
			<path class="st1" d="M312.8,214v-2.6c-0.7,0-4.8,4.4-7.2,7.7c-2.4,3.4-4.9,6.4-4.9,9.4c1.4,0,3.7-3,5.7-5.2
				c1.1-1.2,1.7-1.9,2.6-3.2C310.7,217.8,311.1,217.3,312.8,214z M339.5,227.6c0,1.4,0.7,2.2,2.1,2.3c1.8,0.1,6.1-3.3,7.2-4.6
				c1.2-1.5,2.3-3.9,2.3-6c0-1.7-0.5-2.8-2.5-2.8c-4.1,0-3.2,4.2-6.5,4.3C341.7,220.8,339.5,224.4,339.5,227.6z M320.9,231.5
				c-2.4-0.3-3.8-1.2-5.3-3c-0.9-1.1-1.2-2-1.6-3.3c-0.4-1.4-0.5-3.5-1.5-3.5c-0.8,0-2.5,2.3-3.2,3.3c-1.7,2.6-2.8,4.2-5.1,6.8
				c-2.4,2.7-4.2,5.1-7.8,5.1c-1,0-1.8,0.1-2.6-0.5c-0.9-0.7-1.2-1.6-1.2-2.6c0-3,1.6-5.5,1.6-5.9c0-0.2-0.2-0.2-0.5-0.2
				c-1.1,0-1.3,1.4-1.9,1.4c-0.2,0-0.4-0.2-0.4-0.8c0-0.6,0.5-1.2,0.5-1.6c0-0.4-0.3-0.8-0.3-1.5c0-0.6,0.2-1.2,0.8-1.6
				c1.8-1.1,2.1-1.9,3.2-2.3c1.7-3.1,6.4-7,8.7-9.2c2.4-2.3,2.8-2.9,6.2-5.6c1.4-1.1,2-1.2,3.2-1.2c1.1,0,1.6-2.7,2.1-4.6
				c0.7-2.4,0.9-3.5,1.7-5.6c1.4-3.7,2.5-5.6,4.4-9c1.4-2.5,3.3-4.9,5-4.9c2.1,0.1,1.7,5.2,0.6,9c-0.8,2.7-1.2,4.2-2.2,6.8
				c-0.7,1.8-1.3,2.8-2.1,4.6c-0.7,1.5-1.1,2.3-1.7,3.7c-0.9,2.2-1.2,2.6-2.2,5.6c-0.4,1.3-0.7,2.8-0.6,4.7c0.2,4.4,2,9.8,5.5,9.8
				c0.8,0,2.3-0.5,3.2-1.2c0.7-0.8,1.1-1.9,1.1-1.9c0.6-1.4,3.4-2.9,7.7-7.1c0.6-0.6,2.8-3.4,3.9-3.6c2.1-1.8,3.6-3.8,4.3-3.8
				c2.5,0,3.2,0.5,3.2,0.9c0,0.3-1,1-1,2.1c1.2-0.1,2.3-1.2,3.9-1.2c2.3,0,4.1,0.5,5.5,2.4c0.6,0.9,0.7,1.5,1,2.5
				c0.6,2.9-1.3,7.3-3.9,11.2c-3.6,5.4-9.2,9.4-13.7,9.5c-1.8,0-3.1-0.3-4.5-1.3c-2.7-1.9-2.4-4.8-2.4-6.4c0.1-2.2,0.6-2.3,0.6-3.5
				c0-1.2-3.2,1.3-3.2,2.2l0,0.7C329.4,229.2,323.4,231.8,320.9,231.5z"/>
			<path class="st1" d="M242.8,227.4c0,1.4,0.7,2.2,2.1,2.3c1.8,0.1,6.1-3.3,7.2-4.6c1.2-1.5,2.3-3.9,2.3-6c0-1.7-0.5-2.8-2.5-2.8
				c-4.1,0-3.2,4.2-6.5,4.3C245,220.6,242.8,224.1,242.8,227.4z M143.3,198.3c-1.1,2.2-1.5,3.6-2.2,5.9c-0.6,2.2-1,2.9-1.3,5.7
				c1.3,0,3.3-4.2,4.9-7.2c1.7-3.1,2.7-5,3.6-8.5c0.3-1.4,0.6-3,0.6-3.7c-0.4,0-1.7,1.5-2.6,2.6C144.8,195,144.3,196.3,143.3,198.3z
				 M231.9,221.9c0.6-1.4,3.4-2.9,7.7-7.1c0.6-0.6,2.8-3.4,3.9-3.6c2.1-1.8,3.6-3.8,4.3-3.8c2.5,0,3.2,0.5,3.2,0.9c0,0.3-1,1-1,2.1
				c1.2-0.1,2.3-1.2,3.9-1.2c2.3,0,4.1,0.5,5.5,2.4c0.6,0.9,0.7,1.5,1,2.5c0.6,2.9-1.3,7.3-3.9,11.2c-3.6,5.4-9.2,9.4-13.7,9.5
				c-1.8,0-3.1-0.3-4.5-1.3c-2.7-1.9-2.4-4.8-2.4-6.4c0.1-2.2,0.6-2.3,0.6-3.5c0-1.2-3.2,1.3-3.2,2.2l0,0.7c0,1.2-5.4,5.4-8.9,5.2
				c-3.2-0.2-4.8-1.5-6-6c-0.7-2.6-0.9-3.4-2.7-3.4c-0.6,0-2.2,1.4-3.2,2.5c0.1,0.2,0.2,0.5,0.2,0.8c0,1.6-5,4.7-7.4,6.2
				c-5.1,3.4-6.7,2.6-8.6,3.4c-2.9,0-4.4-0.1-6.1-1.1c-0.6-1-3.5-1.2-3.5-5.2c-0.3-0.3-0.3-1.4-0.4-2.1c-0.2,0.6-1.1,1.2-2,1.9
				c-1.7,1.3-3.6,2.4-6.7,2.2c-1.1-0.1-3-1.2-3.6-2.6c-0.6-1.6-0.6-5.1-1.7-5.1c-0.6,0-5.2,4.6-7.2,6.5c-1.3,1.3-4.1,3.1-5.7,3.9
				c-2.4,1.3-6,0.9-5.8-3.2c0.1-1.2,0.5-2.2,0.7-2.7c-0.4,0.2-6.8,4.3-11.1,4.5c-3.4,0.2-5.4-0.7-7.5-3.1c-1-1.1-1.6-3-2.3-5.9
				c-1.4,0.9-2.4,1.6-3.1,2.3c0,0.3,0.2,0.6,0.2,1c0,0.8-1,1.6-2,2.2c-1.7,1-2.6,1.8-4.6,2.1c-0.9,0.1-1.4,0.2-2.2,0
				c-1.8-0.4-3.3-1.8-3.8-2.7c-0.8-1.4-0.3-4.9-1.4-4.9c-0.6,0-2,1.6-3.3,2.6c-1.8,1.5-2.7,2.6-4.5,4.1c-1.9,1.6-2.8,2.9-5.1,3.7
				c-0.9,0.3-1.7,0.6-2.4,0.6c-0.7,0-2.1-0.3-2.9-1.3c-0.6-0.8-0.6-2-0.6-2.5c0-1.6,0.8-2.6,0.8-3c0-0.3-0.8-0.3-1-0.7
				c0-4.1,0.1-4.9,1.6-5.8c1.5-0.9,2.4-2.1,3.8-3.5c3.4-3.5,5.4-5.3,9.2-8.3c1-0.8,1.6-1.3,2.6-2c2.7-1.9,4.8-3.9,7.4-3.9
				c1.6,0,2.4,0.7,2.5,1.7c0.3,1.8-2,2.4-3.3,3.9c-1.6,1.7-2.6,2.6-4.3,4.3c-1,1-1.6,1.6-2.7,2.6c-1.1,1.1-1.8,1.7-2.9,2.8
				c-1.9,2-3.3,2.8-4.6,5.2c-0.4,0.7-0.9,1-0.9,1.9c1.6,0,2.9-1.4,4.4-2.8c1.9-1.7,2.7-2.4,4.5-3.9c1.7-1.5,3.4-3.3,4.5-3.8
				c1-0.2,1.6-0.4,2.1-0.4c1.4,0,2.1,2.1,2,3.4c0,0.9-0.3,1.3-0.3,2.8c0,1.6,1,3.4,2.9,3.4c1.5,0,1.8-0.5,2.3-0.9
				c0-0.7,0.2-1.3,0.6-1.8c0.5-0.7,2.6-2.7,4.1-4.2c0-2,0.6-6.9,1.6-11.2c0.6-2.7,1-4.3,2-6.9c1.1-2.8,2-4.5,3.1-6.9
				c1.4-2.8,2-4.5,3.7-7.2c1.9-3,4-5.8,5.7-7.3c0.5-0.5,1-0.7,1.7-0.8c2.3-0.3,3.5,1.9,3.5,4.7c0,4.7-0.6,6.6-1.4,9.7
				c-0.5,2-1,3.1-1.8,5.1c-1.1,2.7-1.9,4.1-3.2,6.6c-2.5,4.9-5.9,9.4-7.2,12.1c-0.6,1.1-1.3,1.2-1.9,2.3c0,1.6,0,3.3,1,4.9
				c1.3,2.2,2.2,3.6,5.6,3.6c3.3,0,5.2-1.4,8.2-3.2c1-2.4,3.1-4.3,5.6-6.7c1.1-1,1.7-1.5,2.9-2.5c2.3-2,3.6-3.1,5.9-5
				c1.2-1,1.8-1.7,3.1-2.6c2.4-1.7,4.2-3,6.9-3c1.6,0,2.1,0.6,2.5,1.7c0.5,1.1-1.6,3.3-3.3,3.9c-1.4,0.5-6.1,5.1-9.6,8.9
				c-2,2.2-3.1,3.2-5,5.9c-0.5,0.7-0.7,1.1-0.7,2.1c1.6,0,3.1-1.7,4.4-2.5c0.6-0.4,2.7-2.3,4.5-3.9c2-1.8,3.4-3.5,4.5-4.1
				c0.9-0.5,2.1-0.3,2.6-0.3c1.4,0,1.3,2.3,1.2,3.3c0,0.9-0.1,1.3-0.1,2.8c0,1.6,1,3.4,2.9,3.4c1.2,0,1.6-0.5,1.9-0.8l0-0.9
				c0-0.7,4.6-3.7,5.3-4.1c0.5-0.9,1.3-2,4-3.8c1-0.6,6.6-4.5,7.4-5.1c2.9-2,4.7-3.3,7.4-3.3c1.3,0,1.9,2.5,1.2,3.7
				c-0.5,0.9-2.8,3.7-6.6,5.3c-2,0.8-6.2,3.7-8.4,7.2c-0.6,0.9-0.9,3.2-0.7,3.8c0.8,2.6,1.8,3,3.2,3.2c0.7,0.1,2.1,0,3.6-0.3
				c1.3-0.2,4.2-1.9,8.6-5.1c0.1-0.9,0.2-1,0.2-1.2c0.2-1.3,2.5-2.8,3.4-3.8c0.9-1,3.1-3.8,4-4.8c0.8-0.9,1.3-1.7,2.3-1.9
				c2.3-0.5,3.2,0.8,4.1,2.5c0.8,1.6,1.3,4.4,1.3,6.6c0,0.9,0.7,3.7,2.9,3.7c1,0,2-0.2,2.9-0.9C231.2,223.6,231.9,221.9,231.9,221.9
				z M227,190.1c1.2,0.2,2.6,1.8,0.6,6.4c-1.1,2.5-2.5,3.8-5.1,4.8c-1.7,0.7-3.2-0.1-3.4-0.8c-0.2-0.9-0.7-1.1-0.7-2.3
				c0-2.5,1.9-4.4,3.7-6.1C224.2,190.1,225.8,189.9,227,190.1z M183.4,188.2c1.2-0.4,2.7,0.1,3.4,1.3c0.4,0.6,0.4,0.6,0.4,1.8
				c0,0.9-0.8,1.8-1.7,2.3c-2.9,1.9-5,3-8.5,4.4c-2.5,1-5.7,2.3-6.6,2.3c-0.7,0-1.7-0.5-1.7-1.8c0-1.1,3.7-0.9,7.7-3.7
				C183.9,189.7,181.8,188.7,183.4,188.2z M98.9,200.7c0-4.7-0.4-5.1-1.7-8c-1.2-2.7-2.3-4.1-4.3-6.3c-2.2-2.4-3.6-3.8-6.5-5.3
				c-1.1-0.6-1-0.8-3-1.2c-0.2,0.1-0.3,0.2-0.3,0.5c0,1,4.4,3.6,4.4,7.4c0,0.5-0.1,2-0.8,3.4c-0.4,1.5-2.5,9-3.8,14.9
				c-0.6,2.7-1.4,6.1-1.4,7c0,1.1,0.1,1.5,0.9,1.5c0.8,0,4.1-1.4,6.6-2.6c3.1-1.6,5.4-2.8,7.5-5C98,205.2,98.9,204.3,98.9,200.7z
				 M81.5,229.9c0,0.4-2.9,5.5-5.2,5.5c-0.9,0-1.1-0.3-2.4-3.1c0-6.9,0.6-8.5,0.6-9.3c0-2.1-0.6-1.2-2.9-3c0-3,1.7-1.3,3.2-3.8
				c0.5-0.7,2.5-22.6,4.8-32.1c-0.8-2.6-4.1-5.3-4.1-6.5c0-1,1.7-3.7,3.5-4.7c1.7-0.9,2-1.9,3-1.9c0.4,0,0.8,0.2,1.1,0.7
				c3.2,0,6.4,2.3,10,4.7c4.4,3,6.8,5.2,9.5,9.8c2.3,4,3.7,8.5,3.6,11.4c-0.1,2.6-0.5,5.9-2.7,9.3c-2.9,4.5-6.6,6.1-11.5,8.4
				c-4.2,2-8.5,3.7-11.3,3.7c-0.5,0-0.8,0.9-0.8,2.6c0,0.4-0.2,3.3-0.2,5.2C79.8,228.9,81.5,229.1,81.5,229.9z"/>
			<path class="st1" d="M447.6,227.8c-0.3,0.3-0.6,0.6-0.8,0.9c-2.3,1.6-3.5,2.2-4.5,2.2h-2.2c-1.1,0-3.3-1.8-3.8-2.7
				c-0.8-1.4-0.3-4.9-1.4-4.9c-0.6,0-2,1.6-3.3,2.6c-1.8,1.5-2.7,2.6-4.5,4.1c-1.9,1.6-2.8,2.9-5.1,3.7c-0.9,0.3-1.7,0.6-2.4,0.6
				c-0.7,0-2.1-0.3-2.9-1.3c-0.6-0.8-0.6-2-0.6-2.5c0-1.6,0.8-2.6,0.8-3c0-0.3-0.8-0.3-1-0.7c0-4.1,0.1-4.9,1.6-5.8
				c1.5-0.9,2.4-2.1,3.8-3.5c3.4-3.5,5.4-5.3,9.2-8.3c1-0.8,1.6-1.3,2.6-2c2.7-1.9,4.8-3.9,7.4-3.9c1.6,0,2.4,0.7,2.5,1.7
				c0.3,1.8-2,2.4-3.3,3.9c-1.6,1.7-2.6,2.6-4.3,4.3c-1,1-1.6,1.6-2.7,2.6c-1.1,1.1-1.8,1.7-2.9,2.8c-1.9,2-3.3,2.8-4.6,5.2
				c-0.4,0.7-0.9,1-0.9,1.9c1.6,0,2.9-1.4,4.4-2.8c1.9-1.7,2.7-2.4,4.5-3.9c1.7-1.5,3.4-3.3,4.5-3.8c1-0.2,1.6-0.4,2.1-0.4
				c1.4,0,2.1,2.1,2,3.4c0,0.9-0.3,1.3-0.3,2.8c0,1.6,1,3.4,2.9,3.4c1.5,0,1.7-0.9,2.3-0.9l0.4-0.4c0.6-0.9,0.9-2.1,0.9-2.1
				c0.3-0.6,0.9-1.2,1.9-2.1c0.1-0.1,3.5-2.8,5.7-5c0.6-0.6,2.8-3.4,3.9-3.6c2.1-1.8,3.6-3.8,4.3-3.8c2.5,0,3.2,0.5,3.2,0.9
				c0,0.3-1,1-1,2.1c1.2-0.1,2.3-1.2,3.9-1.2c2.3,0,4.1,0.5,5.5,2.4c0.6,0.9,0.7,1.5,1,2.5c0.6,2.9-1.3,7.3-3.9,11.2
				c-3.6,5.4-9.2,9.4-13.7,9.5c-1.8,0-3.1-0.3-4.5-1.3c-2.7-1.9-2.4-4.8-2.4-6.4c0.1-2.2,0.6-2.3,0.6-3.5c0-1.2-3.2,1.3-3.2,2.2
				l0,0.7C449.4,226.2,448.7,227,447.6,227.8z M459,226.6c0,1.4,0.7,2.2,2.1,2.3c1.8,0.1,6.1-3.3,7.2-4.6c1.2-1.5,2.3-3.9,2.3-6
				c0-1.7-0.5-2.8-2.5-2.8c-4.1,0-3.2,4.2-6.5,4.3C461.2,219.7,459,223.3,459,226.6z M434.9,189.8c2.5-1.2,3.6-0.1,4.4,2.1
				c1.6,3.8,3.2,4,4.7,3c1.8-1,1.4-4.4,2.9-4.8c1.4-0.3,2,0.3,2,1.6c-0.1,1.3-1.5,6.6-4.1,8.1c-1.8,1-4.9,1.9-6.5-0.6
				c-1.5-2.7-1-4.1-3.1-3.5c-1.3,0.4-2.7,1.7-4.3,2.9c-1.6,1.1-3.1-0.5-0.2-4.2C431.7,193.1,433.5,190.5,434.9,189.8z M415.7,200.7
				c0-4.7-0.4-5.1-1.7-8c-1.2-2.7-2.3-4.1-4.3-6.3c-2.2-2.4-3.6-3.8-6.5-5.3c-1.1-0.6-1-0.8-3-1.2c-0.2,0.1-0.3,0.2-0.3,0.5
				c0,1,4.4,3.6,4.4,7.4c0,0.5-0.1,2-0.8,3.4c-0.4,1.5-2.5,9-3.8,14.9c-0.6,2.7-1.4,6.1-1.4,7c0,1.1,0.1,1.5,0.9,1.5
				c0.8,0,4.1-1.4,6.6-2.6c3.1-1.6,5.4-2.8,7.5-5C414.8,205.2,415.7,204.3,415.7,200.7z M398.3,229.9c0,0.4-2.9,5.5-5.2,5.5
				c-0.9,0-1.1-0.3-2.4-3.1c0-6.9,0.6-8.5,0.6-9.3c0-2.1-0.6-1.2-2.9-3c0-3,1.7-1.3,3.2-3.8c0.5-0.7,2.5-22.6,4.8-32.1
				c-0.8-2.6-4.1-5.3-4.1-6.5c0-1,1.7-3.7,3.5-4.7c1.7-0.9,2-1.9,3-1.9c0.4,0,0.8,0.2,1.1,0.7c3.2,0,6.4,2.3,10,4.7
				c4.4,3,6.8,5.2,9.5,9.8c2.3,4,3.7,8.5,3.6,11.4c-0.1,2.6-0.5,5.9-2.7,9.3c-2.9,4.5-6.6,6.1-11.5,8.4c-4.2,2-8.5,3.7-11.3,3.7
				c-0.5,0-0.8,0.9-0.8,2.6c0,0.4-0.2,3.3-0.2,5.2C396.6,228.9,398.3,229.1,398.3,229.9z"/>
		</g>
	</g>
</g>
</svg>
