<?xml version="1.0" encoding="utf-8"?>
<!-- Generator: Adobe Illustrator 18.1.0, SVG Export Plug-In . SVG Version: 6.00 Build 0)  -->
<!DOCTYPE svg PUBLIC "-//W3C//DTD SVG 1.1//EN" "http://www.w3.org/Graphics/SVG/1.1/DTD/svg11.dtd">
<svg version="1.1" id="Layer_1" xmlns="http://www.w3.org/2000/svg" xmlns:xlink="http://www.w3.org/1999/xlink" x="0px" y="0px"
	 viewBox="0 0 32 32" enable-background="new 0 0 32 32" xml:space="preserve">
<g>
	<path fill="#002E6D" d="M14,21.3c1,0,1,0,1.7,0c0.3,0,0.4,0,0.6,0c0.3,0,0.7,0,0.7,0V16h-3V21.3z"/>
	<path fill="#002E6D" d="M0.2,18.4C0.2,18.4,0.2,18.4,0.2,18.4C0.2,18.4,0.2,18.4,0.2,18.4C0.2,18.4,0.2,18.4,0.2,18.4z"/>
	<polygon fill="#002E6D" points="16,10 8.6,13 23.3,13 	"/>
	<path fill="#002E6D" d="M19,21c0.6,0,1.2,0.1,1.7,0.1c0.4,0,0.3,0.1,1.3,0.1V16h-3V21z"/>
	<path fill="#002E6D" d="M14,8.7L14,8.7c0.7-0.1,1-0.4,1.6-0.7c0.1-0.1,0.2-0.2,0.4-0.2c0.1-0.1,0.3-0.2,0.5-0.3c0,0,0,0-0.1,0
		c-0.2,0-0.3-0.1-0.4-0.1c0,0,0,0-0.1,0c0,0,0,0.1-0.1,0.1C15.6,7.7,15.5,8,15.1,8c-0.2,0-0.4,0-0.5,0c-0.3,0-0.5,0-0.8,0
		c-0.1,0.6-0.6,0.9-1.1,1.1c0.1,0.2,0.2,0.3,0.2,0.4c0.1,0.1,0.1,0.2,0.2,0.3l0,0l-0.1,0.4l-0.1,0c-0.3-0.1-0.6,0-0.8,0.2
		c0.1,0,0.2,0,0.2,0.1c0.1,0.1,0.3,0.1,0.3,0.1c0.6,0,1-0.5,1.2-1.2C13.9,9.3,14,9.2,14,9c0,0,0,0,0,0c0-0.1,0-0.1,0-0.2V8.7z"/>
	<path fill="#002E6D" d="M17.3,7.3c0.2,0,0.3,0,0.4,0c0.2-0.1,0.3-0.3,0.4-0.5c0-0.1,0.1-0.2,0.2-0.3c-0.2,0.2-0.5,0.3-0.9,0.4
		c-0.2,0-0.3,0.1-0.5,0.2c-0.1,0-0.1,0.1-0.2,0.2c0,0.1-0.1,0.1-0.1,0.2c0,0,0.1,0,0.1-0.1C16.9,7.3,17.1,7.3,17.3,7.3z"/>
	<path fill="#002E6D" d="M10,21.2c1,0,0.9,0,1.3,0c0.6,0,1.7,0,1.7,0.1V16h-3V21.2z"/>
	<path fill="#002E6D" d="M30.2,19.4c-0.3,0-0.5,0-0.8,0c-0.4,0-0.8,0.1-1.2,0l-0.2,0v-2.9l0.3,0.1c0.2,0.1,0.5,0.2,0.6,0.3
		c0.2,0.1,0.4,0.3,0.6,0.4c0.1,0,0.2,0.1,0.3,0.1c0.3,0.1,0.6,0.2,0.6,0.6c0,0.1-0.1,0.4-0.4,0.4c-0.1,0-0.2,0-0.3,0
		c-0.1,0-0.2,0.1-0.3,0c0.2,0.3,0.5,0.5,0.8,0.5h1c0.1,0,0.3,0,0.4,0c0.2-1,0.3-2,0.3-3c0-8.8-7.2-16-16-16S0,7.2,0,16
		c0,0.6,0,1.2,0.1,1.8c0.4-0.4,0.9-0.7,1.4-1c0.7-0.5,1.5-0.9,2.2-1.7L4,14.9v2.7l-0.1,0c-0.2,0.4-0.8,0.5-1.3,0.7
		c-0.3,0.1-0.6,0.2-0.8,0.3c-0.4,0.2-0.6,0.5-0.8,0.8c-0.1,0.2-0.3,0.3-0.5,0.5C2.3,26.9,8.5,32,16,32c7.4,0,13.6-5,15.4-11.8
		c-0.2-0.1-0.4-0.2-0.5-0.3C30.7,19.7,30.5,19.5,30.2,19.4z M29.7,16.5l-0.3,0.1l0,0c-0.1,0-0.1,0-0.1,0c-0.1,0-0.2-0.1-0.4-0.1
		c-0.1,0-0.2,0-0.3,0c-0.1,0-0.2,0-0.4,0l-0.1,0V15l0.2,0c0.1,0,0.3,0.1,0.4,0.2c0.1,0,0.1,0.1,0.2,0.1c0.4,0.2,0.6,0.4,1,0.7
		l0.1,0.1L29.7,16.5z M29.4,13L29.4,13c0.2-0.3,0.5-0.5,0.9-0.5c0.1,0,0.1,0,0.1,0c0,0,0,0,0,0h0.1v1l-0.1,0c-0.2,0-0.3,0-0.4,0
		c-0.2,0-0.3,0-0.5,0l-0.1,0V13z M28,12.6c0.2-0.2,0.5-0.2,0.6-0.2c0.2,0,0.5,0.2,0.5,0.4c0,0.1-0.1,0.2-0.1,0.2c0,0,0,0,0,0v0.1
		l-0.1,0c-0.4,0-0.6-0.2-0.8-0.4L28,12.6L28,12.6z M1.4,20.5L1,20.4c0,0,0,0,0,0l0.4-0.2c0.3-0.2,0.8-0.5,1.1-0.9
		c0.6-0.6,0.9-0.9,1.2-0.9l0.1,0l0,0.1l0,0.7c-0.2,0.4-0.7,0.5-1.2,0.7C2.2,20,1.7,20.2,1.4,20.5z M3,21.3c0.1-0.1,0.1-0.2,0.2-0.4
		c0.1-0.3,0.2-0.6,0.5-0.5l0.1,0V22l-0.2-0.2c-0.2-0.2-0.3-0.3-0.5-0.3l-0.2,0L3,21.3z M14.6,23.2c-0.4,0.2-0.7,0.5-0.9,0.8
		c-0.4,0.5-0.8,1-1.6,1h-0.2l0.3-1l-0.1-0.1c-0.1,0-0.1,0.1-0.2,0.1c-0.1,0.1-0.3,0.1-0.5,0.1c-0.1,0-0.2,0-0.3-0.1
		C11.1,24,11.1,24,11,24c-0.4,0-0.7,0.2-1,0.5c-0.1,0.1-0.3,0.2-0.5,0.4C9.2,25,9,25.1,8.8,25.3c-0.5,0.3-1,0.6-1.5,1.1
		c-0.1,0.1-0.2,0.2-0.2,0.3c-0.1,0.2-0.2,0.5-0.6,0.5c-0.1,0-0.2,0-0.2-0.1c0,0,0,0-0.1,0L6,27l0.1-0.1c0.9-1.3,1.6-1.9,2.9-2.6
		c0.2-0.1,0.3-0.2,0.5-0.3c0.8-0.4,1.5-0.8,1.8-1.6c-1.7,0-2.6,0.7-4,1.7l-0.4,0.3c-0.2,0.1-0.4,0.3-0.5,0.4
		c-0.5,0.4-0.9,0.7-1.7,0.8l-0.2,0l0.1-0.2c0.1-0.3,0.2-0.5,0.3-0.7c0-0.1,0.1-0.2,0.1-0.3c-0.1,0-0.2,0.1-0.3,0.1
		c-0.2,0.1-0.5,0.2-0.8,0.2c-0.5,0-0.7-0.6-0.7-1c0-0.8,0.6-1.6,1.4-1.6h2.3c0.3,0,0.5-0.1,0.6-0.4c0.1-0.2,0.3-0.3,0.5-0.4l0-0.2h0
		c0.4,0,1,0.3,1,0.3V16H8v-2H7v-1.1l0.1,0l3.4-1.3c-0.1-0.1-0.2-0.1-0.3-0.1c-0.4,0-0.8,0.1-1.1,0.1c-0.3,0.1-0.5,0.1-0.9,0.1
		l-0.4,0l0.5-0.3C8.6,11.2,8.8,11,9,10.7l0.1-0.1l1.5,0.4c0.1,0,0.1,0,0.2,0c0,0,0.1,0,0.1,0c0-0.2,0-0.3,0-0.5
		c0-0.5-0.1-0.9,0.4-1.2c0.3-0.2,0.6-0.3,1-0.3c0.5-0.1,0.9-0.2,0.9-0.6c0-0.1,0-0.1,0-0.2c0.1-0.4,0.1-0.9,0.6-0.9
		c0.3,0,0.5,0.1,0.7,0.2c0.2,0.1,0.4,0.2,0.6,0.2c0.1,0,0.1,0,0.1-0.1c0-0.1,0.1-0.2,0.2-0.2c0,0,0,0,0,0l0,0l0.3-0.1l0-0.1l0.1,0
		l0.3-0.1l0,0c0,0,0.1,0,0.1,0c0.3-0.1,0.5-0.2,0.7-0.4C17,6.4,17.1,6.2,17.2,6c0.1-0.3,0.2-0.7,0.6-0.7c0.4,0,0.6,0.4,0.6,0.7
		c0,0.1,0,0.3-0.1,0.4c0.1-0.1,0.2-0.2,0.3-0.3l0.1-0.1l0.1,0.1C18.9,6.4,19,6.6,19,6.8c0.3-0.1,0.5-0.2,0.7-0.3
		c0.5-0.2,0.9-0.4,1.6-0.5l0.1,0l0,0.1c0,0.1,0,0.1,0,0.1c0.1,0.1,0.1,0.1,0.1,0.2c0,0.6-0.4,0.9-0.8,1c-0.2,0.1-0.4,0.2-0.7,0.2
		c-0.2,0.1-0.4,0.1-0.6,0.2c-0.4,0.2-0.7,0.3-1,0.5c-0.7,0.3-1.3,0.7-2.2,0.8l-0.1,0l-0.1-0.4l0.1,0c0.8-0.1,1.4-0.5,2.1-0.8
		c0.3-0.2,0.6-0.3,1-0.5c0.2-0.1,0.4-0.2,0.7-0.2c0.2-0.1,0.4-0.1,0.6-0.2C21,7,21.2,6.8,21.2,6.5c-0.5,0-1,0.2-1.4,0.5
		c-0.3,0.1-0.5,0.2-0.8,0.3l-0.1,0l0-0.1c-0.1-0.2-0.1-0.4-0.2-0.5c-0.1,0.1-0.1,0.2-0.2,0.3c-0.1,0.2-0.3,0.5-0.6,0.6
		c-0.2,0.1-0.4,0.1-0.6,0.1c-0.1,0-0.3,0-0.4,0c-0.4,0.2-0.7,0.4-1,0.6C15.3,8.6,14.7,9,14,9c0,0.1,0,0.3-0.1,0.4
		c-0.1,0.4-0.2,0.7-0.4,1L16,9.5l0.4,0.2c0.6-0.3,1-0.5,1.4-0.7c0.4-0.2,0.9-0.4,1.5-0.7L19.7,8l-0.3,0.4c-0.3,0.4-0.7,0.6-1.1,0.8
		c-0.1,0.1-0.2,0.1-0.4,0.2c-0.2,0.1-0.3,0.2-0.4,0.3c-0.1,0.1-0.2,0.2-0.3,0.2l0.2,0.1c1.2-0.9,2.2-1.1,3.8-1.3l0.2,0l0,0.2
		c0,0.2-0.1,0.4-0.2,0.6c0,0,0,0.2,0,0.2l0,0.3h0.3l0.9-1H23l-0.1,0.3c-0.1,0.2-0.2,0.5-0.3,0.7c0,0,0,0,0,0c0.1,0,0.1,0.1,0.1,0.1
		c0.5,0,0.9-0.1,1.3-0.1c0.2,0,0.5-0.1,0.8-0.1c0.3,0,0.6,0,0.9,0c0.5,0,1-0.1,1.5,0l0.2,0l-0.1,0.1c0,0,0,0.1,0,0.1
		c0,0.1,0,0.1,0,0.1c0,0.1,0.1,0.2,0.3,0.3l0.2,0.1l-0.1,0.1c-0.1,0.2-0.3,0.2-0.4,0.3c-0.2,0.1-0.2,0.1-0.2,0.2
		c0,0.1,0,0.1,0.1,0.2c0,0,0,0.1,0.1,0.2l0,0.1l-0.2,0c-0.5,0-1,0-1.4,0.1c-0.7,0-1.3,0.1-2.1,0.1c-0.2,0-0.3,0-0.5,0
		c-0.1,0-0.2,0-0.3,0l2.4,0.9V14h-1v2h-1.3l0,5.3c0.3,0,0.5,0,0.7,0c0.1,0,0.3,0.1,0.4,0.1l0,0.2c-0.8,0-1.4,0-2,0
		c-0.8,0-1.6,0-2.6,0c-1.8,0-2.8,0.6-4.3,1.4L14.6,23.2z M29,24c0,0.5-0.1,0-0.4,0h-0.2c-0.6,0-1,0-1.5-0.3
		c-0.4-0.2-0.8-0.2-1.3-0.2c-0.4,0-0.6,0.1-0.9,0.2c-0.3,0.1-0.6,0.3-1,0.3h-1c-0.5,0-1-0.4-1.4-0.5C20.9,23.4,20.5,23,20,23h-1
		c-0.6,0-1,0.4-1.4,0.5C17.1,23.6,16.6,24,16,24h-0.3l0.3-0.4c1.1-0.9,1.9-1.6,3.4-1.6h2.3c0.3,0,0.6,0.1,0.9,0c0.3-0.1,0.6,0,1,0
		h0.8l0,0c0,0.1,0,0,0,0.1c0,0.1,0,0.1,0,0.2c0,0.1,0.1,0.1,0.3,0.1c0.1,0,0.2,0,0.3,0c0.4,0.1,0.8,0.2,1.1,0.2c0.1,0,0.3,0,0.4,0
		c0.4,0.1,0.8,0.1,1.1,0.2C28,23,28.5,23,29,23v0h0.4c-0.1,0-0.2,0-0.4,0V24z"/>
</g>
</svg>
