<?xml version="1.0" encoding="utf-8"?>
<!-- Generator: Adobe Illustrator 19.1.0, SVG Export Plug-In . SVG Version: 6.00 Build 0)  -->
<svg version="1.1" id="Layer_2" xmlns="http://www.w3.org/2000/svg" xmlns:xlink="http://www.w3.org/1999/xlink" x="0px" y="0px"
	 viewBox="0 0 544.3 184.3" style="enable-background:new 0 0 544.3 184.3;" xml:space="preserve">
<style type="text/css">
	.st0{fill:#BF1D1E;}
	.st1{fill:#2C3E63;}
	.st2{fill:#A7905E;}
	.st3{fill:#FFFFFF;}
	.st4{fill:#E9AA02;}
	.st5{fill:#4B4A4A;}
</style>
<g>
	<g>
		<path class="st0" d="M299.2,13.8c1.8,0,3.4,0.3,5,0.9c1.5,0.6,2.9,1.5,4,2.6c1.1,1.1,2,2.4,2.7,3.9c0.7,1.5,1,3.1,1,4.9l4.7-3.1
			v-9.2h2.3v7.7l10.9-7.8c2.1,1.6,3.9,2.9,5.4,4.1c1.5,1.2,2.6,2.1,3.4,2.9c5.8,5.3,8.6,10.8,8.6,16.5v32l-14.9,12.2
			c-5-2.1-9.5-3.5-13.5-4v16.6c-0.5-0.1-0.9-0.1-1.3-0.1c-0.3,0-0.7,0-1,0h-13.1c-0.5,0-0.9,0-1.3,0c-0.3,0-0.7,0-1,0.1v-18
			c-5.5,0.1-11.4,1.4-17.7,4l-0.6-0.9c3.6-6,9.7-10.2,18.1-12.5c-1.1-9.1-6.5-16.1-16.1-21v-0.4L301,33.7V27c0-4.9-2.6-7.4-7.9-7.4
			c-1.8,0-4,0.3-6.7,0.9v-1.2C290.2,15.6,294.5,13.8,299.2,13.8z M293.3,41.6l7.7,6.3V36.3L293.3,41.6z M316.6,66.1V25.5l-4.3,2.9
			v37.7H316.6z M318.9,39.2c2.2,2.2,5.1,3.3,8.7,3.4c3.1,0,5.9-1.1,8.3-3.4c-0.1-4.2-1.6-7.9-4.4-11.1c-2.8-3.2-6.4-4.9-10.7-5.1
			l-2,0.9V39.2z M318.9,54.6c2.5-1.4,5.3-2.2,8.4-2.4c2.9,0,5.8,0.8,8.6,2.5V42.1c-2.5,1.6-5.3,2.4-8.3,2.4c-3.4,0-6.3-0.8-8.7-2.4
			V54.6z M318.9,65.7c6.5,1,12.2,2.8,17,5.3V57.6c-2.8-2.3-5.9-3.4-9.2-3.4c-2.3,0.1-4.9,1-7.8,2.6V65.7z"/>
		<path class="st0" d="M370.2,31.6l13.8,5.1l2.7-2.2l0.6,0.5c-2.3,3.6-3.4,6.4-3.4,8.4v26.2c0,1.3,0.8,2.4,2.4,3.4l1.7-1.5l1.5,1.6
			l-8.9,7.8c-3.8-2.1-5.8-5.9-6-11.4L361.8,81h-0.9c-4.5-4.3-6.7-8.8-6.9-13.5c0-5.8,3.2-12.1,9.6-18.8l-4.7-13l1.8,0.1
			C364.5,36,367.7,34.6,370.2,31.6z M365.3,48.7l9.2,5.2V42.7l-13.4-5.3L365.3,48.7z M362.2,60.1c0,5.4,1.8,9.8,5.4,13.2l6.9-6.5
			V55.8l-9.6-5.3C363.2,53.5,362.2,56.7,362.2,60.1z"/>
		<path class="st0" d="M402.7,20.5c3-3.3,6.3-5,9.8-5.1l0.1,0.3c-3.1,2.5-4.6,5.8-4.6,10.1v42.7l6.7,4.6l2.5-2.2l1.4,1.3l-9,8.7
			c-3.8-3.6-8.5-6.3-14-7.9c1.8-1.8,2.8-4.5,2.8-7.9v-41c0-2.3-1.2-4.5-3.6-6.6l0.3-0.4c2.7,0.5,4.8,1.6,6.4,3.3H402.7z"/>
		<path class="st0" d="M437.1,31.6l13.8,5.1l2.7-2.2l0.6,0.5c-2.3,3.6-3.4,6.4-3.4,8.4v26.2c0,1.3,0.8,2.4,2.4,3.4l1.7-1.5l1.5,1.6
			l-8.9,7.8c-3.8-2.1-5.8-5.9-6-11.4L428.8,81h-0.9c-4.5-4.3-6.7-8.8-6.9-13.5c0-5.8,3.2-12.1,9.6-18.8l-4.7-13l1.8,0.1
			C431.5,36,434.6,34.6,437.1,31.6z M432.3,48.7l9.2,5.2V42.7l-13.4-5.3L432.3,48.7z M429.2,60.1c0,5.4,1.8,9.8,5.4,13.2l6.9-6.5
			V55.8l-9.6-5.3C430.1,53.5,429.2,56.7,429.2,60.1z M453.6,11.6c-4.5,5.9-10.4,10.8-17.8,14.8l-4-1.7c5.2-4.1,10.1-9.3,14.6-15.6
			L453.6,11.6z"/>
		<path class="st0" d="M474.2,31.6l10.2,7.1l-4.3,6.7l-8.4-5.8v29.5l8,4.1l4.2-3.4l1.3,1.5l-12,9.8c-3.8-3.9-8.4-6.2-13.7-7
			c1.9-1.5,2.9-4,2.9-7.6V39.8C467,38.1,471,35.3,474.2,31.6z"/>
		<path class="st0" d="M495.9,31.6l7.7,7.3l-2.6,3v27.7c0,1.5,0.8,2.7,2.5,3.6l1.6-1.5l1.5,1.6l-9,7.7c-4.2-1.8-6.4-5.4-6.4-11V41.8
			l-3-3.4L495.9,31.6z M505.3,16.5l-7.5,11.3H497l2.3-11.3H505.3z"/>
		<path class="st0" d="M526.4,31.6c5,4,10.1,6.5,15.3,7.6v34.2c-5.8,1.8-10.6,4.3-14.3,7.6c-4.9-3.6-10.8-6.3-17.8-8
			c1.9-1.2,2.9-4.2,2.9-8.9V40.1C517.9,38.8,522.5,35.9,526.4,31.6z M521.7,68.5l10.7,4.3V44.9l-10.7-4.7V68.5z"/>
	</g>
	<g>
		<path class="st0" d="M315.9,125.2c0.9-1.7,2.1-2.8,3.7-3.4l0.5,0.2c-0.7,0.9-1,2.4-1,4.6v34.1c-2.9,0.9-5.5,2-7.9,3.2
			c-2.4,1.2-4.5,2.7-6.4,4.4c-5.3-4-11.1-6.6-17.6-8c1.8-1.2,2.8-3.9,2.8-8v-25.2c3.4-0.8,6.1-2,8.2-3.6l-11.5-8.1v-10.6
			L315.9,125.2z M299.4,127.9v28.1l10.5,4.1v-28.7l-7.7-5.4L299.4,127.9z"/>
		<path class="st0" d="M343.2,119c5,4,10.1,6.5,15.3,7.6v34.2c-5.8,1.8-10.6,4.3-14.3,7.6c-4.9-3.6-10.8-6.3-17.8-8
			c1.9-1.2,2.9-4.2,2.9-8.9v-23.9C334.8,126.1,339.4,123.3,343.2,119z M338.6,155.8l10.7,4.3v-27.9l-10.7-4.7V155.8z"/>
		<path class="st0" d="M412.3,101.1c1.8,0,3.4,0.3,5,0.9c1.5,0.6,2.9,1.5,4,2.6c1.1,1.1,2,2.4,2.7,3.9c0.7,1.5,1,3.1,1,4.9l4.7-3.1
			v-9.2h2.3v7.7l10.9-7.8c2.1,1.6,3.9,2.9,5.4,4.1c1.5,1.2,2.6,2.1,3.4,2.9c5.8,5.3,8.6,10.8,8.6,16.5v32l-14.9,12.2
			c-5-2.1-9.5-3.5-13.5-4v16.6c-0.5-0.1-0.9-0.1-1.3-0.1c-0.3,0-0.7,0-1,0h-13.1c-0.5,0-0.9,0-1.3,0c-0.3,0-0.7,0-1,0.1v-18
			c-5.5,0.1-11.4,1.4-17.7,4l-0.6-0.9c3.6-6,9.7-10.2,18.1-12.5c-1.1-9.1-6.5-16.1-16.1-21v-0.4l16.3-11.6v-6.7
			c0-4.9-2.6-7.4-7.9-7.4c-1.8,0-4,0.3-6.7,0.9v-1.2C403.3,103,407.5,101.1,412.3,101.1z M406.4,128.9l7.7,6.3v-11.5L406.4,128.9z
			 M429.7,153v-40.2l-4.3,2.9V153H429.7z M432,126.6c2.2,2.2,5.1,3.3,8.7,3.4c3.1,0,5.9-1.1,8.3-3.4c-0.1-4.2-1.6-7.9-4.4-11.1
			c-2.8-3.2-6.4-4.9-10.7-5.1l-2,0.9V126.6z M432,142c2.5-1.4,5.3-2.2,8.4-2.4c2.9,0,5.8,0.8,8.6,2.5v-12.6
			c-2.5,1.6-5.3,2.4-8.3,2.4c-3.4,0-6.3-0.8-8.7-2.4V142z M432,153.1c6.5,1,12.2,2.8,17,5.3V145c-2.8-2.3-5.9-3.4-9.2-3.4
			c-2.3,0.1-4.9,1-7.8,2.6V153.1z"/>
		<path class="st0" d="M483.2,119l13.8,5.1l2.7-2.2l0.6,0.5c-2.3,3.6-3.4,6.4-3.4,8.4v26.2c0,1.3,0.8,2.4,2.4,3.4l1.7-1.5l1.5,1.6
			l-8.9,7.8c-3.8-2.1-5.8-5.9-6-11.4l-12.7,11.4H474c-4.5-4.3-6.7-8.8-6.9-13.5c0-5.8,3.2-12.1,9.6-18.8l-4.7-13l1.8,0.1
			C477.6,123.4,480.8,122,483.2,119z M482.7,101c1.2,0.2,2.6,0.5,4.2,0.9c1.6,0.4,3,0.7,4.2,0.9c1.2,0.2,2.3,0.3,3.1,0.4
			c1.1,0.1,1.9-0.1,2.4-0.6c0.3-0.3,0.8-1.1,1.2-2.3l2.2,0.6c-1.5,3.3-2.5,5.2-2.9,5.9c-1.5,2-3.3,2.9-5.3,2.9
			c-0.9-0.1-2-0.2-3.2-0.4c-1.2-0.2-2.7-0.5-4.3-1c-1.6-0.5-3.1-0.8-4.3-1c-1.2-0.2-2.3-0.3-3.2-0.4c-1.4-0.1-2.5,0.9-3.5,3.1
			l-2.1-0.6c1.2-2.8,2.2-4.8,3-6c1.4-2,3.3-2.9,5.4-2.8C480.4,100.7,481.5,100.8,482.7,101z M478.4,136l9.2,5.2v-11.2l-13.4-5.3
			L478.4,136z M475.3,147.4c0,5.4,1.8,9.8,5.4,13.2l6.9-6.5v-11.1l-9.6-5.3C476.2,140.8,475.3,144.1,475.3,147.4z"/>
		<path class="st0" d="M522.3,119c5,4,10.1,6.5,15.3,7.6v34.2c-5.8,1.8-10.6,4.3-14.3,7.6c-4.9-3.6-10.8-6.3-17.8-8
			c1.9-1.2,2.9-4.2,2.9-8.9v-23.9C513.9,126.1,518.5,123.3,522.3,119z M517.7,155.8l10.7,4.3v-27.9l-10.7-4.7V155.8z"/>
	</g>
	<g>
		<path class="st1" d="M184.1,2.8l7.1,16.2h25L226,5.2h-8.8c0,0,0.9,5.8-4.1,5.8c-4.3,0-3.5-6.5-3.5-6.5h-9.2c0,0,1.7,7.2-5,6.5
			c-4.7-0.4-2.1-8.1-2.1-8.1H184.1z"/>
		<path class="st2" d="M221.9,128.7v51.2h-38l0.2-1.8c0.5-4.4,3.2-8.2,7.3-9.9l5.9-2.6l-11-17.1l-3.4-7.4
			c-2.9-6.2,0.6-13.5,7.2-15.2l6.3-1.6l-10.1-26.5l-22.1,4.7v-9.4l20.9-4.2l-5.4-4l6.3-3.1l-4.2-3.3l5.6-4.2l-4.6-2.3
			c0,0,3.4-0.7,5.3-3.3c1.9-2.6,1.9-5.4,1.9-5.4s-5,2.1-9.4,0c-4.5-2.1-4.5-7.3-4.5-7.3s13.7,5.9,13.9-4.5s-13.4-4-13.4-4
			s-2.8-5.2-1.2-6.3c1.6-1.2,13.1-15.5,16-15.7c2.8-0.2,22.5-2.1,24.2-1.2c1.6,0.9,2.6,3.3,4,3.3s5.9,0.7,7.3-0.2
			c1.4-0.9,1.4-0.9,1.4-0.9s-0.5,6.3-4.2,7c-3.8,0.7-7,0.7-7,0.7s1.6,2.1,2.8,3.3c1.2,1.2,5.6,0.2,5.6,0.2s0.7,3.3-2.1,5.4
			s-5.6,2.1-5.6,2.1s0.9,4,4.5,4s6.1-2.1,6.1-2.1s0.2,5.9-3.5,7c-3.8,1.2-5.2,0.9-5.2,0.9s0.2,2.1,2.1,2.3s3.3-0.7,3.3-0.7
			s0.5,3.3-1.9,4.5c-2.3,1.2-4.9,0.9-4.9,0.9s1.6,0.9,1.6,2.8c0,1.9,0.5,57,0.5,57s1.4,0.5,1.9-2.3c0.5-2.8,0-25.4,0-25.4
			s-0.5-8.9,7.5-8.9c8,0,8.9,5.2,9.2,8.2c0.2,3.1,0,31.7,0,31.7s0,2.3-2.8,2.3s-3.5-2.3-3.5-4s0.2-29.6,0.2-29.6s-0.5-2.3-2.3-2.1
			c-1.9,0.2-2.3,2.1-2.1,3.1c0.2,0.9,0.2,21.4,0.2,21.4s0.5,6.6-1.2,8.9C225.7,127.6,221.9,128.7,221.9,128.7z"/>
		<circle class="st0" cx="205" cy="12.6" r="2"/>
		<path class="st0" d="M191.2,32.8c0.1,1,1,1.8,2.1,1.8c1.2,0,2.1-0.9,2.1-2.1c0-0.4-0.1-0.7-0.3-1
			C193.7,31.9,192.4,32.4,191.2,32.8z"/>
		<path class="st1" d="M57.5,2.8L50.3,19h-25L15.5,5.2h8.8c0,0-0.9,5.8,4.1,5.8c4.3,0,3.5-6.5,3.5-6.5h9.2c0,0-1.7,7.2,5,6.5
			c4.7-0.4,2.1-8.1,2.1-8.1H57.5z"/>
		<path class="st2" d="M19.6,128.7v51.2h38l-0.2-1.8c-0.5-4.4-3.2-8.2-7.3-9.9l-5.9-2.6l11-17.1l3.4-7.4c2.9-6.2-0.6-13.5-7.2-15.2
			l-6.3-1.6l10.1-26.5l22.1,4.7v-9.4l-20.9-4.2l5.4-4l-6.3-3.1l4.2-3.3l-5.6-4.2l4.6-2.3c0,0-3.4-0.7-5.3-3.3s-1.9-5.4-1.9-5.4
			s5,2.1,9.4,0c4.5-2.1,4.5-7.3,4.5-7.3s-13.7,5.9-13.9-4.5c-0.2-10.3,13.4-4,13.4-4s2.8-5.2,1.2-6.3s-13.1-15.5-16-15.7
			c-2.8-0.2-22.5-2.1-24.2-1.2c-1.6,0.9-2.6,3.3-4,3.3s-5.9,0.7-7.3-0.2c-1.4-0.9-1.4-0.9-1.4-0.9s0.5,6.3,4.2,7s7,0.7,7,0.7
			s-1.6,2.1-2.8,3.3c-1.2,1.2-5.6,0.2-5.6,0.2s-0.7,3.3,2.1,5.4s5.6,2.1,5.6,2.1s-0.9,4-4.5,4S13.3,47,13.3,47s-0.2,5.9,3.5,7
			C20.5,55.3,22,55,22,55s-0.2,2.1-2.1,2.3c-1.9,0.2-3.3-0.7-3.3-0.7s-0.5,3.3,1.9,4.5c2.3,1.2,4.9,0.9,4.9,0.9s-1.6,0.9-1.6,2.8
			c0,1.9-0.5,57-0.5,57s-1.4,0.5-1.9-2.3s0-25.4,0-25.4s0.5-8.9-7.5-8.9s-8.9,5.2-9.2,8.2c-0.2,3.1,0,31.7,0,31.7s0,2.3,2.8,2.3
			s3.5-2.3,3.5-4S8.8,94,8.8,94s0.5-2.3,2.3-2.1s2.3,2.1,2.1,3.1C13,95.9,13,116.3,13,116.3s-0.5,6.6,1.2,8.9
			C15.8,127.6,19.6,128.7,19.6,128.7z"/>
		<circle class="st0" cx="36.5" cy="12.6" r="2"/>
		<path class="st0" d="M50.3,32.8c-0.1,1-1,1.8-2.1,1.8c-1.2,0-2.1-0.9-2.1-2.1c0-0.4,0.1-0.7,0.3-1C47.8,31.9,49.2,32.4,50.3,32.8z
			"/>
		<path class="st1" d="M77.4,57.4v68.4c0,7.8,4.9,14.9,12.3,17.6l18.9,5.2c3.3,1.1,6.5,2.4,8.1,4.7l6.1,7.1l5.8-6.4
			c1.5-2.3,5.3-5.5,9.8-7.2l13.9-4c8.4-2,14.3-9.4,14.3-18.1V57.4H77.4z M161.8,98.5h-36.6V62.1h36.6V98.5z M120.6,62.1v36.4H82
			V62.1H120.6z M110.1,144.1L91.2,139c-5.5-2-9.2-7.3-9.2-13.2v-22.6h38.5v47.5C118.2,147.2,114.1,145.5,110.1,144.1z M151,138.1
			l-14.3,4.2c-4.5,1.7-8.9,4.9-11.4,8.2v-47.3h36.6v21.4C161.8,131.1,157.4,136.7,151,138.1z"/>
		<g>
			<rect x="125.3" y="62.1" class="st3" width="36.6" height="36.4"/>
			<rect x="82" y="62.1" class="st3" width="38.5" height="36.4"/>
			<path class="st3" d="M110.1,144.1L91.2,139c-5.5-2-9.2-7.3-9.2-13.2v-22.6h38.5v47.5C118.2,147.2,114.1,145.5,110.1,144.1z"/>
			<path class="st3" d="M151,138.1l-14.3,4.2c-4.5,1.7-8.9,4.9-11.4,8.2v-47.3h36.6v21.4C161.8,131.1,157.4,136.7,151,138.1z"/>
		</g>
		<path class="st0" d="M140.7,35.8c0.5,1.2,0.7,2.5,0.2,3.9c-0.6,1.7-2.1,3-3.8,3.4c-3.4,0.7-6.4-1.9-6.4-5.1c0-2.1,1.3-4,3.1-4.8
			c-2.7-0.8-5.5-1.4-8.2-1.6c1.2,1.1,1.9,2.8,1.6,4.7c-0.3,2.1-2,3.9-4.1,4.3c-3.4,0.7-6.4-1.9-6.4-5.1c0-1.4,0.6-2.7,1.5-3.7
			c-3,0.3-5.8,0.9-8.5,1.8c1.7,1,2.8,3.1,2.5,5.3c-0.3,2.1-2,3.9-4.1,4.3c-3.4,0.7-6.4-1.9-6.4-5.1c0-0.3,0-0.6,0.1-0.9
			c-1,0.6-2,1.3-2.9,2.1l5.4,12.6c0.6,1.5,2.3,2.2,3.8,1.6c3.7-1.3,9.1-2.2,15.2-2.2c4.4,0,8.3,0.8,11.3,2.1c1.5,0.6,3.2,0,3.9-1.5
			L145,38C143.7,37.3,142.2,36.6,140.7,35.8z"/>
		<g>
			<path class="st0" d="M94,66.9c0.6,0,1.2,0.1,1.8,0.3c0.6,0.2,1,0.5,1.5,0.9c0.4,0.4,0.7,0.9,1,1.4c0.2,0.5,0.4,1.1,0.4,1.8
				l1.7-1.1v-3.4h0.8v2.8l4-2.8c0.8,0.6,1.4,1.1,2,1.5c0.5,0.4,1,0.8,1.3,1c2.1,1.9,3.1,3.9,3.1,6V87l-5.4,4.4
				c-1.8-0.8-3.4-1.3-4.9-1.5v6c-0.2,0-0.3,0-0.5,0c-0.1,0-0.2,0-0.4,0h-4.8c-0.2,0-0.3,0-0.5,0c-0.1,0-0.2,0-0.4,0v-6.5
				c-2,0-4.1,0.5-6.4,1.5l-0.2-0.3c1.3-2.2,3.5-3.7,6.6-4.6c-0.4-3.3-2.4-5.8-5.9-7.6v-0.1l5.9-4.2v-2.4c0-1.8-1-2.7-2.9-2.7
				c-0.6,0-1.5,0.1-2.4,0.3v-0.4C90.8,67.5,92.3,66.9,94,66.9z M91.9,77l2.8,2.3v-4.2L91.9,77z M100.4,85.7V71.1l-1.6,1v13.6H100.4z
				 M101.2,76.1c0.8,0.8,1.9,1.2,3.2,1.2c1.1,0,2.1-0.4,3-1.2c-0.1-1.5-0.6-2.9-1.6-4c-1-1.2-2.3-1.8-3.9-1.9l-0.7,0.3V76.1z
				 M101.2,81.7c0.9-0.5,1.9-0.8,3.1-0.9c1,0,2.1,0.3,3.1,0.9v-4.6c-0.9,0.6-1.9,0.9-3,0.9c-1.2,0-2.3-0.3-3.2-0.9V81.7z
				 M101.2,85.7c2.4,0.4,4.4,1,6.2,1.9v-4.9c-1-0.8-2.1-1.2-3.4-1.2c-0.8,0.1-1.8,0.4-2.8,0.9V85.7z"/>
		</g>
		<g>
			<path class="st0" d="M133.7,107.4c0.6,0,1.2,0.1,1.8,0.3c0.6,0.2,1,0.5,1.5,0.9c0.4,0.4,0.7,0.9,1,1.4c0.2,0.5,0.4,1.1,0.4,1.8
				l1.7-1.1v-3.4h0.8v2.8l4-2.8c0.8,0.6,1.4,1.1,2,1.5c0.5,0.4,1,0.8,1.3,1c2.1,1.9,3.1,3.9,3.1,6v11.6l-5.4,4.4
				c-1.8-0.8-3.4-1.3-4.9-1.5v6c-0.2,0-0.3,0-0.5,0c-0.1,0-0.2,0-0.4,0h-4.8c-0.2,0-0.3,0-0.5,0c-0.1,0-0.2,0-0.4,0V130
				c-2,0-4.1,0.5-6.4,1.5l-0.2-0.3c1.3-2.2,3.5-3.7,6.6-4.6c-0.4-3.3-2.4-5.8-5.9-7.6v-0.1l5.9-4.2v-2.4c0-1.8-1-2.7-2.9-2.7
				c-0.6,0-1.5,0.1-2.4,0.3v-0.4C130.5,108,132,107.4,133.7,107.4z M131.6,117.5l2.8,2.3v-4.2L131.6,117.5z M140.1,126.2v-14.5
				l-1.6,1v13.5H140.1z M140.9,116.6c0.8,0.8,1.9,1.2,3.2,1.2c1.1,0,2.1-0.4,3-1.2c-0.1-1.5-0.6-2.9-1.6-4c-1-1.2-2.3-1.8-3.9-1.9
				l-0.7,0.3V116.6z M140.9,122.2c0.9-0.5,1.9-0.8,3.1-0.9c1,0,2.1,0.3,3.1,0.9v-4.6c-0.9,0.6-1.9,0.9-3,0.9c-1.2,0-2.3-0.3-3.2-0.9
				V122.2z M140.9,126.2c2.4,0.4,4.4,1,6.2,1.9v-4.9c-1-0.8-2.1-1.2-3.4-1.2c-0.8,0.1-1.8,0.4-2.8,0.9V126.2z"/>
		</g>
		<g>
			<g>
				<path class="st4" d="M113.4,129.6c-0.4,0.4-0.6,0.9-0.5,1.4c0.5,0.1,1.1,0,1.5-0.4c0.4-0.4,0.6-0.9,0.5-1.4
					C114.3,129,113.8,129.2,113.4,129.6z"/>
			</g>
			<g>
				<path class="st4" d="M113.6,127.8c-0.4,0.4-0.6,0.9-0.5,1.4c0.5,0.1,1.1,0,1.4-0.4s0.6-0.9,0.5-1.4
					C114.5,127.3,114,127.5,113.6,127.8z"/>
			</g>
			<g>
				<path class="st4" d="M113.2,126.2c-0.4,0.3-0.5,0.8-0.4,1.3c0.5,0.1,0.9,0,1.3-0.4c0.4-0.3,0.5-0.8,0.4-1.3
					C114,125.8,113.5,125.9,113.2,126.2z"/>
			</g>
			<g>
				<path class="st4" d="M113.2,123.9c-0.4,0.4-0.6,1-0.5,1.6c0.6,0.1,1.2,0,1.6-0.5c0.4-0.4,0.6-1,0.5-1.6
					C114.2,123.3,113.6,123.5,113.2,123.9z"/>
			</g>
			<g>
				<path class="st4" d="M112.8,122.2c-0.4,0.4-0.6,1-0.5,1.5c0.5,0.1,1.1,0,1.5-0.4c0.4-0.4,0.6-1,0.5-1.5
					C113.7,121.7,113.2,121.8,112.8,122.2z"/>
			</g>
			<g>
				<path class="st4" d="M112.6,120.7c-0.4,0.4-0.6,1-0.5,1.5c0.5,0.1,1.1,0,1.5-0.4c0.4-0.4,0.6-1,0.5-1.5
					C113.5,120.2,113,120.3,112.6,120.7z"/>
			</g>
			<g>
				<path class="st4" d="M112.2,119.5c-0.3,0.3-0.5,0.8-0.4,1.3c0.4,0.1,0.9,0,1.3-0.4c0.3-0.3,0.5-0.8,0.4-1.3
					C113,119.1,112.5,119.2,112.2,119.5z"/>
			</g>
			<g>
				<path class="st4" d="M111.9,118.1c-0.3,0.3-0.5,0.8-0.4,1.3c0.4,0.1,0.9,0,1.3-0.4c0.3-0.3,0.5-0.8,0.4-1.3
					C112.7,117.6,112.2,117.7,111.9,118.1z"/>
			</g>
			<g>
				<path class="st4" d="M111.5,116.7c-0.3,0.4-0.4,0.9-0.3,1.3c0.5,0,0.9-0.1,1.2-0.5c0.3-0.4,0.4-0.9,0.3-1.3
					C112.3,116.2,111.8,116.3,111.5,116.7z"/>
			</g>
			<g>
				<path class="st4" d="M111.1,115.4c-0.3,0.4-0.4,0.8-0.2,1.2c0.4,0,0.9-0.1,1.1-0.5c0.3-0.4,0.4-0.8,0.2-1.2
					C111.9,114.8,111.4,115,111.1,115.4z"/>
			</g>
			<g>
				<path class="st4" d="M110.7,114.1c-0.2,0.4-0.3,0.8-0.1,1.2c0.4,0,0.8-0.2,1.1-0.6c0.2-0.4,0.3-0.8,0.1-1.2
					C111.3,113.5,110.9,113.7,110.7,114.1z"/>
			</g>
			<g>
				<path class="st4" d="M110.4,112.4c-0.2,0.4-0.3,0.8-0.1,1.2c0.4,0,0.8-0.2,1.1-0.6s0.3-0.8,0.1-1.2
					C111,111.8,110.6,112,110.4,112.4z"/>
			</g>
			<g>
				<path class="st4" d="M109.8,111.2c-0.2,0.4-0.2,0.8,0,1.2c0.4-0.1,0.8-0.3,1-0.7c0.2-0.4,0.2-0.8,0-1.2
					C110.3,110.5,110,110.8,109.8,111.2z"/>
			</g>
			<g>
				<path class="st4" d="M109.4,109.8c-0.2,0.4-0.2,0.8,0,1.2c0.4-0.1,0.8-0.3,1-0.7c0.2-0.4,0.2-0.8,0-1.2
					C109.9,109.2,109.5,109.4,109.4,109.8z"/>
			</g>
			<g>
				<path class="st4" d="M108.8,108.7c-0.1,0.4,0,0.8,0.3,1.1c0.4-0.1,0.6-0.4,0.7-0.8c0.1-0.4,0-0.8-0.3-1.1
					C109.2,108,108.9,108.3,108.8,108.7z"/>
			</g>
			<g>
				<path class="st4" d="M111.8,130.1c0.5,0.2,0.8,0.6,0.9,1.1c-0.4,0.3-0.9,0.3-1.4,0.1c-0.5-0.2-0.8-0.6-0.9-1.1
					C110.8,130,111.3,129.9,111.8,130.1z"/>
			</g>
			<g>
				<path class="st4" d="M111.6,128.5c0.5,0.2,0.8,0.6,0.9,1.1c-0.4,0.3-0.9,0.3-1.4,0.1c-0.5-0.2-0.8-0.6-0.9-1.1
					C110.7,128.4,111.2,128.3,111.6,128.5z"/>
			</g>
			<g>
				<path class="st4" d="M111.6,126.8c0.5,0.2,0.8,0.6,0.9,1.1c-0.4,0.3-0.9,0.3-1.4,0.1c-0.5-0.2-0.8-0.6-0.9-1.1
					C110.6,126.7,111.1,126.6,111.6,126.8z"/>
			</g>
			<g>
				<path class="st4" d="M111.3,124.8c0.6,0.2,1,0.7,1.1,1.3c-0.5,0.3-1.1,0.4-1.7,0.2c-0.6-0.2-1-0.7-1.1-1.3
					C110.1,124.7,110.7,124.6,111.3,124.8z"/>
			</g>
			<g>
				<path class="st4" d="M111.2,123.5c0.5,0.2,0.9,0.7,1,1.2c-0.4,0.3-1,0.4-1.5,0.2s-0.9-0.7-1-1.2
					C110.1,123.4,110.6,123.3,111.2,123.5z"/>
			</g>
			<g>
				<path class="st4" d="M111,122.1c0.5,0.2,0.9,0.7,1,1.2c-0.4,0.3-1,0.4-1.5,0.2c-0.5-0.2-0.9-0.7-1-1.2
					C109.9,121.9,110.5,121.8,111,122.1z"/>
			</g>
			<g>
				<path class="st4" d="M110.7,120.7c0.4,0.2,0.7,0.6,0.8,1c-0.4,0.2-0.9,0.3-1.3,0.1c-0.4-0.2-0.7-0.6-0.8-1
					C109.8,120.5,110.3,120.5,110.7,120.7z"/>
			</g>
			<g>
				<path class="st4" d="M110.5,119.2c0.4,0.2,0.7,0.6,0.8,1c-0.4,0.2-0.9,0.3-1.3,0.1c-0.4-0.2-0.7-0.6-0.8-1
					C109.6,119.1,110.1,119,110.5,119.2z"/>
			</g>
			<g>
				<path class="st4" d="M110.4,117.7c0.4,0.2,0.7,0.7,0.7,1.1c-0.4,0.2-0.9,0.2-1.3,0c-0.4-0.2-0.7-0.7-0.7-1.1
					C109.5,117.5,110,117.5,110.4,117.7z"/>
			</g>
			<g>
				<path class="st4" d="M110.2,116.4c0.4,0.2,0.6,0.6,0.7,1c-0.4,0.2-0.8,0.2-1.2,0s-0.6-0.6-0.7-1
					C109.4,116.1,109.8,116.1,110.2,116.4z"/>
			</g>
			<g>
				<path class="st4" d="M110,114.8c0.4,0.3,0.6,0.7,0.6,1.1c-0.4,0.1-0.9,0.1-1.2-0.2c-0.4-0.3-0.6-0.7-0.6-1.1
					C109.1,114.5,109.6,114.5,110,114.8z"/>
			</g>
			<g>
				<path class="st4" d="M109.6,113.4c0.4,0.3,0.6,0.7,0.6,1.1c-0.4,0.1-0.9,0.1-1.2-0.2c-0.4-0.3-0.6-0.7-0.6-1.1
					C108.8,113.1,109.3,113.2,109.6,113.4z"/>
			</g>
			<g>
				<path class="st4" d="M109.4,111.9c0.3,0.3,0.5,0.7,0.4,1.1c-0.4,0.1-0.8,0-1.2-0.3c-0.3-0.3-0.5-0.7-0.4-1.1
					C108.7,111.6,109.1,111.7,109.4,111.9z"/>
			</g>
			<g>
				<path class="st4" d="M108.9,110.3c0.3,0.3,0.5,0.7,0.4,1.1c-0.4,0.1-0.8,0-1.2-0.3c-0.3-0.3-0.5-0.7-0.4-1.1
					C108.2,109.9,108.6,110,108.9,110.3z"/>
			</g>
			<g>
				<path class="st4" d="M108.5,108.6c0.2,0.3,0.3,0.7,0.2,1.1c-0.4,0-0.8-0.2-1-0.5s-0.3-0.7-0.2-1.1
					C107.9,108.1,108.3,108.3,108.5,108.6z"/>
			</g>
			<path class="st4" d="M113,141c0,0,0-2.1-0.1-5.2c-0.1-3.1-0.4-7.2-0.8-11.3c-0.5-4.1-1.3-8.2-2.1-11.2c-0.8-3-1.5-4.9-1.5-4.9
				l0,0c0,0,0.8,1.9,1.6,4.9c0.8,3,1.7,7.1,2.2,11.2c0.6,4.1,0.8,8.3,0.8,11.4C113.2,138.9,113,141,113,141L113,141z"/>
		</g>
		<g>
			<g>
				<path class="st4" d="M108.8,129.3c-0.1,0.6,0.1,1.1,0.5,1.4c0.5-0.2,0.8-0.7,0.9-1.2s-0.1-1.1-0.5-1.4
					C109.2,128.3,108.8,128.8,108.8,129.3z"/>
			</g>
			<g>
				<path class="st4" d="M107.9,127.8c-0.1,0.5,0.1,1.1,0.5,1.4c0.5-0.2,0.8-0.7,0.9-1.2s-0.1-1.1-0.5-1.4
					C108.4,126.8,108,127.3,107.9,127.8z"/>
			</g>
			<g>
				<path class="st4" d="M106.6,126.8c-0.1,0.5,0.1,1,0.4,1.3c0.4-0.2,0.7-0.6,0.8-1.1c0.1-0.5-0.1-1-0.4-1.3
					C107,125.9,106.7,126.3,106.6,126.8z"/>
			</g>
			<g>
				<path class="st4" d="M105.2,124.9c-0.1,0.6,0.1,1.2,0.5,1.6c0.5-0.2,0.9-0.7,1-1.4s-0.1-1.2-0.5-1.6
					C105.7,123.8,105.3,124.3,105.2,124.9z"/>
			</g>
			<g>
				<path class="st4" d="M103.9,123.8c-0.1,0.6,0.1,1.1,0.5,1.5c0.5-0.2,0.8-0.7,0.9-1.2s-0.1-1.1-0.5-1.5
					C104.4,122.8,104,123.2,103.9,123.8z"/>
			</g>
			<g>
				<path class="st4" d="M102.9,122.7c-0.1,0.6,0.1,1.1,0.5,1.5c0.5-0.2,0.8-0.7,0.9-1.2c0.1-0.6-0.1-1.1-0.5-1.5
					C103.3,121.7,103,122.2,102.9,122.7z"/>
			</g>
			<g>
				<path class="st4" d="M101.8,121.9c-0.1,0.5,0.1,0.9,0.4,1.2c0.4-0.2,0.7-0.6,0.8-1.1s-0.1-0.9-0.4-1.2
					C102.2,121.1,101.9,121.5,101.8,121.9z"/>
			</g>
			<g>
				<path class="st4" d="M100.7,121c-0.1,0.5,0.1,0.9,0.4,1.2c0.4-0.2,0.7-0.6,0.8-1.1c0.1-0.5-0.1-0.9-0.4-1.2
					C101.1,120.1,100.8,120.5,100.7,121z"/>
			</g>
			<g>
				<path class="st4" d="M99.6,120.1c0,0.5,0.2,0.9,0.6,1.2c0.4-0.2,0.7-0.7,0.7-1.1c0-0.5-0.2-0.9-0.6-1.2
					C99.9,119.2,99.6,119.6,99.6,120.1z"/>
			</g>
			<g>
				<path class="st4" d="M98.5,119.2c0,0.5,0.2,0.9,0.5,1.1c0.4-0.2,0.6-0.6,0.6-1.1c0-0.5-0.2-0.9-0.5-1.1
					C98.8,118.4,98.5,118.8,98.5,119.2z"/>
			</g>
			<g>
				<path class="st4" d="M97.4,118.4c0,0.5,0.3,0.8,0.7,1.1c0.3-0.3,0.5-0.7,0.5-1.1c0-0.5-0.3-0.8-0.7-1.1
					C97.6,117.6,97.4,118,97.4,118.4z"/>
			</g>
			<g>
				<path class="st4" d="M96.1,117.3c0,0.5,0.3,0.8,0.7,1.1c0.3-0.3,0.5-0.7,0.5-1.1c0-0.5-0.3-0.8-0.7-1.1
					C96.3,116.5,96.1,116.9,96.1,117.3z"/>
			</g>
			<g>
				<path class="st4" d="M94.9,116.7c0.1,0.4,0.4,0.8,0.7,0.9c0.3-0.3,0.4-0.7,0.4-1.1s-0.4-0.8-0.7-0.9
					C95,115.8,94.9,116.2,94.9,116.7z"/>
			</g>
			<g>
				<path class="st4" d="M93.8,115.8c0.1,0.4,0.4,0.8,0.7,0.9c0.3-0.3,0.4-0.7,0.4-1.1s-0.4-0.8-0.7-0.9
					C93.9,115,93.7,115.4,93.8,115.8z"/>
			</g>
			<g>
				<path class="st4" d="M92.6,115.2c0.2,0.4,0.5,0.6,0.9,0.7c0.2-0.3,0.3-0.7,0.1-1.1c-0.2-0.4-0.5-0.6-0.9-0.7
					C92.5,114.4,92.5,114.8,92.6,115.2z"/>
			</g>
			<g>
				<path class="st4" d="M91.5,115c0.3,0.3,0.7,0.3,1.1,0.2c0-0.4-0.1-0.8-0.4-1c-0.3-0.3-0.7-0.3-1.1-0.2
					C91,114.3,91.2,114.7,91.5,115z"/>
			</g>
			<g>
				<path class="st4" d="M107.8,130.7c0.5-0.1,1,0,1.4,0.3c-0.2,0.5-0.6,0.8-1.1,1c-0.5,0.1-1,0-1.4-0.3
					C106.9,131.2,107.3,130.9,107.8,130.7z"/>
			</g>
			<g>
				<path class="st4" d="M106.7,129.5c0.5-0.1,1,0,1.4,0.3c-0.2,0.4-0.5,0.8-1,0.9s-1,0-1.4-0.3C105.9,130,106.3,129.7,106.7,129.5z
					"/>
			</g>
			<g>
				<path class="st4" d="M105.6,128.2c0.5-0.1,1,0,1.4,0.3c-0.2,0.5-0.5,0.8-1,0.9c-0.5,0.1-1,0-1.4-0.3
					C104.8,128.7,105.1,128.3,105.6,128.2z"/>
			</g>
			<g>
				<path class="st4" d="M104.3,126.8c0.6-0.2,1.2,0,1.6,0.4c-0.2,0.5-0.7,1-1.3,1.1c-0.6,0.2-1.2,0-1.6-0.4
					C103.2,127.3,103.7,126.9,104.3,126.8z"/>
			</g>
			<g>
				<path class="st4" d="M103.4,125.8c0.5-0.1,1.1,0,1.5,0.4c-0.2,0.5-0.6,0.9-1.1,1c-0.5,0.1-1.1,0-1.5-0.4
					C102.4,126.3,102.8,125.9,103.4,125.8z"/>
			</g>
			<g>
				<path class="st4" d="M102.4,124.7c0.5-0.1,1.1,0,1.5,0.4c-0.2,0.5-0.6,0.9-1.1,1s-1.1,0-1.5-0.4
					C101.4,125.2,101.8,124.8,102.4,124.7z"/>
			</g>
			<g>
				<path class="st4" d="M101.3,123.7c0.5-0.1,0.9,0,1.3,0.3c-0.2,0.4-0.5,0.8-1,0.9c-0.5,0.1-0.9,0-1.3-0.3
					C100.5,124.2,100.9,123.9,101.3,123.7z"/>
			</g>
			<g>
				<path class="st4" d="M100.3,122.7c0.5-0.1,0.9,0,1.3,0.3c-0.2,0.4-0.5,0.8-1,0.9s-0.9,0-1.3-0.3
					C99.5,123.1,99.8,122.8,100.3,122.7z"/>
			</g>
			<g>
				<path class="st4" d="M99.3,121.6c0.5-0.1,0.9,0.1,1.2,0.5c-0.2,0.4-0.6,0.7-1.1,0.8s-0.9-0.1-1.2-0.5
					C98.4,121.9,98.8,121.6,99.3,121.6z"/>
			</g>
			<g>
				<path class="st4" d="M98.4,120.6c0.4-0.1,0.9,0.1,1.2,0.4c-0.2,0.4-0.6,0.7-1,0.7c-0.4,0.1-0.9-0.1-1.2-0.4
					C97.6,120.9,97.9,120.6,98.4,120.6z"/>
			</g>
			<g>
				<path class="st4" d="M97.2,119.5c0.5,0,0.9,0.2,1.1,0.6c-0.2,0.4-0.6,0.6-1.1,0.6c-0.5,0-0.9-0.2-1.1-0.6
					C96.4,119.7,96.8,119.5,97.2,119.5z"/>
			</g>
			<g>
				<path class="st4" d="M96.2,118.6c0.5,0,0.9,0.2,1.1,0.6c-0.2,0.4-0.6,0.6-1.1,0.6c-0.5,0-0.9-0.2-1.1-0.6
					C95.3,118.8,95.7,118.6,96.2,118.6z"/>
			</g>
			<g>
				<path class="st4" d="M95.1,117.5c0.4,0,0.8,0.3,1,0.7c-0.3,0.3-0.7,0.5-1.1,0.5s-0.8-0.3-1-0.7
					C94.3,117.6,94.7,117.4,95.1,117.5z"/>
			</g>
			<g>
				<path class="st4" d="M93.7,116.4c0.4,0,0.8,0.3,1,0.7c-0.3,0.3-0.7,0.5-1.1,0.5s-0.8-0.3-1-0.7
					C92.9,116.6,93.3,116.4,93.7,116.4z"/>
			</g>
			<g>
				<path class="st4" d="M92.4,115.4c0.4,0.1,0.7,0.4,0.8,0.8c-0.3,0.2-0.7,0.3-1.1,0.2c-0.4-0.1-0.7-0.4-0.8-0.8
					C91.6,115.3,92,115.3,92.4,115.4z"/>
			</g>
			<path class="st4" d="M115.2,138.8c0,0-1.2-1.7-3.1-4.1c-2-2.4-4.6-5.6-7.4-8.6c-2.8-3-5.9-5.8-8.3-7.8c-2.4-2-4.1-3.1-4.1-3.1
				l0,0c0,0,1.8,1.1,4.2,3c2.5,1.9,5.6,4.7,8.4,7.7c2.9,3,5.6,6.2,7.4,8.7C114.2,137,115.3,138.7,115.2,138.8L115.2,138.8z"/>
		</g>
		<g>
			<g>
				<path class="st4" d="M107.5,133.8c0.2,0.5,0.6,0.8,1.1,0.8c0.2-0.4,0.3-0.9,0-1.4c-0.2-0.5-0.6-0.8-1.1-0.8
					C107.3,132.8,107.3,133.3,107.5,133.8z"/>
			</g>
			<g>
				<path class="st4" d="M106.1,133.1c0.2,0.5,0.6,0.8,1.1,0.8c0.2-0.4,0.3-0.9,0-1.4c-0.2-0.5-0.6-0.8-1.1-0.8
					C105.9,132.1,105.8,132.6,106.1,133.1z"/>
			</g>
			<g>
				<path class="st4" d="M104.5,133c0.2,0.4,0.6,0.7,1,0.7c0.2-0.4,0.2-0.8,0-1.2s-0.6-0.7-1-0.7C104.4,132.1,104.3,132.6,104.5,133
					z"/>
			</g>
			<g>
				<path class="st4" d="M102.5,132.3c0.2,0.5,0.7,0.8,1.2,0.9c0.3-0.5,0.3-1,0.1-1.5c-0.2-0.5-0.7-0.8-1.2-0.9
					C102.3,131.2,102.3,131.8,102.5,132.3z"/>
			</g>
			<g>
				<path class="st4" d="M101,132.1c0.2,0.5,0.7,0.8,1.1,0.8c0.2-0.4,0.3-0.9,0.1-1.4c-0.2-0.5-0.7-0.8-1.1-0.8
					C100.8,131.2,100.7,131.7,101,132.1z"/>
			</g>
			<g>
				<path class="st4" d="M99.6,131.9c0.2,0.5,0.7,0.8,1.1,0.8c0.2-0.4,0.3-0.9,0.1-1.4s-0.7-0.8-1.1-0.8
					C99.4,130.9,99.4,131.4,99.6,131.9z"/>
			</g>
			<g>
				<path class="st4" d="M98.4,131.9c0.2,0.4,0.6,0.7,1,0.7c0.2-0.4,0.2-0.8,0-1.2c-0.2-0.4-0.6-0.7-1-0.7
					C98.3,131,98.2,131.5,98.4,131.9z"/>
			</g>
			<g>
				<path class="st4" d="M97.1,131.7c0.2,0.4,0.6,0.7,1,0.7c0.2-0.4,0.2-0.8,0-1.2c-0.2-0.4-0.6-0.7-1-0.7
					C96.9,130.9,96.9,131.3,97.1,131.7z"/>
			</g>
			<g>
				<path class="st4" d="M95.8,131.6c0.2,0.4,0.6,0.6,1,0.6c0.2-0.4,0.1-0.8-0.1-1.2c-0.2-0.4-0.6-0.6-1-0.6
					C95.6,130.8,95.6,131.3,95.8,131.6z"/>
			</g>
			<g>
				<path class="st4" d="M94.5,131.5c0.2,0.4,0.6,0.5,1,0.6c0.2-0.4,0.1-0.8-0.1-1.1c-0.2-0.4-0.6-0.5-1-0.6
					C94.3,130.8,94.3,131.2,94.5,131.5z"/>
			</g>
			<g>
				<path class="st4" d="M93.3,131.5c0.3,0.3,0.7,0.5,1,0.4c0.1-0.4,0-0.8-0.2-1.1c-0.3-0.3-0.7-0.5-1-0.4
					C92.9,130.8,93,131.2,93.3,131.5z"/>
			</g>
			<g>
				<path class="st4" d="M91.8,131.4c0.3,0.3,0.7,0.5,1,0.4c0.1-0.4,0-0.8-0.2-1.1c-0.3-0.3-0.7-0.5-1-0.4
					C91.4,130.6,91.5,131,91.8,131.4z"/>
			</g>
			<g>
				<path class="st4" d="M90.5,131.5c0.3,0.3,0.7,0.4,1,0.3c0.1-0.4,0-0.8-0.3-1c-0.3-0.3-0.7-0.4-1-0.3
					C90.1,130.8,90.2,131.2,90.5,131.5z"/>
			</g>
			<g>
				<path class="st4" d="M89.2,131.5c0.3,0.3,0.7,0.4,1,0.3c0.1-0.4,0-0.8-0.3-1c-0.3-0.3-0.7-0.4-1-0.3
					C88.8,130.8,88.9,131.2,89.2,131.5z"/>
			</g>
			<g>
				<path class="st4" d="M88,131.6c0.3,0.2,0.7,0.2,1,0.1c0-0.3-0.2-0.7-0.5-0.9c-0.3-0.2-0.7-0.2-1-0.1
					C87.5,131.1,87.7,131.4,88,131.6z"/>
			</g>
			<g>
				<path class="st4" d="M87,132c0.4,0,0.7-0.1,0.9-0.4c-0.2-0.3-0.5-0.5-0.8-0.6s-0.7,0.1-0.9,0.4C86.3,131.8,86.6,132,87,132z"/>
			</g>
			<g>
				<path class="st4" d="M107.5,135.3c0.3-0.4,0.8-0.5,1.2-0.5c0.1,0.4,0,0.9-0.3,1.3c-0.3,0.4-0.8,0.5-1.2,0.5
					C107.1,136.2,107.2,135.7,107.5,135.3z"/>
			</g>
			<g>
				<path class="st4" d="M106.1,135c0.3-0.4,0.8-0.5,1.2-0.5c0.1,0.4,0,0.9-0.3,1.2c-0.3,0.4-0.8,0.5-1.2,0.5
					C105.7,135.8,105.8,135.3,106.1,135z"/>
			</g>
			<g>
				<path class="st4" d="M104.5,134.5c0.3-0.4,0.8-0.5,1.2-0.5c0.1,0.4,0,0.9-0.3,1.3c-0.3,0.4-0.8,0.5-1.2,0.5
					C104.1,135.4,104.2,134.9,104.5,134.5z"/>
			</g>
			<g>
				<path class="st4" d="M102.8,134.2c0.4-0.4,0.9-0.6,1.4-0.6c0.1,0.5,0,1.1-0.4,1.5c-0.4,0.4-0.9,0.6-1.4,0.6
					C102.3,135.2,102.4,134.6,102.8,134.2z"/>
			</g>
			<g>
				<path class="st4" d="M101.6,133.9c0.3-0.4,0.8-0.6,1.3-0.5c0.1,0.5,0,1-0.3,1.4c-0.3,0.4-0.8,0.6-1.3,0.5
					C101.1,134.8,101.2,134.3,101.6,133.9z"/>
			</g>
			<g>
				<path class="st4" d="M100.3,133.6c0.3-0.4,0.8-0.6,1.3-0.5c0.1,0.5,0,1-0.3,1.4c-0.3,0.4-0.8,0.6-1.3,0.5
					C99.8,134.6,99.9,134,100.3,133.6z"/>
			</g>
			<g>
				<path class="st4" d="M99,133.5c0.3-0.3,0.7-0.5,1.1-0.4c0.1,0.4,0,0.8-0.3,1.2c-0.3,0.3-0.7,0.5-1.1,0.4
					C98.6,134.2,98.7,133.8,99,133.5z"/>
			</g>
			<g>
				<path class="st4" d="M97.6,133.2c0.3-0.3,0.7-0.5,1.1-0.4c0.1,0.4,0,0.8-0.3,1.2c-0.3,0.3-0.7,0.5-1.1,0.4
					C97.3,134,97.4,133.6,97.6,133.2z"/>
			</g>
			<g>
				<path class="st4" d="M96.4,132.9c0.3-0.3,0.8-0.4,1.2-0.3c0.1,0.4-0.1,0.8-0.4,1.1s-0.8,0.4-1.2,0.3
					C95.9,133.6,96,133.2,96.4,132.9z"/>
			</g>
			<g>
				<path class="st4" d="M95.1,132.6c0.3-0.3,0.7-0.4,1.1-0.3c0.1,0.4-0.1,0.8-0.4,1.1s-0.7,0.4-1.1,0.3
					C94.7,133.3,94.8,132.9,95.1,132.6z"/>
			</g>
			<g>
				<path class="st4" d="M93.7,132.4c0.3-0.2,0.8-0.3,1.1-0.2c0,0.4-0.2,0.8-0.5,1c-0.3,0.2-0.8,0.3-1.1,0.2
					C93.2,133,93.4,132.6,93.7,132.4z"/>
			</g>
			<g>
				<path class="st4" d="M92.4,132.3c0.3-0.2,0.8-0.3,1.1-0.2c0,0.4-0.2,0.8-0.5,1c-0.3,0.2-0.8,0.3-1.1,0.2
					C91.9,132.9,92.1,132.5,92.4,132.3z"/>
			</g>
			<g>
				<path class="st4" d="M91.1,132c0.3-0.2,0.7-0.2,1.1,0c0,0.4-0.2,0.7-0.6,0.9c-0.3,0.2-0.7,0.2-1.1,0
					C90.5,132.6,90.7,132.2,91.1,132z"/>
			</g>
			<g>
				<path class="st4" d="M89.5,132c0.3-0.2,0.7-0.2,1.1,0c0,0.4-0.2,0.7-0.6,0.9c-0.3,0.2-0.7,0.2-1.1,0
					C88.9,132.5,89.1,132.1,89.5,132z"/>
			</g>
			<g>
				<path class="st4" d="M87.9,131.8c0.4-0.1,0.7,0,1,0.2c-0.1,0.3-0.4,0.6-0.7,0.7c-0.4,0.1-0.7,0-1-0.2
					C87.3,132.2,87.6,132,87.9,131.8z"/>
			</g>
			<path class="st4" d="M117.3,137.5c0,0-1.8-0.6-4.5-1.4c-2.7-0.8-6.4-1.8-10.1-2.6c-3.7-0.8-7.4-1.3-10.3-1.5
				c-2.8-0.2-4.7-0.1-4.7-0.1l0,0c0,0,1.9-0.1,4.7,0.1c2.8,0.1,6.6,0.6,10.3,1.4c3.7,0.7,7.4,1.7,10.1,2.6
				C115.5,136.7,117.3,137.4,117.3,137.5L117.3,137.5z"/>
		</g>
		<g>
			<g>
				<path class="st5" d="M152.5,66.4c-0.7,0.3-1.2,0.8-1.4,1.4c0.5,0.3,1.3,0.4,2,0.1s1.2-0.8,1.4-1.4
					C153.9,66.1,153.2,66.1,152.5,66.4z"/>
			</g>
			<g>
				<path class="st5" d="M148.5,66.1c-0.4,0.6-0.4,1.4-0.2,2c0.6-0.1,1.2-0.5,1.6-1.2c0.4-0.6,0.4-1.4,0.2-2
					C149.5,65,148.8,65.4,148.5,66.1z"/>
			</g>
			<g>
				<path class="st5" d="M140.5,77c-0.1,0.7,0.2,1.4,0.6,1.9c0.5-0.4,0.9-1,1-1.7c0.1-0.7-0.2-1.4-0.6-1.9
					C140.9,75.6,140.5,76.2,140.5,77z"/>
			</g>
			<g>
				<path class="st5" d="M140.4,89.7c0.5,0.5,1.2,0.8,1.8,0.7c0.1-0.6-0.2-1.3-0.7-1.8c-0.5-0.5-1.2-0.8-1.8-0.7
					C139.6,88.4,139.9,89.1,140.4,89.7z"/>
			</g>
			<g>
				<path class="st5" d="M144.6,71.3c-0.4,0.6-0.4,1.4-0.2,2c0.6-0.1,1.2-0.5,1.6-1.2s0.4-1.4,0.2-2C145.6,70.2,145,70.6,144.6,71.3
					z"/>
			</g>
			<g>
				<path class="st5" d="M138.3,72.9c-0.5,0.5-0.8,1.2-0.8,1.8c0.6,0.1,1.3-0.1,1.9-0.7s0.8-1.2,0.8-1.8
					C139.6,72.2,138.9,72.4,138.3,72.9z"/>
			</g>
			<g>
				<path class="st5" d="M138,65.6c-0.5,0.5-0.8,1.2-0.8,1.8c0.6,0.1,1.3-0.1,1.9-0.7s0.8-1.2,0.8-1.8
					C139.2,64.9,138.5,65.1,138,65.6z"/>
			</g>
			<g>
				<path class="st5" d="M135.1,76.6c-0.6-0.4-1.3-0.5-1.9-0.4c0.1,0.6,0.4,1.3,1,1.7c0.6,0.4,1.3,0.5,1.9,0.4
					C136.1,77.7,135.7,77,135.1,76.6z"/>
			</g>
			<g>
				<path class="st5" d="M135.3,69.5c-0.6-0.4-1.3-0.5-1.9-0.4c0.1,0.6,0.4,1.3,1,1.7c0.6,0.4,1.3,0.5,1.9,0.4
					C136.3,70.5,135.9,69.9,135.3,69.5z"/>
			</g>
			<g>
				<path class="st5" d="M135.3,64.4c-0.6-0.4-1.3-0.5-1.9-0.4c0.1,0.6,0.4,1.3,1,1.7c0.6,0.4,1.3,0.5,1.9,0.4
					C136.3,65.5,135.9,64.8,135.3,64.4z"/>
			</g>
			<g>
				<path class="st5" d="M150.3,72.7c-0.7-0.1-1.4,0.1-1.9,0.6c0.3,0.5,1,0.9,1.7,1s1.4-0.1,1.9-0.6C151.7,73.2,151,72.8,150.3,72.7
					z"/>
			</g>
			<g>
				<path class="st5" d="M148.7,89c-0.5-0.5-1.2-0.8-1.8-0.8c-0.1,0.6,0.1,1.3,0.7,1.9s1.2,0.8,1.8,0.8
					C149.4,90.3,149.2,89.6,148.7,89z"/>
			</g>
			<g>
				<path class="st5" d="M154.2,89.8c-0.5-0.5-1.2-0.8-1.8-0.8c-0.1,0.6,0.1,1.3,0.7,1.9s1.2,0.8,1.8,0.8
					C154.9,91.1,154.7,90.4,154.2,89.8z"/>
			</g>
			<g>
				<path class="st5" d="M145.4,77.1c-0.7,0.2-1.3,0.7-1.5,1.3c0.5,0.3,1.2,0.5,2,0.3s1.3-0.7,1.5-1.3
					C146.8,77,146.1,76.9,145.4,77.1z"/>
			</g>
			<g>
				<path class="st5" d="M138.3,80.1c-0.7,0.2-1.3,0.7-1.5,1.3c0.5,0.3,1.2,0.5,2,0.3s1.3-0.7,1.5-1.3C139.8,80,139,79.9,138.3,80.1
					z"/>
			</g>
			<g>
				<path class="st5" d="M141.8,82.1c-0.7,0.2-1.3,0.7-1.5,1.3c0.5,0.3,1.2,0.5,2,0.3s1.3-0.7,1.5-1.3
					C143.3,82,142.6,81.9,141.8,82.1z"/>
			</g>
			<g>
				<path class="st5" d="M145.4,84.4c-0.7,0.2-1.3,0.7-1.5,1.3c0.5,0.3,1.2,0.5,2,0.3c0.7-0.2,1.3-0.7,1.5-1.3
					C146.8,84.3,146.1,84.2,145.4,84.4z"/>
			</g>
			<g>
				<path class="st5" d="M152.3,85.8c-0.6,0.4-0.9,1.1-1,1.7c0.6,0.2,1.3,0,1.9-0.4s0.9-1.1,1-1.7C153.7,85.2,152.9,85.3,152.3,85.8
					z"/>
			</g>
			<path class="st5" d="M135.3,94.9c0.2-0.9,0.4-1.9,0.6-2.9c0.1-1,0.2-1.9,0.1-2.9c-0.1-1-0.2-1.9-0.4-2.9c-0.1-1-0.2-2-0.1-3
				c0.1-1,0.2-1.9,0.4-2.9c0.1-1,0.2-1.9,0.4-2.9l0.9-5.8l0,0c-0.3-1.1-0.5-2.3-0.7-3.4c0-0.3-0.1-0.6-0.1-0.9c0-0.3-0.1-0.6,0-0.9
				c0-0.2,0.1-0.3,0.2-0.4c0.1-0.1,0.1-0.3,0.1-0.4c0.1-0.3,0.2-0.6,0.2-0.8l0,0c0,0.3-0.1,0.6-0.2,0.8c0,0.1-0.1,0.3-0.1,0.4
				c0,0.1-0.1,0.3-0.1,0.4c0,0.3,0,0.6,0,0.8c0,0.3,0.1,0.6,0.1,0.9c0.2,1.1,0.5,2.3,0.8,3.4l0,0l0,0l-0.8,5.8
				c-0.1,0.5-0.1,1-0.2,1.5l-0.2,1.5c-0.1,1-0.2,1.9-0.3,2.9c-0.1,1-0.1,1.9,0.1,2.9c0.1,1,0.3,1.9,0.3,2.9c0,1-0.1,2-0.2,2.9
				C135.9,93.1,135.6,94,135.3,94.9L135.3,94.9z"/>
			<path class="st5" d="M135.8,86.1c0,0.2,0.1,0.1,0.2,0c0.1-0.1,0.2-0.2,0.3-0.3c0.2-0.2,0.3-0.4,0.5-0.7c0.3-0.5,0.6-0.9,1-1.4
				c0.4-0.5,0.8-0.8,1.2-1.2c0.2-0.2,0.4-0.4,0.7-0.5l0.4-0.2c0.1-0.1,0.2-0.1,0.4-0.2c0.1,0,0.3,0,0.3,0.1c0,0.1,0,0.2-0.1,0.3l0,0
				c0,0,0,0-0.1,0c0,0-0.1,0.1-0.3,0c-0.1-0.1-0.1-0.1-0.1-0.2c0,0,0-0.1,0-0.1c0,0,0-0.1,0-0.1c0-0.1,0.1-0.1,0.1-0.2l0.2-0.3
				l0.4-0.5l0.7-0.9c0.5-0.6,0.9-1.3,1.3-1.9c0.4-0.6,0.9-1.3,1.4-1.9c0.5-0.6,1-1.2,1.6-1.7c0.6-0.5,1.2-0.9,1.7-1.6
				c0.4-0.6,0.6-1.4,0.9-2.1c0.1-0.4,0.3-0.7,0.4-1.1c0.2-0.4,0.4-0.7,0.6-1c0.2-0.3,0.4-0.7,0.8-0.9c0.3-0.2,0.7-0.4,1-0.6
				c0,0,0,0,0,0c0,0,0,0,0,0c-0.3,0.2-0.7,0.4-1,0.6c-0.3,0.2-0.5,0.5-0.7,0.9c-0.2,0.4-0.4,0.7-0.5,1c-0.2,0.4-0.3,0.7-0.4,1.1
				c-0.2,0.7-0.4,1.5-0.8,2.2c-0.4,0.7-1.1,1.2-1.7,1.7c-1.2,1-2,2.3-2.9,3.6c-0.4,0.6-0.8,1.3-1.3,2l-0.7,0.9l-0.3,0.5l-0.2,0.2
				l-0.1,0.1c0,0,0,0,0,0c0,0,0,0,0-0.1c0,0,0-0.1-0.1-0.1c-0.2-0.1-0.2,0-0.2,0l0,0l0.2,0.4c-0.1,0-0.2,0.1-0.3,0.2l-0.3,0.2
				c-0.2,0.2-0.4,0.3-0.7,0.5c-0.4,0.3-0.9,0.7-1.2,1.1c-0.4,0.4-0.7,0.9-1.1,1.3c-0.2,0.2-0.4,0.4-0.6,0.6
				c-0.1,0.1-0.2,0.2-0.3,0.3c-0.1,0-0.1,0.1-0.2,0.1c0,0-0.1,0-0.1,0C135.7,86.1,135.7,86.1,135.8,86.1
				C135.7,86,135.8,86,135.8,86.1C135.8,86,135.8,86,135.8,86.1z"/>
			<path class="st5" d="M136.1,88.6c-0.1-0.6-0.2-1.2-0.2-1.8c0-0.3,0.1-0.7,0.3-0.9c0.1-0.3,0.3-0.5,0.5-0.8c0-0.1,0.1-0.1,0.2-0.1
				l0,0c0.6,0.1,1.2,0.3,1.8,0.4c0.3,0.1,0.6,0.2,0.9,0.3c0.1,0,0.3,0.1,0.5,0.2l0.4,0.2c0.5,0.3,1.1,0.5,1.7,0.6
				c0.6,0.1,1.1,0,1.8-0.1c0.6,0,1.2,0.1,1.9,0.2l1.8,0.3c1.2,0.2,2.4,0.4,3.6,0.6c0,0,0,0,0,0c0,0,0,0,0,0
				c-1.2-0.1-2.4-0.3-3.6-0.5l-1.8-0.3c-0.6-0.1-1.2-0.2-1.8-0.1c-0.6,0-1.2,0.2-1.9,0.1c-0.6-0.1-1.2-0.3-1.8-0.6l-0.4-0.2
				c-0.1-0.1-0.2-0.1-0.4-0.2c-0.3-0.1-0.6-0.2-0.9-0.3l-1.8-0.5l0.2-0.1c-0.2,0.2-0.4,0.5-0.5,0.7c-0.1,0.3-0.3,0.5-0.3,0.8
				C136.1,87.4,136.1,88,136.1,88.6C136.1,88.6,136.1,88.7,136.1,88.6C136.1,88.7,136.1,88.6,136.1,88.6z"/>
		</g>
	</g>
</g>
</svg>
