<?xml version="1.0" encoding="utf-8"?>
<!-- Generator: Adobe Illustrator 18.1.0, SVG Export Plug-In . SVG Version: 6.00 Build 0)  -->
<!DOCTYPE svg PUBLIC "-//W3C//DTD SVG 1.1//EN" "http://www.w3.org/Graphics/SVG/1.1/DTD/svg11.dtd">
<svg version="1.1" id="Layer_1" xmlns="http://www.w3.org/2000/svg" xmlns:xlink="http://www.w3.org/1999/xlink" x="0px" y="0px"
	 viewBox="0 0 225 135" enable-background="new 0 0 225 135" xml:space="preserve">
<g>
	<path fill-rule="evenodd" clip-rule="evenodd" fill="#FFFFFF" d="M112.5,0C172.1,0,225,28.3,225,67.5c0,39.2-52.9,67.5-112.5,67.5
		C52.9,135,0,106.7,0,67.5C0,28.3,52.9,0,112.5,0z"/>
	<path fill="#243674" d="M6.5,67.5c0,32.7,46.4,60.9,106,60.9c59.7,0,106-28.2,106-60.9s-46.4-60.9-106-60.9
		C52.8,6.6,6.5,34.8,6.5,67.5z M4.7,67.5C4.7,33,52.9,4.8,112.5,4.8c59.6,0,107.8,28.2,107.8,62.7s-48.2,62.7-107.8,62.7
		C52.9,130.2,4.7,102,4.7,67.5z"/>
	<path fill="#C2C4C5" d="M74.2,63.1c0.7-1,0.7-2.9,1.8-2.7l0,3.9C75.5,63.6,75,63.3,74.2,63.1z M69.6,59.5c2.1-1.6,5.4-5.9,6.4-5.8
		v2.2c-1.2,2.2-5.1,1.9-6.9,4.3L69.6,59.5z M60.6,56.7c4.2-7.1,10.1-7.8,15.5-13.8v7.8c-1.1,1.8-4.1,2-6.4,3.3c-2.6,1.4-3,4-5.7,5.2
		c0.4-0.8,0.6-1.2,0.8-2l-0.5,0.7l-11.7,8.4l0.3-0.7c4.8-5.5,10-6.8,13.1-13.6l-0.6,0.3C63.4,53.9,62.8,55.5,60.6,56.7z M162.2,34.7
		v2.5c-1.2,0.1-1.8,0.1-3,0V36c0.7-0.8,1.3-1.5,2.4-1.5C161.8,34.5,161.9,34.7,162.2,34.7z M154.4,34.7c0.3-0.4,1-0.5,1.5-0.5
		c0.6,0,1.2,0.4,1.2,1c0,0.3-0.3,0.4-0.3,0.7C155.7,35.8,155,35.4,154.4,34.7z M157.2,46.6c-0.8,0-1.2,0.1-1.9,0.1v-3.9
		c0.5,0.1,1.2,0.6,1.7,0.8c1.4,0.7,2.1,1.4,3.1,2.5l-0.5,0.7l-0.7,0.2C158.2,46.8,157.8,46.6,157.2,46.6z M155.2,48.1
		c1.4,0.8,2.2,1.6,3.8,2.4c1.1,0.5,2.6,0.5,2.6,1.8c0,1.4-2.2,0.3-3.6,0.5c0.9,1.3,1.9,2,3.5,2h3.2c1.9,0,3.7,1.2,3.7,3.1V59
		c-0.6,0-1,0.2-1.6,0.2c-2.4,0-3.1-2.2-5.5-2.9c-2.4,0-3.9,0.5-6.1,0.1V48.1z M115.7,70.9c3.5-2.9,6.1-4.9,10.6-4.9h7.5
		c2.4,0,3.7-1,6-1h2.1c0,0.5-0.2,0.8-0.2,1.3c0,0.9,1.3,0.8,2.1,1c1.9,0.6,3.1,0.7,5.1,1c3.7,0.6,5.8,1.7,9.5,1.7v1.6
		c0,1.3-1.8,1.1-3.1,1.1c-3.7,0-5.3-3.2-9-3.2c-2.4,0-3.7,1.2-6.1,1.2H137c-3.4,0-5.2-1.5-8.7-1.5h-3.2
		C121.4,69.2,119.4,70.9,115.7,70.9z M143.7,38.3h-3.1v6.6h-3.8v18.3l0.4,0c1.4,0,2.1,0.3,3.5,0.5c-5.8,0-9.1-0.2-14.9-0.2
		c-6.1,0-9.5,2.1-14.9,5.2c-3.2,1.8-4.2,5.6-7.9,5.6l1-2.7l-0.5-0.7c-0.9,0.2-1.4,0.8-2.4,0.8c-0.7,0-1-0.5-1.7-0.5
		c-2.2,0-3.1,1.6-5,2.9c-2.9,2-4.7,2.8-7.4,5.2c-1,0.9-1,2.5-2.3,2.5c-0.3,0-0.5-0.3-0.8-0.3c2.8-3.9,4.9-6.2,9-8.5
		c3.5-2,6.8-3,7.8-7.1c-6.5,0-9.6,2.7-15,6.6c-2.5,1.8-3.9,3.6-6.9,3.9c0.5-1.6,1.2-2.5,1.8-4c-1.7,0.4-2.5,1.3-4.3,1.3
		c-1.3,0-2-1.4-2-2.7c0-2.3,1.9-4.2,4.1-4.2h7.3c2,0,2.2-2.1,3.8-3.3c1.5-0.1,2.7-0.1,3.9-0.2V44.9h-3.4v-6.6h-2.9v-2.8l11.5-4.4
		c-0.6-0.3-1-0.8-1.8-0.8c-2.6,0-4,0.6-6.5,0.8c1.3-1,2.1-1.5,3-2.9l4.6,1.3c0.6,0,0.9-0.1,1.5-0.2c0.2-2.2-0.8-4.4,1-5.7
		c2.2-1.6,5.7-0.7,6.2-3.4c0.2-1.4,0.3-3.4,1.7-3.4c1.7,0,2.5,1.3,4.2,1.3c0.7,0,0.7-0.9,1.3-1.3c0.2-0.1,0.4-0.3,0.6-0.4
		c1.8-0.8,3-0.9,4-1.8c1.3-1.2,0.8-4,2.6-4c1,0,1.7,1,1.7,2c0,2.1-2.7,2.1-4.6,3c-0.7,0.3-0.8,1.3-1.7,1.3c-0.7,0-1.2-0.4-1.8-0.6
		c-0.7,1.2-1,2.3-2.1,2.3c-1.8,0-2.8,0-4.6,0c0,2-1.8,2.9-3.6,3.7c0.4,1.1,0.9,1.7,1.5,2.7l-0.2,0.7c-1.5-0.4-2.9,0.4-3.8,1.8
		c0.3-0.1,0.6-0.2,1-0.2c0.2,0,0.3,0.1,0.5,0.1c0.5,0.4,0.7,0.5,0.9,0.5c2.7,0,3.9-3.1,3.9-6.1c3.2-0.2,4.9-1.8,7.3-3.2
		c0.8-0.5,1.6-1,2.6-1.4c1.1-0.4,2.2,0.2,3.1-0.3c1.4-0.8,1.5-2.6,3-3.7c0.5,0.7,0.6,1.6,0.8,2.5c3-1.1,4.3-2.5,7.8-2.8
		c0.2,0.5,0.1,0.4,0.2,0.5c0.1,0.2,0.2,0.3,0.2,0.4c0,1.6-1,2.5-2.2,3c-1.2,0.6-2.8,0.9-4.1,1.5c-3.6,1.6-5.9,3.6-10,4.2l-0.1-0.4
		c3.9-0.6,6.3-2.6,9.9-4.2c1.3-0.6,2.9-0.9,4.1-1.5c1.2-0.5,2-1.3,2-2.6c-0.1-0.2-0.1-0.2-0.2-0.3c-2.9,0.1-5,1.8-7.6,2.6
		c-0.4-0.8-0.5-1.6-0.7-2.5c-1.2,1-1.2,2.6-2.7,3.5c-1.1,0.6-2.1-0.1-3.2,0.3c-3.4,1.4-5.7,4.3-9.6,4.4c-0.1,2.9-1.3,6.4-4.3,6.4
		c-0.2,0-0.3-0.1-0.5-0.1l-0.5-0.4c-0.2-0.1-0.3-0.2-0.4-0.2c-0.2,0-0.3,0-0.4,0.1l-0.3,0.1c-0.1,0.6-0.1,1-0.1,1.7l13.4-5.2
		l1.3,0.5c3.8-1.9,5.8-2.8,9.5-4.7c-1.3,1.8-2.7,2.1-4.6,3.2c-1.2,0.7-2,1.8-3.2,2.2l1.7,0.7c4-3,7.1-3.6,12.1-4.4
		c-0.1,0.9-0.5,1.4-0.8,2.2l0.2,0.7h1.5l3-0.8h1.3c-0.3,0.8-0.7,1.3-1.2,2c0.4,0.2,0.6,0.5,1,0.5c2.6,0,4.1-0.4,6.7-0.7
		c2.9,0,4.5-0.5,7.4,0c-0.1,0.3-0.3,0.5-0.3,0.9c0,0.7,0.7,1,1.3,1.3c-0.6,1-2.1,0.9-2.1,2c0,0.5,0.2,0.8,0.3,1.3
		c-4.4,0.2-6.9,0.5-11.3,0.5c-2.2,0-3.6,0.2-5.6-0.2l9.9,3.9V38.3z M101,30.3l0.8-0.3c-0.1-0.7,0-1.3,0.1-2
		C101.4,28.6,101.1,29.4,101,30.3z M142.8,37.4v-1.1l-27.2-10.7L88.2,36.2v1.3H142.8z M96.8,63c1.4-0.1,2.8-0.1,4.5-0.1
		c2.2,0,4,0.1,5.7,0.2V44.9H96.8V63z M115.1,63.3c2.6,0,4.1,0.1,6.3,0h-1.1V44.9h-10.2v18.3C110.1,63.2,112.5,63.3,115.1,63.3z
		 M123.5,63.1l0.6,0c3.8,0,6.4,0.1,9.6,0.2V44.9h-10.2L123.5,63.1z"/>
	<path fill="#243674" d="M134.5,99.2c-1-0.1-1.6-0.5-2.3-1.3c-0.4-0.5-0.5-0.9-0.7-1.4c-0.2-0.6-0.2-1.5-0.6-1.5
		c-0.3,0-1.1,1-1.4,1.4c-0.7,1.1-1.2,1.8-2.2,3c-1,1.2-1.8,2.2-3.3,2.2c-0.4,0-0.8,0-1.1-0.2c-0.4-0.3-0.5-0.7-0.5-1.1
		c0-1.3,0.7-2.4,0.7-2.6c0-0.1-0.1-0.1-0.2-0.1c-0.5,0-0.6,0.6-0.8,0.6c-0.1,0-0.2-0.1-0.2-0.3c0-0.3,0.2-0.5,0.2-0.7
		s-0.1-0.3-0.1-0.6c0-0.3,0.1-0.5,0.3-0.7c0.8-0.5,0.9-0.8,1.4-1c0.7-1.3,2.7-3.1,3.7-4c1-1,1.2-1.3,2.7-2.4
		c0.6-0.5,0.9-0.5,1.4-0.5c0.5,0,0.7-1.2,0.9-2c0.3-1,0.4-1.5,0.7-2.4c0.6-1.6,1.1-2.4,1.9-3.9c0.6-1.1,1.4-2.1,2.1-2.1
		c0.9,0,0.7,2.3,0.3,3.9c-0.3,1.2-0.5,1.8-0.9,3c-0.3,0.8-0.5,1.2-0.9,2c-0.3,0.6-0.5,1-0.7,1.6c-0.4,0.9-0.5,1.2-0.9,2.4
		c-0.2,0.5-0.3,1.2-0.3,2c0.1,1.9,0.8,4.3,2.3,4.3c0.3,0,1-0.2,1.4-0.5c0.3-0.3,0.5-0.8,0.5-0.8c0.3-0.6,1.5-1.3,3.3-3.1
		c0.3-0.3,1.2-1.5,1.7-1.6c0.9-0.8,1.5-1.6,1.8-1.6c1,0,1.4,0.2,1.4,0.4c0,0.1-0.4,0.4-0.4,0.9c0.5,0,1-0.5,1.7-0.5
		c1,0,1.8,0.2,2.3,1.1c0.3,0.4,0.3,0.6,0.4,1.1c0.3,1.3-0.6,3.2-1.7,4.9c-1.6,2.3-3.9,4.1-5.8,4.1c-0.7,0-1.3-0.1-1.9-0.6
		c-1.2-0.8-1-2.1-1-2.8c0-0.9,0.2-1,0.2-1.5c0-0.5-1.4,0.6-1.4,0.9l0,0.3C138.2,98.2,135.6,99.3,134.5,99.2z M142.5,97.5
		c0,0.6,0.3,1,0.9,1c0.8,0,2.6-1.4,3.1-2c0.5-0.7,1-1.7,1-2.6c0-0.7-0.2-1.2-1.1-1.2c-1.8,0-1.4,1.8-2.8,1.9
		C143.4,94.5,142.5,96.1,142.5,97.5z M131.1,91.6v-1.2c-0.3,0-2.1,1.9-3.1,3.4c-1,1.5-2.1,2.8-2.1,4.1c0.6,0,1.6-1.3,2.4-2.3
		c0.5-0.5,0.7-0.8,1.1-1.4C130.2,93.2,130.4,93,131.1,91.6z"/>
	<path fill="#243674" d="M32.3,98.5c0,0.2-1.3,2.4-2.2,2.4c-0.4,0-0.5-0.1-1-1.4c0-3,0.3-3.7,0.3-4c0-0.9-0.2-0.5-1.2-1.3
		c0-1.3,0.7-0.6,1.4-1.7c0.2-0.3,1-9.8,2.1-14c-0.3-1.1-1.8-2.3-1.8-2.8c0-0.4,0.7-1.6,1.5-2c0.7-0.4,0.8-0.8,1.3-0.8
		c0.2,0,0.3,0.1,0.5,0.3c1.4,0,2.7,1,4.3,2.1c1.9,1.3,2.9,2.3,4.1,4.3c1,1.8,1.6,3.7,1.6,5c0,1.2-0.2,2.6-1.1,4
		c-1.2,2-2.8,2.7-4.9,3.7c-1.8,0.9-3.6,1.6-4.8,1.6c-0.2,0-0.3,0.4-0.3,1.1c0,0.2-0.1,1.4-0.1,2.3C31.6,98.1,32.3,98.1,32.3,98.5z
		 M39.7,85.8c0-2-0.2-2.2-0.7-3.5c-0.5-1.2-1-1.8-1.8-2.8c-0.9-1.1-1.5-1.7-2.8-2.3c-0.5-0.3-0.4-0.3-1.3-0.5
		c-0.1,0-0.1,0.1-0.1,0.2c0,0.4,1.9,1.6,1.9,3.2c0,0.2-0.1,0.9-0.3,1.5c-0.2,0.7-1.1,3.9-1.6,6.5c-0.3,1.2-0.6,2.6-0.6,3.1
		c0,0.5,0,0.6,0.4,0.6c0.3,0,1.8-0.6,2.8-1.2c1.3-0.7,2.3-1.2,3.2-2.2C39.3,87.7,39.7,87.3,39.7,85.8z M75.8,80.3
		c0.5-0.2,1.1,0,1.5,0.6c0.2,0.3,0.2,0.3,0.2,0.8c0,0.4-0.4,0.8-0.7,1c-1.2,0.8-2.2,1.3-3.6,1.9c-1.1,0.5-2.4,1-2.8,1
		c-0.3,0-0.7-0.2-0.7-0.8c0-0.5,1.6-0.4,3.3-1.6C76,81,75.1,80.5,75.8,80.3z M94.5,81.2c0.5,0.1,1.1,0.8,0.2,2.8
		c-0.5,1.1-1.1,1.7-2.2,2.1c-0.7,0.3-1.4,0-1.5-0.3c-0.1-0.4-0.3-0.5-0.3-1c0-1.1,0.8-1.9,1.6-2.7C93.2,81.2,93.9,81.1,94.5,81.2z
		 M96.5,95c0.3-0.6,1.5-1.3,3.3-3.1c0.3-0.3,1.2-1.5,1.7-1.6c0.9-0.8,1.5-1.6,1.8-1.6c1,0,1.4,0.2,1.4,0.4c0,0.1-0.4,0.4-0.4,0.9
		c0.5,0,1-0.5,1.7-0.5c1,0,1.8,0.2,2.3,1.1c0.3,0.4,0.3,0.6,0.4,1.1c0.3,1.3-0.6,3.2-1.7,4.9c-1.6,2.3-3.9,4.1-5.8,4.1
		c-0.7,0-1.3-0.1-1.9-0.6c-1.2-0.8-1-2.1-1-2.8c0-0.9,0.2-1,0.2-1.5c0-0.5-1.4,0.6-1.4,0.9l0,0.3c0,0.5-2.3,2.3-3.8,2.2
		c-1.4-0.1-2-0.6-2.6-2.6c-0.3-1.1-0.4-1.5-1.2-1.5c-0.3,0-1,0.6-1.4,1.1c0.1,0.1,0.1,0.2,0.1,0.3c0,0.7-2.1,2-3.2,2.7
		c-2.2,1.5-2.8,1.1-3.7,1.5c-1.2,0-1.9,0-2.6-0.5c-0.2-0.4-1.5-0.5-1.5-2.3c-0.1-0.1-0.1-0.6-0.2-0.9c-0.1,0.3-0.5,0.5-0.9,0.8
		c-0.7,0.6-1.5,1.1-2.9,1c-0.5,0-1.3-0.5-1.5-1.1c-0.3-0.7-0.2-2.2-0.7-2.2c-0.2,0-2.2,2-3.1,2.8c-0.6,0.5-1.7,1.3-2.4,1.7
		c-1,0.6-2.6,0.4-2.5-1.4c0-0.5,0.2-0.9,0.3-1.2c-0.2,0.1-2.9,1.9-4.7,1.9c-1.4,0.1-2.3-0.3-3.2-1.3c-0.4-0.5-0.7-1.3-1-2.6
		c-0.6,0.4-1,0.7-1.3,1c0,0.1,0.1,0.3,0.1,0.4c0,0.3-0.4,0.7-0.8,1c-0.7,0.4-1.1,0.8-2,0.9c-0.4,0-0.6,0.1-0.9,0
		c-0.8-0.2-1.4-0.8-1.6-1.2c-0.3-0.6-0.1-2.1-0.6-2.1c-0.2,0-0.9,0.7-1.4,1.1c-0.8,0.7-1.2,1.1-1.9,1.8c-0.8,0.7-1.2,1.2-2.2,1.6
		c-0.4,0.1-0.7,0.3-1,0.3c-0.3,0-0.9-0.1-1.2-0.6c-0.2-0.4-0.2-0.9-0.2-1.1c0-0.7,0.3-1.2,0.3-1.3c0-0.1-0.3-0.1-0.4-0.3
		c0-1.8,0-2.1,0.7-2.5c0.6-0.4,1-0.9,1.6-1.5c1.5-1.5,2.3-2.3,3.9-3.6c0.4-0.4,0.7-0.6,1.1-0.9c1.1-0.8,2-1.7,3.2-1.7
		c0.7,0,1,0.3,1.1,0.7c0.1,0.8-0.8,1.1-1.4,1.7c-0.7,0.8-1.1,1.1-1.8,1.9c-0.4,0.4-0.7,0.7-1.2,1.1c-0.5,0.5-0.8,0.7-1.2,1.2
		c-0.8,0.9-1.4,1.2-2,2.3c-0.2,0.3-0.4,0.4-0.4,0.8c0.7,0,1.2-0.6,1.9-1.2c0.8-0.8,1.2-1,1.9-1.7c0.7-0.6,1.4-1.4,1.9-1.7
		c0.4-0.1,0.7-0.2,0.9-0.2c0.6,0,0.9,0.9,0.8,1.5c0,0.4-0.1,0.6-0.1,1.2c0,0.7,0.4,1.5,1.2,1.5c0.6,0,0.7-0.2,1-0.4
		c0-0.3,0.1-0.6,0.2-0.8c0.2-0.3,1.1-1.2,1.7-1.8c0-0.9,0.3-3,0.7-4.9c0.3-1.2,0.4-1.9,0.8-3c0.5-1.2,0.8-1.9,1.3-3
		c0.6-1.2,0.9-2,1.6-3.1c0.8-1.3,1.7-2.5,2.4-3.2c0.2-0.2,0.4-0.3,0.7-0.3c1-0.1,1.5,0.8,1.5,2c0,2-0.2,2.9-0.6,4.2
		c-0.2,0.9-0.4,1.4-0.8,2.2c-0.5,1.2-0.8,1.8-1.4,2.9c-1.1,2.1-2.5,4.1-3.1,5.3c-0.2,0.5-0.6,0.5-0.8,1c0,0.7,0,1.4,0.4,2.2
		c0.6,1,0.9,1.6,2.4,1.6c1.4,0,2.2-0.6,3.5-1.4c0.4-1,1.3-1.9,2.4-2.9c0.5-0.4,0.7-0.7,1.2-1.1c1-0.9,1.5-1.3,2.5-2.2
		c0.5-0.4,0.8-0.8,1.3-1.1c1-0.7,1.8-1.3,2.9-1.3c0.7,0,0.9,0.3,1.1,0.7c0.2,0.5-0.7,1.4-1.4,1.7c-0.6,0.2-2.6,2.2-4.1,3.9
		c-0.9,1-1.3,1.4-2.1,2.6c-0.2,0.3-0.3,0.5-0.3,0.9c0.7,0,1.3-0.7,1.9-1.1c0.3-0.2,1.2-1,1.9-1.7c0.8-0.8,1.5-1.5,1.9-1.8
		c0.4-0.2,0.9-0.1,1.1-0.1c0.6,0,0.5,1,0.5,1.5c0,0.4,0,0.6,0,1.2c0,0.7,0.4,1.5,1.2,1.5c0.5,0,0.7-0.2,0.8-0.4l0-0.4
		c0-0.3,2-1.6,2.3-1.8c0.2-0.4,0.6-0.9,1.7-1.7c0.4-0.3,2.8-2,3.1-2.2c1.2-0.9,2-1.4,3.2-1.4c0.6,0,0.8,1.1,0.5,1.6
		c-0.2,0.4-1.2,1.6-2.8,2.3c-0.9,0.4-2.6,1.6-3.6,3.1c-0.3,0.4-0.4,1.4-0.3,1.7c0.3,1.1,0.8,1.3,1.4,1.4c0.3,0.1,0.9,0,1.5-0.1
		c0.6-0.1,1.8-0.8,3.7-2.2c0-0.4,0.1-0.4,0.1-0.5c0.1-0.6,1.1-1.2,1.4-1.7c0.4-0.5,1.3-1.6,1.7-2.1c0.3-0.4,0.6-0.7,1-0.8
		c1-0.2,1.4,0.3,1.7,1.1c0.3,0.7,0.5,1.9,0.5,2.9c0,0.4,0.3,1.6,1.3,1.6c0.4,0,0.8-0.1,1.2-0.4C96.2,95.8,96.5,95,96.5,95z
		 M58.7,84.7c-0.5,1-0.7,1.6-1,2.6c-0.3,0.9-0.4,1.3-0.5,2.5c0.5,0,1.4-1.8,2.1-3.1c0.7-1.4,1.2-2.2,1.5-3.7
		c0.1-0.6,0.3-1.3,0.3-1.6c-0.2,0-0.7,0.6-1.1,1.1C59.3,83.3,59.1,83.8,58.7,84.7z M101.2,97.4c0,0.6,0.3,1,0.9,1
		c0.8,0,2.6-1.4,3.1-2c0.5-0.7,1-1.7,1-2.6c0-0.7-0.2-1.2-1.1-1.2c-1.8,0-1.4,1.8-2.8,1.9C102.1,94.4,101.2,96,101.2,97.4z"/>
	<path fill="#243674" d="M167.6,98.5c0,0.2-1.3,2.4-2.2,2.4c-0.4,0-0.5-0.1-1-1.4c0-3,0.3-3.7,0.3-4c0-0.9-0.2-0.5-1.2-1.3
		c0-1.3,0.7-0.6,1.4-1.7c0.2-0.3,1-9.8,2.1-14c-0.3-1.1-1.8-2.3-1.8-2.8c0-0.4,0.7-1.6,1.5-2c0.7-0.4,0.8-0.8,1.3-0.8
		c0.2,0,0.3,0.1,0.5,0.3c1.4,0,2.7,1,4.3,2.1c1.9,1.3,2.9,2.3,4.1,4.3c1,1.8,1.6,3.7,1.6,5c0,1.2-0.2,2.6-1.1,4
		c-1.2,2-2.8,2.7-4.9,3.7c-1.8,0.9-3.6,1.6-4.8,1.6c-0.2,0-0.3,0.4-0.3,1.1c0,0.2-0.1,1.4-0.1,2.3C166.9,98.1,167.6,98.1,167.6,98.5
		z M175,85.8c0-2-0.2-2.2-0.7-3.5c-0.5-1.2-1-1.8-1.8-2.8c-0.9-1.1-1.5-1.7-2.8-2.3c-0.5-0.3-0.4-0.3-1.3-0.5
		c-0.1,0-0.1,0.1-0.1,0.2c0,0.4,1.9,1.6,1.9,3.2c0,0.2-0.1,0.9-0.3,1.5c-0.2,0.7-1.1,3.9-1.6,6.5c-0.3,1.2-0.6,2.6-0.6,3.1
		c0,0.5,0,0.6,0.4,0.6c0.3,0,1.8-0.6,2.8-1.2c1.3-0.7,2.3-1.2,3.2-2.2C174.6,87.7,175,87.3,175,85.8z M183.2,81
		c1.1-0.5,1.5-0.1,1.9,0.9c0.7,1.6,1.4,1.7,2,1.3c0.8-0.4,0.6-1.9,1.3-2.1c0.6-0.1,0.9,0.1,0.8,0.7c-0.1,0.6-0.6,2.9-1.8,3.5
		c-0.7,0.4-2.1,0.8-2.8-0.3c-0.6-1.2-0.4-1.8-1.3-1.5c-0.5,0.2-1.2,0.7-1.8,1.3c-0.7,0.5-1.3-0.2-0.1-1.8
		C181.9,82.4,182.6,81.3,183.2,81z M193.5,97c0,0.6,0.3,1,0.9,1c0.8,0,2.6-1.4,3.1-2c0.5-0.7,1-1.7,1-2.6c0-0.7-0.2-1.2-1.1-1.2
		c-1.8,0-1.4,1.8-2.8,1.9C194.5,94.1,193.5,95.6,193.5,97z M188.7,97.6c-0.1,0.1-0.2,0.3-0.3,0.4c-1,0.7-1.5,1-1.9,1h-0.9
		c-0.5,0-1.4-0.8-1.6-1.2c-0.3-0.6-0.1-2.1-0.6-2.1c-0.2,0-0.9,0.7-1.4,1.1c-0.8,0.7-1.2,1.1-1.9,1.8c-0.8,0.7-1.2,1.2-2.2,1.6
		c-0.4,0.1-0.7,0.3-1,0.3c-0.3,0-0.9-0.1-1.2-0.6c-0.2-0.4-0.2-0.9-0.2-1.1c0-0.7,0.3-1.2,0.3-1.3c0-0.1-0.3-0.1-0.4-0.3
		c0-1.8,0-2.1,0.7-2.5c0.6-0.4,1-0.9,1.6-1.5c1.5-1.5,2.3-2.3,3.9-3.6c0.4-0.4,0.7-0.6,1.1-0.9c1.1-0.8,2-1.7,3.2-1.7
		c0.7,0,1,0.3,1.1,0.7c0.1,0.8-0.8,1.1-1.4,1.7c-0.7,0.8-1.1,1.1-1.8,1.9c-0.4,0.4-0.7,0.7-1.2,1.1c-0.5,0.5-0.8,0.7-1.2,1.2
		c-0.8,0.9-1.4,1.2-2,2.3c-0.2,0.3-0.4,0.4-0.4,0.8c0.7,0,1.2-0.6,1.9-1.2c0.8-0.8,1.2-1,1.9-1.7c0.7-0.6,1.4-1.4,1.9-1.7
		c0.4-0.1,0.7-0.2,0.9-0.2c0.6,0,0.9,0.9,0.8,1.5c0,0.4-0.1,0.6-0.1,1.2c0,0.7,0.4,1.5,1.2,1.5c0.6,0,0.7-0.4,1-0.4l0.2-0.2
		c0.2-0.4,0.4-0.9,0.4-0.9c0.1-0.3,0.4-0.5,0.8-0.9c0,0,1.5-1.2,2.4-2.2c0.3-0.3,1.2-1.5,1.7-1.6c0.9-0.8,1.5-1.6,1.8-1.6
		c1,0,1.4,0.2,1.4,0.4c0,0.1-0.4,0.4-0.4,0.9c0.5,0,1-0.5,1.7-0.5c1,0,1.8,0.2,2.3,1.1c0.3,0.4,0.3,0.6,0.4,1.1
		c0.3,1.3-0.6,3.2-1.7,4.9c-1.6,2.3-3.9,4.1-5.8,4.1c-0.7,0-1.3-0.1-1.9-0.6c-1.2-0.8-1-2.1-1-2.8c0-0.9,0.2-1,0.2-1.5
		c0-0.5-1.4,0.6-1.4,0.9l0,0.3C189.4,96.9,189.1,97.2,188.7,97.6z"/>
</g>
</svg>
