<?xml version="1.0" encoding="utf-8"?>
<!-- Generator: Adobe Illustrator 19.1.0, SVG Export Plug-In . SVG Version: 6.00 Build 0)  -->
<svg version="1.1" id="Layer_1" xmlns="http://www.w3.org/2000/svg" xmlns:xlink="http://www.w3.org/1999/xlink" x="0px" y="0px"
	 viewBox="0 0 722.8 439.4" style="enable-background:new 0 0 722.8 439.4;" xml:space="preserve">
<style type="text/css">
	.st0{fill:#FFFFFF;}
	.st1{fill-rule:evenodd;clip-rule:evenodd;fill:#004994;}
	.st2{fill:#004994;}
	.st3{fill:#C6C6C6;}
</style>
<g>
	<path class="st0" d="M314.2,110.1l135.2,0.1l-67.1-25.9L314.2,110.1L314.2,110.1z M338.2,210.5v-51.1h-21l0,50.9l8.1-0.1
		C330,210.1,334.2,210.3,338.2,210.5L338.2,210.5z M391.6,159.3h-21v52.2l10.2,0.1c4.1,0,7.6,0.1,10.8,0.1V159.3L391.6,159.3z
		 M445,211.3v-52h-21v51.5L445,211.3L445,211.3z M529.5,104.1c-1.6,1.5-3.8,2.4-6.3,2.5c-8.8,0.3-15.7,0.7-22.5,1.1l3.9,14.2
		l-12.2,9l0,18.5l-15,7.9v55c2.6,0.5,4.5,1,7,1.3c5.2,0.6,8.2,4.5,8.7,8.4c1.9,2.1,3,3.9,3.6,5.8l1.9,0.5c7.3,2.2,11.9,2.5,19.4,3.7
		c7.7,1.3,13.6,3,19.6,4.4c5.2,1.2,10.3,2.1,16.9,2.1l9.1,12.6c0.9,12.9-7.2,16.3-11.4,17.2c-1.8,0.4-3.8,0.5-5.8,0.6l-4.1,0
		c-5.2,0-9.6-1.1-13.5-2.7c-3.4-1.4-6.5-3.2-9.6-5c-5.5-3.2-8.7-4.9-13.1-4.9c-3.1,0-5.5,0.7-9.2,1.9c-2.1,0.7-4.2,1.3-6.5,1.8
		c-2.6,0.6-5.4,1-8.6,1h-13.4c-4.1,0-7.8-0.4-11.2-1.1c-3.1-0.6-6-1.4-8.9-2.2c-5.3-1.5-9.3-2.6-14.7-2.6h-12.7
		c-5.9,0-10.4,1.3-16.2,2.9c-3.1,0.9-6.3,1.8-9.6,2.5c-3.7,0.7-7.6,1.2-12,1.2c-7.3,0-11.4-6.5-9.7-12.4l-4.5,2.5
		c-2.1,1.2-4.1,2.8-6.2,4.8c-2.4,2.3-4.5,4.8-6.7,7c-5.1,5.2-12.2,11.2-23.7,11.2c-5.8,0-10.1-4.7-9.9-10c-1.2-0.2-2.1-0.5-2.9-0.8
		c-3.8-0.8-4.6-0.4-6.1,0.8c-1.3,1-2.6,2.1-4,3.3c-1.8,1.5-3.7,3-5.9,4.5c-5.9,3.9-10.7,6.7-15.3,9.7c-4.2,2.7-8.1,5.4-12.7,9.4
		l-2.5,4.1c-0.5,0.9-1.4,2.3-2.5,3.6c4.3-3.2,9.7-3.9,11.8-3.9c3.5,0,6.5,1.3,8.8,3.6c3.8,7,3.6,11,3,14.3c-0.3,1.4-0.6,2.7-1,3.8
		c-0.2,0.6-0.5,1.4-1,2.4c-1.4,4.9-4.4,8.2-7.3,10.3l-3.1,1.9l-2.4,1.3c-5.7,1.2-8.7,1.4-11.5,0.8c-4.2-1-7.3-3.3-8.3-7.7
		c-1-2.2-1.8-4-1.8-7.1c0-7.7,4.8-14.1,10.3-17.4c-2,1.4-4.9,2.7-8.6,2.7c-3.2,0-5-1-6.1-1.6c-1.8-0.7-4-1.9-5.6-4.5
		c-2.3-3.5-2-7.8,0.5-11.1c4.1-5.5,7.9-10.3,11.8-14.6c-1.4,1.1-2.8,2.1-4.2,3.1c-5.2,3.5-11.2,6.4-19.4,7
		c-6.3,0.5-11.3-4.6-10.8-10.5c-14-1-17.6-14.3-17.6-20.5c0-7.9,3.5-15,9-19.8c-1.3-1.2-1.8-1.4-2.7-1.7c-6.4-2-8.9-9.3-5.3-14.8
		l1.2-3.1c-2.7,0.6-4.4,1.7-5.5,3.2c-3.9,5.1-10.2,4.8-13.9,2c-2.1-1.6-3.7-4.2-3.9-7.2c-2,1.5-4.3,3-7,4.2c-2.2,1-4.6,1.2-6.8,0.7
		l-37,26c-8.7,6.1-19.3-3-14.5-12.5l1.3-2.6c6.7-8,12.1-12.7,17.2-16.9c4.3-3.5,8.6-6.7,12.8-9.9c-0.6-2.7-0.5-5.8,1.3-8.7
		c9.5-15.8,21-24.4,32.1-31.8c5.2-3.5,10.6-6.8,16-10.7c5.1-3.7,10.1-7.9,15-13.1c6.3-6.9,17.2-2.6,17.2,6.7v30.5
		c-1.4,3.9-2.6,5.9-3.9,7.6l3.6,10.6l0.1,2.2c-1.6,5.1-3.5,8.1-5.7,10.3l5.8,21.3l29.1,1.2c2-2.3,3-3.8,4.1-5.3c1.4-1.8,3.4-4,6-5.9
		c5.6-1.3,8.9-1.8,11.6-2v-52.6l-3.8,0l-8.6-25.8l-3.1,0l-9.5-18.5c-0.7-1.9,0.2-4.3,2-5.3l13.5-6.9c-4.3-3.8-4.8-11.1,0.9-15.4
		c2.3-1.7,4.2-3,5.9-4.5c1.3-1.1,2.4-2.3,3.6-4.2l22.5,0.3l0-2.9c0-5.3,1.2-12.7,8.6-17.8c3.5-2.5,7.3-3.8,10.4-4.6
		c2.7-0.7,5.4-1.2,7.9-1.8l2.3-0.7l1-4.1c0.3-2.1,0.8-4,1.4-5.8c1.4-4.1,5.4-11.2,14.6-11.2c3,0,5.7,0.6,7.9,1.4
		c1.8,0.6,3.5,1.5,5.1,2.4c1.9-0.8,2.6-1.4,3.4-1.9c1.2-0.8,2.8-1.8,4-2.4c4.5-1.8,7.8-2.8,10.3-3.8c1.6-0.6,2.3-1,2.8-1.4
		c1.2-2.7,1.6-4.3,2.1-5.7c1-3,4.3-12.8,15.5-12.8c8.4,0,13.3,5.9,15.3,11.4c1.7,0.7,3.2,1.9,4.3,3.5l1.2,2.1l4.5-2.2
		c5.3-2.4,11.2-4.5,19.5-5.1c7,3.4,10.3,5.8,11,10.1c1.4,14-6.2,20.9-13.8,24.3c6.1-0.7,10.9,2.9,11.8,8.1l4,0l6.7-0.2
		c5.5,0,9.7,4.1,10,9.2c4.9-0.5,9.7-1.3,15.9-1.9c5.5,0,10.4-0.5,14.7-0.8c5-0.3,10.4-0.4,17.2,0.8c5.3,0.9,8.9,5.6,8.2,10.8
		c3.8,3.4,5,8.3,2.4,12.7c-1.6,2.6-3.6,4.2-5.2,5.2c-0.2,3.6-0.7,6-1.9,8L529.5,104.1L529.5,104.1z M530,115.4
		c-2.5-3.2-2.7-7.9-0.6-11.3l1.8-2.2c4.3-4.1,10.2-4.5,12.5-4.5c3.5,0,8.3,1.6,11.5,5.3c2.9-2.4,6.5-4,11.2-4l3.3,0.6
		c2.8,0.4,9.1,2.7,9.1,10v9.9c-11.8,10.1-16.2,10.3-22.5,9.9L554,128l-5.3-8.6C540.5,123.2,534.4,121,530,115.4L530,115.4z
		 M564.6,163.7l2.6,0.9c3.4,1.4,9.6,5.3,9.6,13.8l2.2,0c10,0,24.8,6.5,24.8,21.9v4.5c-7.6,8.5-10.9,10.6-16.3,10.6
		c-8.3,0-13.7-4-17.2-6.8c-1.4-1.1-2.7-2.3-4.2-3.3c-0.7-0.5-1.4-0.9-2-1.1c-3.8,0.1-6.9,0.5-10.1,0.7c-4.5,0.4-8.8,0.5-14.2-0.3
		l-8.5-42.3c0-2,0.6-4.4,1.8-6.2l-1.8-14.6c0-5.7,5.1-11.6,11.9-10.2c2.6,0.5,4.9,1.8,6,2.4c1,0.5,2,1.2,2.8,1.6
		c3.5,1.7,6.3,3.6,8.8,5.7c2.1,1.8,4.1,3.8,6.5,6.2c3.4,3.4,3.8,9.1,0.9,12.9l-2,2.6L564.6,163.7L564.6,163.7z M449.6,352.4
		c2.8-2.6,5.7-5,10.5-9.1l2-2.5c0.8-0.8,1.5-1.5,2.8-2.2l5.1-4.9l3.2-2.8l2.5-1.7c6.7-1.4,9.9-1.5,12.9-0.4c1,0.4,2.5,1.1,3.9,2.3
		c5.1,0.2,9.1,1.6,12.2,3.9l2.3,2.3c1,1.1,2,2.6,2.3,3.2l1.8,3.5c1.2,12.7-0.2,18.6-2.9,23.3c-0.9,1.7-1.8,2.8-2.7,4.1l-1.3,2.2
		l-4.4,5c-1.1,1.7-2.1,3-4.1,4.4c-2.2,2.9-5.2,4.9-6.9,5.9l-2.4,1.3c-2.4,1.5-3.7,2.1-5.4,2.6c-1.1,0.3-2.3,0.5-3.5,0.7l-2,0.3
		l-2,0.3c-3.5-0.2-6.1-0.4-8.4-1c-2.3-0.6-4.6-1.7-6.5-3.5c-2.4-1.3-4.3-3.4-5.6-5.6c-3.4,1.1-7,1.7-10.3,1.7l-4.9-1
		c-1.3-0.3-2.6-0.7-3.8-1.2c-2.8-1.1-5.3-2.8-7.5-5.9l-5.5,5.2c-1.2,1.3-2.6,2.8-4.2,4.3c-2.6,2.4-8.5,7.8-15.9,7.8
		c-2.2,0-3.8-0.4-4.8-0.7c-7.4-1.5-9.8-6.3-10.6-8.4c-0.8-2.2-1.1-4.4-1.1-6.1c0-1,0.1-2,0.2-2.9c-0.5-0.8-0.9-1.6-1.1-2.5
		c-0.6-2.3-0.7-3.8-0.5-5.7c-0.1-1.5-0.3-2.8-0.3-3.6c0-2.4,0.3-7.7,5.7-11l3.7-2.9c1.1-0.9,1.6-1.4,1.9-1.7l2.3-2
		c3.1-4.1,6.1-7,9.7-9.7c0.8-1.1,1.4-1.5,2.1-2c2.3-3,5.5-5.7,10.9-9.5c1.8-1.7,2.3-2.2,3.2-2.8c1.8-2.3,2.3-3.6,2.9-4.7
		c0.4-1.6,0.9-3.1,1.6-4.8l0.6-1.7l0.5-2l2-4.1l1.4-3.1c1.1-2.4,2.6-5.6,4.9-9c1.5-4,8.1-14.4,17.2-14.4c11.7,0,12.9,11.2,12.9,16.9
		l-1.1,5.7c-0.2,1.3-0.3,2.2-0.6,3.2c-1.2,5.2-2.1,7.7-3.2,10c-1.4,5.3-2.1,7.6-4.9,13l-0.8,1.9c-0.4,1.3-0.9,2.6-1.9,4.2
		c-0.5,2.5-1.4,4.4-2.3,5.9l-1.1,1.9c-0.8,2.5-0.9,3.4-0.9,5.3l0.3,2L449.6,352.4L449.6,352.4z M653,300.2
		c6.5-4.4,11.7-2.2,14.9,1.9c2.5,3.2,3.8,7.8,3.3,10.8c-0.3,3.7-4.4,17.7-12.7,21.3c-1.4,5.2-3,9.2-5.7,12.1
		c1.4,2.3,1.9,3.5,2.1,4.4c2-1.8,4.6-4,8.6-7.3l2-2.5c0.8-0.8,1.5-1.5,2.8-2.2l5.1-4.9l3.2-2.8l2.5-1.7c6.7-1.4,9.9-1.5,12.9-0.4
		c1,0.4,2.5,1.1,3.9,2.3c5.1,0.2,9.1,1.6,12.2,3.9l2.3,2.3c1,1.1,2,2.6,2.3,3.2l1.8,3.5c1.2,12.7-0.2,18.6-2.9,23.3
		c-0.9,1.7-1.8,2.8-2.7,4.1l-1.3,2.2l-4.4,5c-1.1,1.7-2.1,3-4.1,4.4c-2.2,2.9-5.2,4.9-6.9,5.9l-2.4,1.3c-2.4,1.5-3.7,2.1-5.4,2.6
		c-1.1,0.3-2.3,0.5-3.5,0.7l-2,0.3l-2,0.3c-3.5-0.2-6.1-0.4-8.4-1c-2.3-0.6-4.6-1.7-6.5-3.5c-1.9-1.1-3.5-2.6-4.8-4.4
		c-3.2,2-6.9,3.6-10.7,3.6l-2.1-0.3c-5.3,0.3-10.6-2-13.9-5.9l-3.1,2.2c-2.1,2.3-4.7,4-6.3,4.9l-2.1,1.2l-2.4,1.4l-3.4,1.2
		c-0.7,0.3-1.5,0.5-2.3,0.7c-0.9,0.2-1.8,0.4-2.9,0.4c-4.9,0-10.1-3.6-11.1-4.5c-1.5-2.2-2.2-3.4-2.7-4.5c-3.5-0.5-6.4-1.9-8.7-3.3
		l-1.2,2.6l-1.1,2.4c-1.3,4.7-3.7,11.3-5.2,14.7c-0.7,4-2.8,9.6-4.3,12.8c-0.4,2.9-1.3,5.3-2.3,7.1l-1.5,2.6
		c-0.8,1.9-1.1,2.5-1.6,3.4c-2,2.9-5.5,5.3-10.1,5.3c-5.4,0-10.8-2.7-13.6-8.1c-1.2-6.3-1.3-10.9-1.3-13.2c0.1-0.8,0.2-3.8,0.3-5.9
		l0.3-4l0.3-1.8c0.1-1,0.2-1.5,0.4-2.6l0.6-3c0.3-1.8,0.7-4.6,0.7-7.2l0.6-3.8c0.2-1.2,0.4-2.6,0.8-4c-1.2-1.9-2.1-3.4-2.8-4.9
		c-0.8-1.7-1.3-3.4-1.2-5.4l0.1-6.2l2.3-5.8l3.7-3.9c1.7-2.6,1.7-3.1,2.1-3.8c0.6-1.1,1.4-2.3,2.2-3.3l1.3-1.8c1.4-2.5,3.1-5,5-8
		l2.3-3.8c2.3-4,3.8-7,4.9-9.8l3.6-5c1.9-1.8,2.8-2.6,3.6-3.1c1.5-1,3.5-1.9,6-1.9c4,0,6.8,2,8.5,3.9c1.6,1.8,2.3,3.7,2.6,4.5
		c0.9,2.5,1.3,5.2,1.3,7.6c0,4-1.5,7.6-2.2,9.2l-1,2.2l1.5,2.2c1.6,0.8,3.4,2.1,5.2,3.8l2.6,3.8l1.7,2.1l2.4-2.4
		c3-3.5,4.5-5.2,7.1-7c0.8-0.9,1.5-1.6,2.2-2.2c1-0.9,2.1-1.7,3.4-2.6l2.6-1.9l2.1-1.9c2.4-1.4,3.2-2.2,3.9-3
		c-1.8-1.7-3.8-3.7-4.9-6c-2.7-5.9-0.3-12.4,3.8-16.4c1.4-2.2,5.7-8.7,11.6-10.5c7.1-2.2,12.4-0.8,16,3.1
		C651.3,301.1,652,300.6,653,300.2L653,300.2z M46.1,330.7c1.7-1,2.7-1.7,3.9-2.6c2.3-2.3,2.8-3.1,3.1-3.5c0.2-5-0.1-6.7-0.3-7.6
		l-1.6-3.3c-0.3,0.9-0.7,1.9-1.2,2.8c-0.6,2.7-1.6,5.6-2.3,7.5l0,2L46.1,330.7L46.1,330.7z M113.2,341l-0.2,2.1L113.2,341L113.2,341
		z M286.7,349.5c2.1-2.1,5.1-4.9,10-9l2-2.5c0.8-0.8,1.5-1.5,2.8-2.2l5.1-4.9l3.2-2.8l2.5-1.7c6.7-1.4,9.9-1.5,12.9-0.4
		c1,0.4,2.5,1.1,3.9,2.3c5.1,0.2,9.1,1.6,12.2,3.9l2.3,2.3c1,1.1,2,2.6,2.3,3.2l1.8,3.5c1.2,12.7-0.2,18.6-2.9,23.3
		c-0.9,1.7-1.8,2.8-2.7,4.1l-1.3,2.2l-4.4,5c-1.1,1.7-2.1,3-4.1,4.4c-2.2,2.9-5.2,4.9-6.9,5.9l-2.4,1.3c-2.4,1.5-3.7,2.1-5.4,2.6
		c-1.1,0.3-2.3,0.5-3.5,0.7l-2,0.3l-2,0.3c-3.5-0.2-6.1-0.4-8.4-1c-2.3-0.6-4.6-1.7-6.5-3.5c-1.9-1.1-3.6-2.7-4.8-4.4
		c-3.6,2.3-7.9,4.1-11.5,4.1c-0.9,0-4.2-0.4-4.3-0.4l-6.3-2.4c-2.5-1.7-3.3-2.3-4-3c-1.2-1.2-2.2-2.5-3.1-4.1
		c-3.8,3.3-5.7,4.6-7.3,5.7l-3.8,2.5c-5.1,3.4-8.9,4.9-12.3,5.8c-1.3,0.3-2.2,0.5-3.2,0.7l-1.9,0.5c-7.4,0.5-12.9,0.2-18.6-3.1
		l-2.9-2.2c-1.1-0.9-2.2-1.9-3.3-3.1c-2,0.8-4.3,1.3-6.6,1.3l-2.1-0.3c-5.3,0.3-10.6-2-13.9-5.9l-3.1,2.2c-2.1,2.3-4.7,4-6.3,4.9
		l-2.1,1.2l-2.4,1.4l-3.4,1.2c-0.7,0.3-1.5,0.5-2.3,0.7c-0.9,0.2-1.8,0.4-2.9,0.4c-4.9,0-10.1-3.6-11.1-4.5c-4.7-0.1-9,1.3-12.7,1.3
		c-1.9,0-3.5-0.4-4.8-0.8c-4.2-0.4-7.5-1.9-10-3.6l-1.9-1.4l-2.5-2.4c-2.2,1.4-4.3,2.6-6.3,3.6c-2.4,1.1-5,1.9-7.7,1.9l-2.1-0.3
		c-5.3,0.3-10.6-2-13.9-5.9l-3.1,2.2c-2.1,2.3-4.7,4-6.3,4.9l-2.1,1.2l-2.4,1.4l-3.4,1.2c-0.7,0.3-1.5,0.5-2.3,0.7
		c-0.9,0.2-1.8,0.4-2.9,0.4c-4.9,0-10.1-3.6-11.1-4.5c-3.9-6.6-4.6-9-4.6-11.9c0-1.8,0.3-3.4,0.6-4.7l-0.4-3.8c-0.2-2.2-0.2-4,0-5.5
		l0.3-1.7c-2.8,1-5.5,2.2-7.8,3.1l-3.7,1.4c-0.1,1.1-0.2,1.8-0.2,2.9c2,2.9,2.8,4.9,2.8,7.3c0,3.3-7,19.3-18.8,19.3
		c-3.1,0-6.8-1.1-9.6-4.8c-0.7-1-1.4-2.1-1.9-3.2l-1.5-3.2c-0.7-9.4-0.5-14.1-0.3-16.8l-1.6-1.8c-2.4-7.2-3-14,2.6-17.9l1.1-3.9
		l0.4-5l0.3-1.8c0.4-6.1,1.1-12.1,2.8-16.8l0.7-6.1c0.4-3.6,1-8.3,2.5-15.1l-3.8-5c-0.6-1-1.3-2.3-1.7-3.2c-0.5-1.1-0.9-2.6-0.9-4.3
		c0-6.4,6-13.7,10.9-16.5l2-1.5c2.4-1.6,4.9-3.1,8.1-3.1c2.3,0,4.3,0.7,5.9,1.6c3.7,0.8,7,2.4,9.2,3.7l4.1,2.4c1,0.6,2,1.2,3,1.6
		l3.6,2.9c4.1,2.7,5.5,3.9,6.6,5.3c4,2.9,8.8,8.4,11,12.8c0.6,0.8,1.4,2,1.8,2.8c0.5,1,0.9,1.9,1.2,2.7l0.7,1.7l1,1.9l1.1,5.3
		c0.9,3.5,1.1,4.7,1.4,5.9l0.5,4.1c0,2.5-0.3,5.7-1,9.2c3.2-2.4,5.1-3.9,6.9-5.1c2.6-1.7,6.6-3.9,11.7-3.9c4.2,0,7.6,1.9,9.9,4.2
		l1.8,2.1c0.6,1.9,0.7,3.1,0.8,4.2l1-3.7l1-3.4c0.4-1.2,1-2.7,1.6-3.9c0.7-2.6,3.2-8.3,5.2-11.6c1.2-3.7,2.8-6.8,4-8.9l1.6-2.6
		c3.4-6.5,5.7-9.5,8-11.9l2.4-2.3l2-2l5.7-3c18.5-1.2,20.2,11.1,20.2,17.1c0,5.2-0.9,8.8-1.7,11.6l-0.8,3L166,308l-1.1,3.7l-0.6,1.8
		l-0.6,1.8c-1.5,5.9-3.2,9.5-4.9,12.4l-1.7,2.8c-0.8,2.4-1.8,4.5-3.1,6.7c-1.2,2.2-2.6,4.2-3.7,6l-4,6.1c-1,1.5-2.1,3.3-2.6,4.2
		l-0.9,3.4l2.1-0.3c1.5-0.9,3.1-2,5.1-3.2c1.3-1.7,2.6-2.8,4.1-3.7l2-2l2.9-2.7c1.7-2.3,3.2-4.1,5.8-5.8c0.8-0.9,1.5-1.6,2.2-2.2
		c1-0.9,2.1-1.7,3.4-2.6l2.6-1.9l2.1-1.9l1.9-1.2c-0.9-1-1.5-1.7-1.9-2.4c-1.3-1.9-2.3-4.3-2.3-7.3c4.5-8,7-9.8,9.9-11l3.2-1.2
		c1.4-0.5,2.5-0.9,4.4-2.2c4.5-3,6.4-5.1,7.2-6.2l1.8-2.4c2.1-1.9,2.7-2.4,3.4-2.9c1.4-0.9,3.1-1.6,5.1-1.6c2.9,0,9.1,0.4,13.5,5.9
		l1.9,4.2l0.6,5l-2.5,6.9l-1.5,2.6c-4.9,3.8-7.2,5.2-8.9,6.2l0.3,1.7c1.5,8.1,0.2,13.7-3.2,17.5c1.5,2.3,1.9,3.5,2.1,4.4
		c2.9-2.3,5.3-4.3,9.1-6.9c2.1-2.1,9-6.9,12.8-8.9c4.4-3.8,11.1-7.5,18.5-7.5c9.6,0,11,8.8,11.1,11.4c10.9-1.1,17-0.5,22.4,6.5
		C285.5,343.3,286.2,347,286.7,349.5L286.7,349.5z"/>
	<path class="st1" d="M448.4,365.3c-6,0-6-4.7-7.4-6.1c-1.8-4-1.1-8.8-1.8-10.4c0-4.5,0.7-6,0.9-8.3c1.8-5.1,3.8-5.2,3.8-9.6
		c3.2-3.7,1.6-4.7,3.4-6.7c2.8-5.5,2.8-6.7,2.8-8.3c1.1-4.1,3-4.5,3.8-11.7c1.2-0.3,1.2-7.1,2.2-7.6c0-6.5-1.4-7.1-3-7.1
		c-2.8,0-8.4,7.1-8.4,9.2c-4.5,6.4-5.1,10.9-7.7,14.7c0,1.9-2,5.6-3,9.6c-1.5,1.9-1.8,7.9-3.7,7.9c-2,0-3,0.8-5.1,2.9
		c-5.8,4.1-8.7,6.8-10.3,9.1c-0.8,0.5-1.5,1.1-1.8,1.9c-3.5,2.5-6.8,5.6-9.1,8.3c-0.1,1.6-3.2,2.9-4.7,5.3c-1.9,0.7-2.4,2.1-5.6,4
		c-1.1,0.7-1.4,1.7-1.4,2.8c0,1.2,0.5,1.9,0.5,2.5c0,0.7-0.8,1.7-0.8,2.8c0,0.9,0.3,1.3,0.7,1.3c0.9,0,1.4-2.4,3.2-2.4
		c0.5,0,0.8,0.1,0.8,0.4c0,0.7-2.7,4.9-2.7,10.1c0,1.6,0.5,4.1,2,4.4c1.6,0.3,2.8,0.9,4.5,0.9c6.1,0,13.1-9.9,15.4-11.5
		c2.7-4.7,5.1-4.1,6.6-8.5c0.4-1.3,4.1-6.1,5.4-6.1c1.8,0,0.7,4.3,2.6,6c0.1,2.3,1.4,4.4,2.7,5.6c2.3,4.3,5.7,4.1,9.1,5.2
		c6.5,0,13.8-3.2,15.4-6.5c0-0.8-0.4-1.6-0.4-4.8c0.3-0.7,0.4-1.3,0.4-2.1c0-0.3-0.3-0.5-0.9-0.5
		C455.6,361.9,453.7,365.3,448.4,365.3L448.4,365.3z M428.8,346.1c-3,5.6-4.6,6.9-6.5,10.4c-2.2,2-3.2,4.1-4.5,5.5
		c-3.1,2.9-7.3,8.9-9.7,8.9c0-5.2,6.1-11.6,8.4-16.1c3-2.5,4.1-5.6,5.6-6c0-1.2,5.5-7.2,6.8-7.2V346.1L428.8,346.1z"/>
	<path class="st1" d="M452.6,366.1c0.3,0.3,0.4,0.7,0.4,1.2c0,0.5-0.1,1.5-0.4,2.1v2.4c2.2-0.4,5.6-6,8.9-6.4c0,2.1-0.9,2.3-0.9,6
		c0,1.6-0.3,2-0.3,3.6c0,2.5,1.5,5.9,4.7,7.1c0.8,1.3,1.4,1.7,7.3,2.4c1.2-0.5,6-0.5,7.6-1.9c0.9-0.8,6.6-2.8,8.7-6.7
		c5-3.2,0.5-1.3,7.2-7.1c1.5-4.5,6.6-5.9,6.6-19.7c0-1.2-1.1-2.3-1.6-4.3c-1.9-1.2-1.8-4.1-9.3-4.1c-2.6,0-4.6,1.9-6.6,2
		c0-1.9,1.6-3.1,1.6-3.6c0-0.8-1.2-1.6-5.4-1.6c-1.2,0-6.5,5.9-10.2,8.9c-1.9,0.4-3,3.3-3.8,3.7c-13.1,11.1-13.1,12.4-14.5,13.5
		V366.1L452.6,366.1z M472.5,371.8c0-5.6,3.8-11.7,4.5-11.7c4.6,0,4.1-7.3,11.1-7.3c3.4,0,4.3,2.4,4.3,5.3c0,3.6-1.9,4.3-1.9,6.1
		c0,1.3-1.5,3.1-2.8,3.7c-1.4,2.5-9.2,7.7-11.5,7.7C473.7,375.7,472.5,374.2,472.5,371.8L472.5,371.8z"/>
	<path class="st2" d="M584.9,351.9c-2.7,0-3.1,1.3-4.7,2.3c-1.2,3.1-3.9,5.6-8,16.9c-1.8,3.5-1.8,6.7-3.9,11.2
		c-1.9,6.4-3.4,7.1-3.4,11.6c-1.9,2.5-0.9,6-3,6.4c0.7-2.1,1.2-8.8,2.3-10.4c0-1.5,0.7-4.5,2.6-11.1c0.4-3.6,5.5-17.7,5.5-19.7
		c3.4-6.7,3.5-10,4.6-12.3c0.4-3.1,1.8-3.9,3-8.3c0-1.9,2.8-5.7,2.8-9.3c0-2.8-0.9-6.1-2.6-6.1c-1.5,0-3,3.1-3.9,3.6
		c-1.2,3.2-3.1,6.9-4.2,8.1c-0.5,2.7-7,11.9-8.1,13.9c-0.4,1.5-4.5,5.6-4.7,8.1c-0.3,2.7-6.1,5.7-6.1,6.8c0,2.7,0,3.5-0.4,3.7
		c0,0.4,0.4,1.2,0.4,1.6c0,0.5-0.4,1.2-0.4,2c0,0.4,0.1,0.7,0.7,0.7c1.4,0,2-3.3,5.8-4.8c0,5.3-0.9,6-0.9,8.4c0,1.1-0.9,3.1-1.4,6.7
		c-0.8,2.1-0.9,5.3-1.4,6.5c0,6.7-1.8,11.3-1.8,13.5c-0.5,0.1-0.5,9.2-0.8,11.1c0,2,0.1,5.5,0.3,8c0.8,1.6,2.6,2.7,4.7,2.7
		c1.9,0,2.3-1.6,3-3.3c0.7-1.9,2.6-2.9,3-8.1c1.4-2.3,4.2-10,4.3-12.8c1.4-2.5,5-12,5-14.7c2-2.1,6.5-17.4,9.3-17.4
		c1.9,0,7.4,8.9,13.4,8.9c3,0,11.2-4,11.2-5.7c0-4.3,0.1-5.2,0.1-6.1c0-0.8-0.3-1.2-0.8-1.2c-1.5,0-2.7,3.2-6.6,3.2
		c-2.2,0-3.4-2.4-4.7-3.2c-1.8-4.7-3.8-4.9-6.1-9.5C587.2,351.9,586.7,351.9,584.9,351.9L584.9,351.9z"/>
	<path class="st2" d="M657.5,363.8c-0.7,0-0.8,1.6-2.8,2.7c-0.9,0-1.4,1.6-3.9,1.6c-3.1,0-4.9-3.1-4.9-5.9c0-2.5,0.5-3.2,0.5-4.8
		c-1.4-1.5-0.1-5.7-2.6-5.7c-0.9,0-2.7,0.1-4.5,0.5c-1.9,1.9-5.7,3.6-7.7,6.9c-3.8,1.7-7.2,5.5-7.7,6.7c-3.3,1.5-4.7,4.3-7.4,4.3
		c0-1.6,1.2-2,1.5-3.3c2.2-3.3,6.5-6.1,7.9-8.9c1.6-0.7,3.7-2.8,4.9-4.8c2.2-1.5,3.8-2.8,4.6-4.4c2.7-2.9,5.6-3.7,7.3-7.3
		c3-0.9,5.3-3.6,5.7-6.7c-1.4-1.2-1.6-2.9-4.3-2.9c-4.6,0-8.1,3.9-12.7,6.7c-1.4,1.6-2.8,3.1-4.5,3.5c-3.3,3.9-8.5,5.9-10,8.8
		c-2.7,1.6-3.5,2.5-5.7,5.7c-1.5,0.4-3.9,4.1-6.5,5.7c-2.7,1.6-2.7,3.3-2.7,10.4c0.4,0,1.6,0.3,1.6,0.8c0,0.7-1.4,2.5-1.4,5.2
		c0,0.8,0,1.7,0.9,4.3c0.8,0.7,3.7,2.3,4.9,2.3c1.2,0,2.2-0.9,4.1-1.1c2.2-2,6-2.8,8.7-6.4c4.2-2,5.7-6.5,8-6.7
		c0.9-1.6,4.5-4.8,5.4-4.8c1.9,0,0.4,7.1,2.8,8.7c0.9,2.4,4.2,4.4,6.1,4.4c0.7,0,1.6-0.4,2-0.4c0.4,0,1.2,0.4,1.8,0.4
		c1.8,0,3.8-1.1,7.7-3.7c1.5-1.7,3.5-2.3,3.5-3.6c0-0.8-0.3-1.3-0.3-1.9c0-0.8,0.4-1.5,0.4-1.9c0-0.5-0.3-2.1-0.3-3.9L657.5,363.8
		L657.5,363.8z"/>
	<path class="st2" d="M637.4,308.2c-2.5,0.8-6,5.6-7.2,7.8c-5,4-1,8.6,1,6.3c0.2,0.6,4.5-3.4,6.7-4.1c3.6-1.1,2.8,1.3,5.3,5.9
		c3.9,3.7,8.6,2.1,11.1,1c3.1-1.1,7.6-12.3,7.1-13.8c0.8-1-1.2-4.4-3.5-2.6c-2.6,0.8-1.9,6.5-4.9,8.2c-2.6,1.6-5.4,1.3-8.1-5.2
		C643.6,307.9,642.3,306.7,637.4,308.2L637.4,308.2z"/>
	<path class="st1" d="M656,366.1c0.3,0.3,0.4,0.7,0.4,1.2c0,0.5-0.1,1.5-0.4,2.1v2.4c2.2-0.4,5.6-6,8.9-6.4c0,2.1-0.9,2.3-0.9,6
		c0,1.6-0.3,2-0.3,3.6c0,2.5,1.5,5.9,4.7,7.1c0.8,1.3,1.4,1.7,7.3,2.4c1.2-0.5,6-0.5,7.6-1.9c0.9-0.8,6.6-2.8,8.7-6.7
		c5-3.2,0.5-1.3,7.2-7.1c1.5-4.5,6.6-5.9,6.6-19.7c0-1.2-1.1-2.3-1.6-4.3c-1.9-1.2-1.8-4.1-9.3-4.1c-2.6,0-4.6,1.9-6.6,2
		c0-1.9,1.6-3.1,1.6-3.6c0-0.8-1.2-1.6-5.4-1.6c-1.2,0-6.5,5.9-10.2,8.9c-1.9,0.4-3,3.3-3.8,3.7c-13.1,11.1-13.1,12.4-14.5,13.5
		V366.1L656,366.1z M675.9,371.8c0-5.6,3.8-11.7,4.5-11.7c4.6,0,4.1-7.3,11.1-7.3c3.4,0,4.3,2.4,4.3,5.3c0,3.6-1.9,4.3-1.9,6.1
		c0,1.3-1.5,3.1-2.8,3.7c-1.4,2.5-9.2,7.7-11.5,7.7C677.1,375.7,675.9,374.2,675.9,371.8L675.9,371.8z"/>
	<path class="st1" d="M33.4,373.2c0-1.3-2.8-1.6-2.8-5.3c0-3.3,0-4.9,0.5-6.3c0-1.1-0.1-2-0.1-2.7c0-2.9,0.5-4.4,1.4-4.4
		c4.9,0,11.5-3.7,19.4-6.3c15.8-7.6,16-10.3,19.5-13.3c3.8-6,4.7-12.4,4.7-16.9c0-1.9-0.8-3.9-0.9-6.9c-0.7-0.4-0.9-2-1.1-5.1
		c-1.6-1.5-2.2-5.6-4.2-7.5c-0.9-3.1-7.3-10.1-9.7-11.1c-2.3-4.1-4.6-2.9-7-6.4c-5.3-2.3-11-7.3-16.5-7.3c-0.5-0.8-1.2-1.2-1.9-1.2
		c-1.8,0-2.2,1.7-5.1,3.3c-3,1.6-6,6.3-6,8c0,2,5.7,6.7,7,11.1c-4.1,16.2-3,21.8-4.3,25.6c-1.2,3.3-1.9,8.7-2,14.1
		c-1.1,0.9-1.1,14-1.9,15.2c-2.6,4.3-5.5,1.3-5.5,6.5c3.9,2.9,4.9,1.5,4.9,5.1c0,1.3-1.1,4.1-1.1,15.8c2.2,4.8,2.6,5.3,4.1,5.3
		C28.4,382.6,33.4,373.8,33.4,373.2L33.4,373.2z M63.2,323.4c0,6.1-2.7,8.3-3.4,9.9c-1.9,0.9-5.4,4.4-8,5.3
		c-1.6,2.1-4.3,2.3-5.7,3.7c-6.4,2.4-9.9,4.5-11.2,4.5c-1.4,0-1.5-0.7-1.5-2.5c0-1.6,1.8-10.8,2.4-12c0-4.5,2.2-6.1,2.2-7.2
		c0-0.7-0.4-1.9-0.4-2.5c0,0,2.2-5.5,3-9.6c1.6-2.7,1.8-4.8,1.8-6.1c1.1-2.4,1.6-4.3,1.6-5.2c0-6.5-7.9-11.5-7.9-13.2
		c0-0.4,0.3-0.7,0.5-0.8c3.4,0.8,1.6,1.1,5.1,2.1c2.2,0.7,3.7,3.7,11.1,9.1c2,3.5,5.8,6.4,6.9,11.1
		C61.7,311.2,63.2,315.4,63.2,323.4L63.2,323.4z"/>
	<path class="st2" d="M117,359.7c-0.7,0-0.8,1.6-2.8,2.7c-0.9,0-1.4,1.6-3.9,1.6c-3.1,0-4.9-3.1-4.9-5.9c0-2.5,0.5-3.2,0.5-4.8
		c-1.4-1.5-0.1-5.7-2.6-5.7c-0.9,0-2.7,0.1-4.5,0.5c-1.9,1.9-5.7,3.6-7.7,6.9c-3.8,1.7-7.2,5.5-7.7,6.7c-3.2,1.5-4.7,4.3-7.4,4.3
		c0-1.6,1.2-2,1.5-3.3c2.2-3.3,6.5-6.1,7.9-8.9c1.6-0.7,3.7-2.8,4.9-4.8c2.2-1.5,3.8-2.8,4.6-4.4c2.7-2.9,5.6-3.7,7.3-7.3
		c3-0.9,5.3-3.6,5.7-6.7c-1.4-1.2-1.6-2.9-4.3-2.9c-4.6,0-8.1,3.9-12.7,6.7c-1.4,1.6-2.8,3.1-4.5,3.5c-3.3,3.9-8.5,5.9-10,8.8
		c-2.7,1.6-3.5,2.5-5.7,5.7c-1.5,0.4-3.9,4.1-6.5,5.7c-2.7,1.6-2.7,3.3-2.7,10.4c0.4,0,1.6,0.3,1.6,0.8c0,0.7-1.4,2.5-1.4,5.2
		c0,0.8,0,1.7,0.9,4.3c0.8,0.7,3.7,2.3,4.9,2.3c1.2,0,2.2-0.9,4.1-1.1c2.2-2,6-2.8,8.7-6.4c4.2-2,5.7-6.5,8-6.7
		c0.9-1.6,4.5-4.8,5.4-4.8c1.9,0,0.4,7.1,2.8,8.7c0.9,2.4,4.2,4.4,6.1,4.4c0.7,0,1.6-0.4,2-0.4s1.2,0.4,1.8,0.4
		c1.8,0,3.8-1.1,7.7-3.7c1.5-1.7,3.5-2.3,3.5-3.6c0-0.8-0.3-1.3-0.3-1.9c0-0.8,0.4-1.5,0.4-1.9c0-0.5-0.3-2.1-0.3-3.9L117,359.7
		L117,359.7z"/>
	<path class="st1" d="M158.7,291.8c0-4.8-0.7-8.1-6.2-8.1l-3,1.1c-2.6,3.1-5.1,3.9-9.7,12.4c-0.4,1.6-4.5,6.3-6.1,12.7
		c-1.5,2-4.6,9.1-5.3,11.7c-1.4,2-2.6,8.9-3.7,11.5c-0.1,3.5-2.2,6.9-2.2,15.2c-0.3,0.3-0.5,0.5-0.5,4c-2.6,2.7-6.9,7.3-8,8.1v4.8
		c0,2.5-0.7,3.2-0.7,3.6c0,0.3,0.1,0.5,0.5,0.5c0.9,0,1.6-2.8,8.7-7.1c1.2,7.5,3.5,8.9,3.7,10c1.9,1.3,4.3,4.9,8.5,4.9h1.5
		c0.5,0.3,1.6,0.7,2.7,0.7c4.3,0,12.9-4.3,16.2-6.7c2.7-1.1,3.7-1.6,4.2-2c0.4-0.3,0.4-8.4,0.4-9.5c-8.5,3.3-10.2,7.5-16.5,7.5
		c-6,0-9.2-4.4-9.6-6.7c-0.8-0.7-1.8-5.2-1.8-8c0.9-1.9,2.3-2,3.2-3.9c2.3-4.5,11.9-17.2,12.3-20.6c0.3-2,5-6.8,6-14
		c1.1-1.1,1.8-5.6,2.7-6.5C156.2,302.3,158.7,299.8,158.7,291.8L158.7,291.8z M139.8,319.3c0-3.2,3.5-6.7,3.9-8.7
		c1.5-1.1,4.2-4.5,4.9-4.5c0,1.1-1.1,2.1-1.1,6.3c-1.6,2.5-3.2,11.5-6.1,14.5c-4.7,7.6-6.2,12.3-8.4,12.3c0-4.4,2.8-7.6,2.8-11.2
		C137.1,327.7,139.8,320.5,139.8,319.3L139.8,319.3z"/>
	<path class="st1" d="M207.5,302c-0.9,0-1.5,4.4-11.9,11.5c-5.7,3.9-7.4,2.9-13.1,6.3c0,2.3,2.2,2.7,3,3.1c2.7-1.1,8.4-2.3,10.8-3.6
		c1.6-0.8,3.4-2,4.2-2.1c1.9-0.3,5.8-3.7,10.7-5.3c0.7-1.9,1.4-2.8,2.4-4c0-2,0-3.2-0.3-3.5C211.8,302.4,209.7,302,207.5,302
		L207.5,302z M212.4,359.7c-0.7,0-0.8,1.6-2.8,2.7c-0.9,0-1.4,1.6-3.9,1.6c-3.1,0-4.9-3.1-4.9-5.9c0-2.5,0.5-3.2,0.5-4.8
		c-1.4-1.5-0.1-5.7-2.6-5.7c-0.9,0-2.7,0.1-4.5,0.5c-1.9,1.9-5.7,3.6-7.7,6.9c-3.8,1.7-7.2,5.5-7.7,6.7c-3.3,1.5-4.7,4.3-7.4,4.3
		c0-1.6,1.2-2,1.5-3.3c2.2-3.3,6.5-6.1,7.9-8.9c1.6-0.7,3.7-2.8,4.9-4.8c2.2-1.5,3.8-2.8,4.6-4.4c2.7-2.9,5.6-3.7,7.3-7.3
		c3-0.9,5.3-3.6,5.7-6.7c-1.4-1.2-1.6-2.9-4.3-2.9c-4.6,0-8.1,3.9-12.7,6.7c-1.4,1.6-2.8,3.1-4.5,3.5c-3.2,3.9-8.5,5.9-10,8.8
		c-2.7,1.6-3.5,2.5-5.7,5.7c-1.5,0.4-3.9,4.1-6.5,5.7c-2.7,1.6-2.7,3.3-2.7,10.4c0.4,0,1.6,0.3,1.6,0.8c0,0.7-1.4,2.5-1.4,5.2
		c0,0.8,0,1.7,0.9,4.3c0.8,0.7,3.7,2.3,4.9,2.3c1.2,0,2.2-0.9,4.1-1.1c2.2-2,6-2.8,8.7-6.4c4.2-2,5.7-6.5,8-6.7
		c0.9-1.6,4.5-4.8,5.4-4.8c1.9,0,0.4,7.1,2.8,8.7c0.9,2.4,4.2,4.4,6.1,4.4c0.7,0,1.6-0.4,2-0.4c0.4,0,1.2,0.4,1.8,0.4
		c1.8,0,3.8-1.1,7.7-3.7c1.5-1.7,3.5-2.3,3.5-3.6c0-0.8-0.3-1.3-0.3-1.9c0-0.8,0.4-1.5,0.4-1.9c0-0.5-0.3-2.1-0.3-3.9L212.4,359.7
		L212.4,359.7z"/>
	<path class="st2" d="M252.2,339.4c0-1.2-0.4-2.4-0.7-3.5c0-2.4-0.5-2.8-1.4-2.8c-4.7,0-9.2,2.3-12.7,5.6
		c-1.6,0.4-11.2,7.2-12.6,8.7c-4.6,3.1-6.1,4.9-6.9,6.5c-1.2,0.7-9.1,5.9-9.1,7.1c0,6.9-0.1,7.3-0.1,7.7c0,0.4,0.3,0.7,0.5,0.7
		c0.4,0,1.9-2.7,3-2.7c0.8,0,0.5,4.1,1.2,4.9c0,6.8,5,7.2,6,8.9c3,1.7,5.5,1.9,10.4,1.9c3.2-1.5,6-0.1,14.6-5.9
		c4.2-2.7,12.7-8,12.7-10.7c0-0.7-0.1-1.2-0.5-1.7c0-1.1,0-2,0.4-3.1c-0.8,0-0.8-2-1.9-2c-0.9,0-1.1,2.5-3.1,4.1
		c-7.9,5.7-12.3,8.3-13.8,8.3c-0.7,0-1.4,1.1-3,1.1c-1.5,0-2.8-0.1-3.9-0.1c-4.3-0.7-4.9-1.2-6-5.2c0.3-1.1,0.1-4.9,1.2-6.5
		c3.8-5.9,12.7-8.9,14.3-12.3C247.5,345.8,252.2,341.2,252.2,339.4L252.2,339.4z"/>
	<path class="st1" d="M251.5,367.3c0,0.8,0,1.5,0.4,1.9c1.1-0.1,1.9-2.4,3.8-2.9c0.5-1.1,5.3-5.9,6.8-5.9c3.1,0,1.6,3.2,5,6.3
		c2.2,7.7,5.3,8,7,9.7c0.1,0,3.4,0.4,4.3,0.4c3.7,0,13.8-7.2,13.8-9.2c0-2.7,0.3-5.5,0.3-8.1c-2.8,1.3-4.3,3.2-5.1,4.3
		c-2.2,0.7-3.4,1.6-5,1.6c-3.8,0-3.8-5.2-5-6.3c0-3.9-1.2-11.1-1.8-11.7c-2.4-3.2-4.5-3.7-8-3.7c-1.4,0.9-1.9,1.5-2.7,3.3
		c-2.2,0.8-6.6,6.7-7.4,8c-2.2,0.8-3.9,4.3-5.8,5.5C251.9,361.2,251.5,366.1,251.5,367.3L251.5,367.3z M282.2,305.2
		c-2.2,0-6.8,1.5-7.4,4c-3.9,1.5-7.3,5.6-7.3,9.9c0,2.1,0.8,2.4,1.2,4c0.3,1.2,0.9,1.3,5.8,1.3c2.6-2,7-2.5,8.3-8.8
		c1.2-1.2,2-7.1,2-8.8C283.9,306.3,283.9,305.2,282.2,305.2L282.2,305.2z"/>
	<path class="st1" d="M289.2,363.3c0.3,0.3,0.4,0.7,0.4,1.2c0,0.5-0.1,1.5-0.4,2.1v2.4c2.2-0.4,5.5-6,8.9-6.4c0,2.1-0.9,2.3-0.9,6
		c0,1.6-0.3,2-0.3,3.6c0,2.5,1.5,5.9,4.7,7.1c0.8,1.3,1.4,1.7,7.3,2.4c1.2-0.5,6-0.5,7.6-1.9c0.9-0.8,6.6-2.8,8.7-6.7
		c5-3.2,0.5-1.3,7.2-7.1c1.5-4.5,6.6-5.9,6.6-19.7c0-1.2-1.1-2.3-1.6-4.3c-1.9-1.2-1.8-4.1-9.3-4.1c-2.6,0-4.6,1.9-6.6,2
		c0-1.9,1.6-3.1,1.6-3.6c0-0.8-1.2-1.6-5.4-1.6c-1.2,0-6.5,5.9-10.2,8.9c-1.9,0.4-3,3.3-3.8,3.7c-13.1,11.1-13.1,12.4-14.5,13.5
		V363.3L289.2,363.3z M309.1,369c0-5.6,3.8-11.7,4.5-11.7c4.6,0,4.1-7.3,11.1-7.3c3.4,0,4.3,2.4,4.3,5.3c0,3.6-1.9,4.3-1.9,6.1
		c0,1.3-1.5,3.1-2.8,3.7c-1.4,2.5-9.2,7.7-11.5,7.7C310.3,372.9,309.1,371.4,309.1,369L309.1,369z"/>
	<path class="st3" d="M414.1,220.8l2.3-0.1c15.4,0.1,25.7,0.5,38.5,0.7v-71.9h-40.8L414.1,220.8L414.1,220.8z M380.8,221.5
		c10.3,0,16.5,0.5,25-0.1h-4.3v-71.9h-40.8v71.9C360.7,221.4,370.1,221.5,380.8,221.5L380.8,221.5z M307.3,220.5
		c5.5-0.3,11.2-0.5,18-0.5c8.7,0,15.9,0.4,22.8,1v-71.5h-40.8V220.5L307.3,220.5z M491.3,120.1v-4.3l-109-42.1l-109.5,41.5v5H491.3
		L491.3,120.1z M324.1,92l3.1-1.2c-0.3-2.7,0.1-5.3,0.4-7.9C325.8,85.6,324.6,88.7,324.1,92L324.1,92z M494.8,123.6l-12.3,0v25.8
		h-15v71.9l1.8,0c5.5,0,8.4,1.3,13.9,2c-23.3-0.2-36.4-0.7-59.6-0.7c-24.5,0-38.2,8.4-59.5,20.3c-12.9,7.1-16.9,21.8-31.7,21.8
		l4-10.6l-2-2.6c-3.8,0.8-5.8,3.3-9.7,3.3c-2.6,0-4-2-6.6-2c-8.8,0-12.6,6.4-19.8,11.2c-11.7,7.8-19,11.1-29.6,20.3
		c-4,3.5-4,9.9-9.3,9.9c-1.3,0-2.1-1-3.3-1.3c11.4-15.2,19.5-24.3,36.2-33.5c14-7.8,27.1-11.9,31.1-27.8c-25.9,0-38.5,10.7-60,25.8
		c-10.1,6.9-15.5,14.2-27.8,15.2c2.1-6.4,4.8-9.7,7.3-15.9c-6.8,1.7-10.1,5.3-17,5.3c-5.1,0-7.9-5.5-7.9-10.6
		c0-9.1,7.4-16.5,16.5-16.5h29.4c7.9,0,8.9-8.4,15.4-13c5.9-0.2,10.9-0.5,15.7-0.8v-71.8H281v-25.8l-11.7,0v-10.9l46.1-17.5
		c-2.3-1.2-4.1-3.1-7.1-3.1c-10.2,0-15.9,2.5-26.1,3.3c5.1-3.8,8.4-5.9,11.9-11.2l18.5,5.3c2.3-0.2,3.6-0.5,5.9-0.7
		c0.8-8.8-3.1-17.4,4-22.3c8.8-6.1,23-2.6,24.9-13.2c1-5.6,1.2-13.2,6.9-13.2c6.8,0,10.1,5.3,16.9,5.3c3,0,3-3.6,5.3-5.3
		c0.8-0.6,1.6-1,2.4-1.5c7.4-3,12-3.4,15.9-7.1c5.1-4.8,3.3-15.7,10.6-15.7c4,0,6.6,4,6.6,7.9c0,8.4-10.9,8.4-18.5,11.7
		c-3,1.2-3.3,5.3-6.6,5.3c-3,0-4.6-1.5-7.3-2.5c-2.7,4.7-4,9.1-8.6,9.1c-7.1,0-11.2-0.2-18.3,0c0,7.9-7.1,11.6-14.5,14.5
		c1.7,4.1,3.6,6.6,5.9,10.6l-0.7,2.6c-6.1-1.5-11.6,1.8-15.3,6.9c1.3-0.2,2.6-0.7,3.9-0.7c0.8,0,1.4,0.2,1.9,0.5
		c2.2,1.7,2.7,2.1,3.5,2.1c10.9,0,15.7-12.3,15.7-24.1c12.9-0.9,19.7-6.9,29-12.7c3.1-1.9,6.5-3.8,10.4-5.3
		c4.4-1.7,8.7,0.7,12.5-1.3c5.7-3.1,6.1-10.3,11.8-14.3c1.9,2.8,2.6,6.4,3.2,10c12-4.2,17.3-9.8,31.1-10.9c0.7,2,0.2,1.4,0.7,2
		c0.5,0.7,0.6,1.1,0.6,1.6c0,6.4-3.9,9.7-9,12c-4.9,2.2-11.1,3.5-16.5,5.9c-14.5,6.4-23.5,14-39.9,16.6l-0.3-1.7
		c15.8-2.5,25.4-10.3,39.4-16.5c5.4-2.3,11.6-3.6,16.5-5.8c4.8-2.1,7.9-5,7.9-10.4c-0.4-0.7-0.5-0.8-0.7-1.1
		c-11.5,0.4-20,6.9-30.4,10.3c-1.5-3-2-6.4-2.8-9.7c-4.7,4-4.8,10.2-11,13.6c-4.5,2.4-8.3-0.3-12.7,1.4
		c-13.6,5.4-22.6,16.9-38.3,17.2c-0.2,11.5-5.1,25-17.4,25c-0.8,0-1.4-0.2-1.9-0.5l-1.9-1.5c-0.9-0.5-1.2-0.7-1.6-0.7
		c-0.6,0-1.1,0.1-1.6,0.2l-1.3,0.3c-0.3,2.5-0.5,4.1-0.6,6.6l53.7-20.3l5.1,2c15.1-7.5,23-11.2,37.9-18.6
		c-5.1,6.9-10.9,8.4-18.5,12.6c-5,2.7-8.2,6.9-12.6,8.6l6.8,2.6c16-11.7,28.4-14,48.6-17.2c-0.5,3.5-1.8,5.5-3.3,8.6l0.7,2.6h5.9
		l11.9-3.3h5.3c-1.2,3.1-2.6,5.3-4.6,7.9c1.5,0.7,2.3,2,4,2c10.6,0,16.4-1.7,26.9-2.6c11.6,0,18.2-2.1,29.7-0.2
		c-0.5,1.2-1.3,2-1.3,3.5c0,2.8,2.6,3.8,5.1,5.1c-2.3,3.8-8.4,3.5-8.4,7.9c0,2.1,0.8,3.3,1.3,5.3c-17.7,0.7-27.6,2-45.3,2
		c-8.9,0-14.5,0.8-22.5-0.7l39.8,15.4V123.6L494.8,123.6z M383,251.6c14-11.6,24.3-19.2,42.5-19.2h29.9c9.4,0,14.7-4,24.1-4h8.3
		c-0.2,2-0.7,3.3-0.7,5.3c0,3.6,5.1,3,8.6,4c7.8,2.3,12.6,2.6,20.5,4c14.9,2.5,23.1,6.6,38.2,6.6v6.1c0,5-7.3,4.5-12.2,4.5
		c-14.9,0-21.3-12.6-36.2-12.6c-9.6,0-14.7,4.6-24.3,4.6h-13.4c-13.7,0-21-5.9-34.7-5.9h-12.7C406,245,397.9,251.6,383,251.6
		L383,251.6z M541.2,161.8c5.7,3,8.9,6.4,15.2,9.4c4.5,2.1,10.6,2.1,10.6,7.1c0,5.6-8.9,1-14.5,2c3.6,5,7.8,7.9,14,7.9h12.7
		c7.4,0,14.7,4.6,14.7,12.1v4.5c-2.5,0.2-4,0.7-6.4,0.7c-9.6,0-12.6-8.6-21.8-11.2c-9.6,0-15.4,1.8-24.5,0.6V161.8L541.2,161.8z
		 M548.9,156.1c-3.1,0-4.9,0.4-7.8,0.2V141c2,0.4,4.6,2.3,6.6,3.2c5.5,2.6,8.3,5.6,12.6,9.9l-2,2.6l-2.6,0.7
		C553.1,156.7,551.6,156.1,548.9,156.1L548.9,156.1z M537.9,109.3c1.3-1.5,4-2,5.9-2c2.3,0,4.6,1.7,4.6,4c0,1.2-1.3,1.5-1.3,2.6
		C543.1,113.6,540.2,112.3,537.9,109.3L537.9,109.3z M568.9,109.3v9.9c-4.6,0.5-7.3,0.3-11.9,0v-4.6c2.6-3.3,5.1-5.9,9.4-5.9
		C567.4,108.6,567.9,109.3,568.9,109.3L568.9,109.3z M162.4,195.6c16.7-27.8,40.3-30.5,62-54v30.5c-4.4,7-16.6,8-25.8,12.9
		c-10.6,5.6-12.1,15.5-23,20.5c1.5-3,2.3-4.8,3.3-7.9l-2,2.6l-46.8,32.9l1.3-2.6c19.3-21.5,39.8-26.6,52.5-53.2l-2.5,1.2
		C173.6,184.6,171.4,191.1,162.4,195.6L162.4,195.6z M198.5,206.8c8.3-6.1,21.5-23.3,25.8-22.8v8.5c-4.7,8.7-20.5,7.3-27.8,17
		L198.5,206.8L198.5,206.8z M217,220.7c2.7-4.1,2.8-11.5,7.3-10.7l0,15.4C222,223,220.2,221.7,217,220.7L217,220.7z"/>
</g>
</svg>
